<svg width="168" height="56" viewBox="0 0 168 56" fill="none" xmlns="http://www.w3.org/2000/svg">
<rect x="0.5" y="0.5" width="167" height="55" rx="10.5" fill="black"/>
<rect x="0.5" y="0.5" width="167" height="55" rx="10.5" stroke="#A6A6A6"/>
<path d="M114.135 26.8805V30.0879H112.125V32.1914H114.135V39.3383C114.135 41.7788 115.239 42.7549 118.017 42.7549C118.505 42.7549 118.97 42.6968 119.376 42.6271V40.5469C119.028 40.5818 118.807 40.605 118.424 40.605C117.18 40.605 116.634 40.024 116.634 38.6992V32.1914H119.376V30.0879H116.634V26.8805H114.135Z" fill="white"/>
<path d="M126.452 42.9292C130.147 42.9292 132.413 40.454 132.413 36.3517C132.413 32.2727 130.136 29.7858 126.452 29.7858C122.756 29.7858 120.479 32.2727 120.479 36.3517C120.479 40.454 122.745 42.9292 126.452 42.9292ZM126.452 40.7096C124.279 40.7096 123.059 39.1175 123.059 36.3517C123.059 33.6091 124.279 32.0054 126.452 32.0054C128.613 32.0054 129.845 33.6091 129.845 36.3517C129.845 39.1059 128.613 40.7096 126.452 40.7096Z" fill="white"/>
<path d="M134.352 42.6852H136.851V35.2128C136.851 33.4348 138.187 32.2378 140.082 32.2378C140.523 32.2378 141.267 32.3192 141.476 32.3889V29.9252C141.209 29.8555 140.732 29.8207 140.36 29.8207C138.71 29.8207 137.304 30.7271 136.944 31.9706H136.758V30.0298H134.352V42.6852Z" fill="white"/>
<path d="M147.68 31.9125C149.528 31.9125 150.736 33.2024 150.794 35.1896H144.403C144.542 33.214 145.832 31.9125 147.68 31.9125ZM150.783 39.2686C150.318 40.2564 149.284 40.8026 147.773 40.8026C145.774 40.8026 144.484 39.3964 144.403 37.1768V37.0374H153.339V36.1658C153.339 32.1914 151.213 29.7858 147.692 29.7858C144.124 29.7858 141.858 32.3541 141.858 36.3982C141.858 40.4423 144.077 42.9292 147.703 42.9292C150.597 42.9292 152.619 41.5347 153.188 39.2686H150.783Z" fill="white"/>
<path d="M97.7504 38.0118C97.9431 41.1194 100.533 43.1068 104.387 43.1068C108.506 43.1068 111.084 41.023 111.084 37.6986C111.084 35.0849 109.615 33.6395 106.049 32.8084L104.134 32.3386C101.87 31.8086 100.954 31.098 100.954 29.8574C100.954 28.2915 102.376 27.2677 104.508 27.2677C106.531 27.2677 107.928 28.2674 108.181 29.8694H110.807C110.65 26.9425 108.073 24.8828 104.544 24.8828C100.75 24.8828 98.2201 26.9425 98.2201 30.038C98.2201 32.5916 99.6535 34.1092 102.797 34.844L105.038 35.386C107.338 35.928 108.35 36.723 108.35 38.0479C108.35 39.5897 106.76 40.7098 104.592 40.7098C102.267 40.7098 100.653 39.6619 100.424 38.0118H97.7504Z" fill="white"/>
<path d="M71.8681 29.8207C70.1482 29.8207 68.6607 30.6806 67.8937 32.1216H67.7077V30.0298H65.3022V46.892H67.8007V40.7677H67.9983C68.6607 42.1042 70.0901 42.8944 71.8913 42.8944C75.0871 42.8944 77.1208 40.3726 77.1208 36.3517C77.1208 32.3308 75.0871 29.8207 71.8681 29.8207ZM71.1592 40.6515C69.0674 40.6515 67.7542 39.0013 67.7542 36.3633C67.7542 33.7137 69.0674 32.0635 71.1708 32.0635C73.2859 32.0635 74.5526 33.6789 74.5526 36.3517C74.5526 39.0362 73.2859 40.6515 71.1592 40.6515Z" fill="white"/>
<path d="M85.8636 29.8207C84.1437 29.8207 82.6562 30.6806 81.8892 32.1216H81.7032V30.0298H79.2977V46.892H81.7962V40.7677H81.9938C82.6562 42.1042 84.0856 42.8944 85.8868 42.8944C89.0826 42.8944 91.1163 40.3726 91.1163 36.3517C91.1163 32.3308 89.0826 29.8207 85.8636 29.8207ZM85.1547 40.6515C83.0629 40.6515 81.7497 39.0013 81.7497 36.3633C81.7497 33.7137 83.0629 32.0635 85.1663 32.0635C87.2814 32.0635 88.5481 33.6789 88.5481 36.3517C88.5481 39.0362 87.2814 40.6515 85.1547 40.6515Z" fill="white"/>
<path d="M60.8194 42.6852H63.6861L57.4107 25.3044H54.5078L48.2324 42.6852H51.0028L52.6047 38.072H59.2294L60.8194 42.6852ZM55.8207 28.4602H56.0255L58.5429 35.8076H53.2913L55.8207 28.4602Z" fill="white"/>
<path d="M49.9121 12.1938V20.5784H52.9394C55.4379 20.5784 56.8848 19.0386 56.8848 16.36C56.8848 13.722 55.4263 12.1938 52.9394 12.1938H49.9121ZM51.2137 13.3792H52.7941C54.5315 13.3792 55.56 14.4832 55.56 16.3774C55.56 18.3007 54.5489 19.3931 52.7941 19.3931H51.2137V13.3792Z" fill="white"/>
<path d="M61.3159 20.7004C63.1636 20.7004 64.2967 19.4628 64.2967 17.4117C64.2967 15.3722 63.1578 14.1287 61.3159 14.1287C59.4681 14.1287 58.3293 15.3722 58.3293 17.4117C58.3293 19.4628 59.4623 20.7004 61.3159 20.7004ZM61.3159 19.5906C60.2293 19.5906 59.6192 18.7946 59.6192 17.4117C59.6192 16.0404 60.2293 15.2385 61.3159 15.2385C62.3967 15.2385 63.0126 16.0404 63.0126 17.4117C63.0126 18.7888 62.3967 19.5906 61.3159 19.5906Z" fill="white"/>
<path d="M73.9457 14.2507H72.6964L71.5692 19.0793H71.4704L70.1688 14.2507H68.9719L67.6703 19.0793H67.5773L66.4443 14.2507H65.1776L66.9207 20.5784H68.2049L69.5064 15.9184H69.6052L70.9126 20.5784H72.2083L73.9457 14.2507Z" fill="white"/>
<path d="M75.3844 20.5784H76.6337V16.8771C76.6337 15.8893 77.2205 15.2734 78.1444 15.2734C79.0683 15.2734 79.5099 15.7789 79.5099 16.7958V20.5784H80.7591V16.482C80.7591 14.9771 79.9805 14.1287 78.5686 14.1287C77.6156 14.1287 76.9881 14.5529 76.6801 15.256H76.5872V14.2507H75.3844V20.5784Z" fill="white"/>
<path d="M82.7266 20.5784H83.9759V11.7812H82.7266V20.5784Z" fill="white"/>
<path d="M88.6743 20.7004C90.522 20.7004 91.6551 19.4628 91.6551 17.4117C91.6551 15.3722 90.5162 14.1287 88.6743 14.1287C86.8265 14.1287 85.6876 15.3722 85.6876 17.4117C85.6876 19.4628 86.8207 20.7004 88.6743 20.7004ZM88.6743 19.5906C87.5877 19.5906 86.9776 18.7946 86.9776 17.4117C86.9776 16.0404 87.5877 15.2385 88.6743 15.2385C89.755 15.2385 90.3709 16.0404 90.3709 17.4117C90.3709 18.7888 89.755 19.5906 88.6743 19.5906Z" fill="white"/>
<path d="M95.3773 19.6313C94.6975 19.6313 94.2036 19.3001 94.2036 18.7307C94.2036 18.1729 94.5987 17.8765 95.4703 17.8184L97.0159 17.7196V18.2484C97.0159 19.0328 96.3186 19.6313 95.3773 19.6313ZM95.0577 20.683C95.8886 20.683 96.5801 20.3228 96.9578 19.6894H97.0566V20.5784H98.2593V16.2554C98.2593 14.9189 97.3645 14.1287 95.7782 14.1287C94.343 14.1287 93.3204 14.826 93.1926 15.9125H94.4011C94.5406 15.4651 95.0229 15.2095 95.7201 15.2095C96.5743 15.2095 97.0159 15.5872 97.0159 16.2554V16.8016L95.3018 16.9003C93.7968 16.9933 92.9485 17.6499 92.9485 18.7888C92.9485 19.9451 93.8375 20.683 95.0577 20.683Z" fill="white"/>
<path d="M102.499 20.683C103.37 20.683 104.108 20.2705 104.486 19.579H104.585V20.5784H105.782V11.7812H104.532V15.256H104.439C104.097 14.5587 103.364 14.1461 102.499 14.1461C100.901 14.1461 99.8724 15.4128 99.8724 17.4117C99.8724 19.4163 100.889 20.683 102.499 20.683ZM102.853 15.2676C103.899 15.2676 104.556 16.0985 104.556 17.4175C104.556 18.7423 103.905 19.5616 102.853 19.5616C101.796 19.5616 101.162 18.7539 101.162 17.4117C101.162 16.0811 101.801 15.2676 102.853 15.2676Z" fill="white"/>
<path d="M113.883 20.7004C115.73 20.7004 116.864 19.4628 116.864 17.4117C116.864 15.3722 115.725 14.1287 113.883 14.1287C112.035 14.1287 110.896 15.3722 110.896 17.4117C110.896 19.4628 112.029 20.7004 113.883 20.7004ZM113.883 19.5906C112.796 19.5906 112.186 18.7946 112.186 17.4117C112.186 16.0404 112.796 15.2385 113.883 15.2385C114.964 15.2385 115.579 16.0404 115.579 17.4117C115.579 18.7888 114.964 19.5906 113.883 19.5906Z" fill="white"/>
<path d="M118.517 20.5784H119.767V16.8771C119.767 15.8893 120.353 15.2734 121.277 15.2734C122.201 15.2734 122.643 15.7789 122.643 16.7958V20.5784H123.892V16.482C123.892 14.9771 123.113 14.1287 121.701 14.1287C120.748 14.1287 120.121 14.5529 119.813 15.256H119.72V14.2507H118.517V20.5784Z" fill="white"/>
<path d="M129.646 12.6761V14.2798H128.64V15.3315H129.646V18.905C129.646 20.1252 130.198 20.6133 131.586 20.6133C131.83 20.6133 132.063 20.5842 132.266 20.5494V19.5093C132.092 19.5267 131.981 19.5383 131.79 19.5383C131.168 19.5383 130.895 19.2478 130.895 18.5854V15.3315H132.266V14.2798H130.895V12.6761H129.646Z" fill="white"/>
<path d="M133.943 20.5784H135.192V16.8829C135.192 15.9242 135.762 15.2792 136.784 15.2792C137.668 15.2792 138.138 15.7905 138.138 16.8016V20.5784H139.388V16.4936C139.388 14.9887 138.557 14.1345 137.209 14.1345C136.256 14.1345 135.587 14.5587 135.28 15.2676H135.181V11.7812H133.943V20.5784Z" fill="white"/>
<path d="M143.894 15.192C144.818 15.192 145.422 15.837 145.451 16.8306H142.256C142.325 15.8428 142.97 15.192 143.894 15.192ZM145.446 18.8701C145.213 19.364 144.696 19.6371 143.941 19.6371C142.941 19.6371 142.296 18.934 142.256 17.8242V17.7545H146.724V17.3187C146.724 15.3315 145.661 14.1287 143.9 14.1287C142.116 14.1287 140.983 15.4128 140.983 17.4349C140.983 19.457 142.093 20.7004 143.906 20.7004C145.353 20.7004 146.364 20.0032 146.648 18.8701H145.446Z" fill="white"/>
<path d="M34.6772 28.4195C34.7075 26.0661 35.9714 23.8393 37.9764 22.6067C36.7115 20.8002 34.5929 19.6549 32.3887 19.5859C30.0378 19.3391 27.7587 20.9927 26.5607 20.9927C25.3395 20.9927 23.495 19.6104 21.5088 19.6513C18.9198 19.7349 16.5063 21.2068 15.2467 23.4703C12.5391 28.1581 14.5587 35.0475 17.1524 38.8368C18.45 40.6923 19.9666 42.7649 21.9511 42.6914C23.8929 42.6109 24.6182 41.4531 26.9622 41.4531C29.2845 41.4531 29.9649 42.6914 31.9896 42.6447C34.0733 42.6109 35.3862 40.781 36.6383 38.9079C37.5707 37.5858 38.2881 36.1246 38.7641 34.5784C36.3153 33.5427 34.68 31.0783 34.6772 28.4195Z" fill="white"/>
<path d="M30.8528 17.0939C31.989 15.73 32.5487 13.977 32.4132 12.207C30.6774 12.3893 29.074 13.2189 27.9226 14.5305C26.7966 15.8119 26.2106 17.5342 26.3214 19.2364C28.0578 19.2543 29.7648 18.4472 30.8528 17.0939Z" fill="white"/>
</svg>
