<svg width="20" height="20" viewBox="0 0 20 20" fill="none" xmlns="http://www.w3.org/2000/svg">
<path d="M10.0664 0.15625C8.13804 0.15625 6.25298 0.728077 4.6496 1.79942C3.04622 2.87076 1.79654 4.39351 1.05859 6.17509C0.320631 7.95666 0.127548 9.91706 0.503754 11.8084C0.87996 13.6997 1.80856 15.437 3.17212 16.8005C4.53568 18.1641 6.27296 19.0927 8.16428 19.4689C10.0556 19.8451 12.016 19.652 13.7976 18.9141C15.5792 18.1761 17.1019 16.9264 18.1732 15.3231C19.2446 13.7197 19.8164 11.8346 19.8164 9.90625C19.8137 7.32123 18.7856 4.84286 16.9577 3.01497C15.1298 1.18709 12.6514 0.15898 10.0664 0.15625ZM10.0664 18.1562C8.43471 18.1562 6.83966 17.6724 5.48295 16.7659C4.12625 15.8594 3.06883 14.5709 2.4444 13.0634C1.81998 11.5559 1.6566 9.8971 1.97493 8.29675C2.29326 6.69641 3.079 5.2264 4.23278 4.07262C5.38656 2.91884 6.85657 2.1331 8.45691 1.81477C10.0573 1.49644 11.7161 1.65982 13.2235 2.28424C14.731 2.90867 16.0195 3.96609 16.926 5.32279C17.8326 6.6795 18.3164 8.27455 18.3164 9.90625C18.3139 12.0935 17.4439 14.1905 15.8973 15.7371C14.3507 17.2838 12.2537 18.1538 10.0664 18.1562ZM14.347 9.37562C14.4168 9.44528 14.4721 9.528 14.5098 9.61904C14.5476 9.71009 14.567 9.80769 14.567 9.90625C14.567 10.0048 14.5476 10.1024 14.5098 10.1935C14.4721 10.2845 14.4168 10.3672 14.347 10.4369L11.347 13.4369C11.2063 13.5776 11.0154 13.6567 10.8164 13.6567C10.6174 13.6567 10.4265 13.5776 10.2858 13.4369C10.1451 13.2961 10.066 13.1053 10.066 12.9062C10.066 12.7072 10.1451 12.5164 10.2858 12.3756L12.0061 10.6562H6.31641C6.1175 10.6562 5.92673 10.5772 5.78608 10.4366C5.64543 10.2959 5.56641 10.1052 5.56641 9.90625C5.56641 9.70734 5.64543 9.51657 5.78608 9.37592C5.92673 9.23527 6.1175 9.15625 6.31641 9.15625H12.0061L10.2858 7.43687C10.1451 7.29614 10.066 7.10527 10.066 6.90625C10.066 6.70723 10.1451 6.51635 10.2858 6.37562C10.4265 6.23489 10.6174 6.15583 10.8164 6.15583C11.0154 6.15583 11.2063 6.23489 11.347 6.37562L14.347 9.37562Z" fill="#32AE4C"/>
</svg>
