<svg width="26" height="26" viewBox="0 0 26 26" fill="none" xmlns="http://www.w3.org/2000/svg">
<path d="M13 0.8125C10.5895 0.8125 8.23322 1.52728 6.22899 2.86646C4.22477 4.20564 2.66267 6.10907 1.74022 8.33604C0.817781 10.563 0.576428 13.0135 1.04668 15.3777C1.51694 17.7418 2.67769 19.9134 4.38214 21.6179C6.08659 23.3223 8.2582 24.4831 10.6223 24.9533C12.9865 25.4236 15.437 25.1822 17.664 24.2598C19.8909 23.3373 21.7944 21.7752 23.1335 19.771C24.4727 17.7668 25.1875 15.4105 25.1875 13C25.1841 9.76872 23.899 6.67076 21.6141 4.3859C19.3292 2.10104 16.2313 0.815912 13 0.8125ZM13 23.3125C10.9604 23.3125 8.96657 22.7077 7.27069 21.5745C5.5748 20.4414 4.25303 18.8308 3.4725 16.9464C2.69197 15.0621 2.48775 12.9886 2.88566 10.9881C3.28357 8.9877 4.26574 7.15019 5.70797 5.70796C7.1502 4.26573 8.98771 3.28356 10.9881 2.88565C12.9886 2.48774 15.0621 2.69196 16.9464 3.47249C18.8308 4.25302 20.4414 5.5748 21.5745 7.27068C22.7077 8.96656 23.3125 10.9604 23.3125 13C23.3094 15.7341 22.2219 18.3553 20.2886 20.2886C18.3553 22.2219 15.7341 23.3094 13 23.3125ZM18.3508 12.3367C18.438 12.4238 18.5071 12.5272 18.5543 12.641C18.6015 12.7548 18.6257 12.8768 18.6257 13C18.6257 13.1232 18.6015 13.2452 18.5543 13.359C18.5071 13.4728 18.438 13.5762 18.3508 13.6633L14.6008 17.4133C14.4249 17.5892 14.1863 17.688 13.9375 17.688C13.6887 17.688 13.4501 17.5892 13.2742 17.4133C13.0983 17.2374 12.9995 16.9988 12.9995 16.75C12.9995 16.5012 13.0983 16.2626 13.2742 16.0867L15.4246 13.9375H8.3125C8.06386 13.9375 7.82541 13.8387 7.64959 13.6629C7.47378 13.4871 7.375 13.2486 7.375 13C7.375 12.7514 7.47378 12.5129 7.64959 12.3371C7.82541 12.1613 8.06386 12.0625 8.3125 12.0625H15.4246L13.2742 9.91328C13.0983 9.73737 12.9995 9.49878 12.9995 9.25C12.9995 9.00122 13.0983 8.76263 13.2742 8.58672C13.4501 8.4108 13.6887 8.31198 13.9375 8.31198C14.1863 8.31198 14.4249 8.4108 14.6008 8.58672L18.3508 12.3367Z" fill="white"/>
</svg>
