<svg width="16" height="17" viewBox="0 0 16 17" fill="none" xmlns="http://www.w3.org/2000/svg">
<path d="M1.33203 13.3021C1.33203 14.4354 2.1987 15.3021 3.33203 15.3021H12.6654C13.7987 15.3021 14.6654 14.4354 14.6654 13.3021V7.96875H1.33203V13.3021ZM12.6654 3.30208H11.332V2.63542C11.332 2.23542 11.0654 1.96875 10.6654 1.96875C10.2654 1.96875 9.9987 2.23542 9.9987 2.63542V3.30208H5.9987V2.63542C5.9987 2.23542 5.73203 1.96875 5.33203 1.96875C4.93203 1.96875 4.66536 2.23542 4.66536 2.63542V3.30208H3.33203C2.1987 3.30208 1.33203 4.16875 1.33203 5.30208V6.63542H14.6654V5.30208C14.6654 4.16875 13.7987 3.30208 12.6654 3.30208Z" fill="#DFDFDF"/>
</svg>
