<svg width="268" height="174" viewBox="0 0 268 174" fill="none" xmlns="http://www.w3.org/2000/svg">
<rect width="79.5768" height="79.5768" rx="9.14676" fill="#202020"/>
<rect x="0.457338" y="0.457338" width="78.6621" height="78.6621" rx="8.68942" stroke="white" stroke-opacity="0.04" stroke-width="0.914676"/>
<rect x="0.457338" y="0.457338" width="78.6621" height="78.6621" rx="8.68942" stroke="url(#paint0_linear_10996_14560)" stroke-opacity="0.12" stroke-width="0.914676"/>
<path d="M25.418 30.5294C26.6273 29.4618 28.216 28.814 29.956 28.814H50.5362C52.2762 28.814 53.8649 29.4618 55.0743 30.5294C54.7931 28.2732 52.8686 26.5273 50.5362 26.5273H29.956C27.6237 26.5273 25.6991 28.2732 25.418 30.5294Z" fill="white"/>
<path d="M25.418 35.1028C26.6273 34.0352 28.216 33.3874 29.956 33.3874H50.5362C52.2762 33.3874 53.8649 34.0352 55.0743 35.1028C54.7931 32.8466 52.8686 31.1007 50.5362 31.1007H29.956C27.6237 31.1007 25.6991 32.8466 25.418 35.1028Z" fill="white"/>
<path d="M29.9562 35.6741C27.4304 35.6741 25.3828 37.7217 25.3828 40.2475V49.3942C25.3828 51.92 27.4304 53.9676 29.9562 53.9676H50.5364C53.0622 53.9676 55.1098 51.92 55.1098 49.3942V40.2475C55.1098 37.7217 53.0622 35.6741 50.5364 35.6741H44.8197C44.1882 35.6741 43.6763 36.186 43.6763 36.8174C43.6763 38.7118 42.1406 40.2475 40.2463 40.2475C38.3519 40.2475 36.8163 38.7118 36.8163 36.8174C36.8163 36.186 36.3044 35.6741 35.6729 35.6741H29.9562Z" fill="white"/>
<rect y="94.2109" width="79.5768" height="79.5768" rx="9.14676" fill="#202020"/>
<rect x="0.457338" y="94.6683" width="78.6621" height="78.6621" rx="8.68942" stroke="white" stroke-opacity="0.04" stroke-width="0.914676"/>
<rect x="0.457338" y="94.6683" width="78.6621" height="78.6621" rx="8.68942" stroke="url(#paint1_linear_10996_14560)" stroke-opacity="0.12" stroke-width="0.914676"/>
<path fill-rule="evenodd" clip-rule="evenodd" d="M33.3859 125.309V126.453H30.3566C28.8938 126.453 27.667 127.557 27.5139 129.012L25.5883 147.305C25.4106 148.993 26.7339 150.463 28.4309 150.463H52.0612C53.7582 150.463 55.0815 148.993 54.9038 147.305L52.9782 129.012C52.8251 127.557 51.5983 126.453 50.1355 126.453H47.106V125.309C47.106 121.521 44.0346 118.449 40.2459 118.449C36.4572 118.449 33.3859 121.521 33.3859 125.309ZM40.2459 120.736C37.7201 120.736 35.6726 122.783 35.6726 125.309V126.453H44.8193V125.309C44.8193 122.783 42.7717 120.736 40.2459 120.736ZM35.6726 133.313C35.6726 135.839 37.7201 137.886 40.2459 137.886C42.7717 137.886 44.8193 135.839 44.8193 133.313V132.169C44.8193 131.538 45.3312 131.026 45.9627 131.026C46.5941 131.026 47.106 131.538 47.106 132.169V133.313C47.106 137.101 44.0346 140.173 40.2459 140.173C36.4572 140.173 33.3859 137.101 33.3859 133.313V132.169C33.3859 131.538 33.8978 131.026 34.5292 131.026C35.1607 131.026 35.6726 131.538 35.6726 132.169V133.313Z" fill="white"/>
<rect x="94.2109" width="79.5768" height="79.5768" rx="9.14676" fill="#202020"/>
<rect x="94.6683" y="0.457338" width="78.6621" height="78.6621" rx="8.68942" stroke="white" stroke-opacity="0.04" stroke-width="0.914676"/>
<rect x="94.6683" y="0.457338" width="78.6621" height="78.6621" rx="8.68942" stroke="url(#paint2_linear_10996_14560)" stroke-opacity="0.12" stroke-width="0.914676"/>
<path fill-rule="evenodd" clip-rule="evenodd" d="M118.451 31.6709C118.451 30.0922 119.731 28.8125 121.31 28.8125H147.606C149.185 28.8125 150.465 30.0922 150.465 31.6709V36.2844C150.465 36.6925 150.247 37.0697 149.894 37.2741C148.866 37.8689 148.178 38.9778 148.178 40.2459C148.178 41.5141 148.866 42.623 149.894 43.2178C150.247 43.4222 150.465 43.7994 150.465 44.2075V48.821C150.465 50.3997 149.185 51.6794 147.606 51.6794H121.31C119.731 51.6794 118.451 50.3997 118.451 48.821V44.2075C118.451 43.7994 118.669 43.4222 119.022 43.2178C120.05 42.623 120.738 41.5141 120.738 40.2459C120.738 38.9778 120.05 37.8689 119.022 37.2741C118.669 37.0697 118.451 36.6925 118.451 36.2844V31.6709ZM141.318 29.9558C141.95 29.9558 142.461 30.4677 142.461 31.0992V32.2425C142.461 32.874 141.95 33.3859 141.318 33.3859C140.687 33.3859 140.175 32.874 140.175 32.2425V31.0992C140.175 30.4677 140.687 29.9558 141.318 29.9558ZM142.461 36.8159C142.461 36.1845 141.95 35.6726 141.318 35.6726C140.687 35.6726 140.175 36.1845 140.175 36.8159V37.9593C140.175 38.5907 140.687 39.1026 141.318 39.1026C141.95 39.1026 142.461 38.5907 142.461 37.9593V36.8159ZM141.318 41.3893C141.95 41.3893 142.461 41.9012 142.461 42.5326V43.676C142.461 44.3074 141.95 44.8193 141.318 44.8193C140.687 44.8193 140.175 44.3074 140.175 43.676V42.5326C140.175 41.9012 140.687 41.3893 141.318 41.3893ZM142.461 48.2494C142.461 47.6179 141.95 47.106 141.318 47.106C140.687 47.106 140.175 47.6179 140.175 48.2494V49.3927C140.175 50.0242 140.687 50.536 141.318 50.536C141.95 50.536 142.461 50.0242 142.461 49.3927V48.2494ZM125.311 40.2459C125.311 39.6145 125.823 39.1026 126.455 39.1026H134.458C135.089 39.1026 135.601 39.6145 135.601 40.2459C135.601 40.8774 135.089 41.3893 134.458 41.3893H126.455C125.823 41.3893 125.311 40.8774 125.311 40.2459ZM126.455 43.676C125.823 43.676 125.311 44.1879 125.311 44.8193C125.311 45.4508 125.823 45.9627 126.455 45.9627H131.028C131.659 45.9627 132.171 45.4508 132.171 44.8193C132.171 44.1879 131.659 43.676 131.028 43.676H126.455Z" fill="white"/>
<rect x="94.2109" y="94.2109" width="79.5768" height="79.5768" rx="9.14676" fill="#202020"/>
<rect x="94.6683" y="94.6683" width="78.6621" height="78.6621" rx="8.68942" stroke="white" stroke-opacity="0.04" stroke-width="0.914676"/>
<rect x="94.6683" y="94.6683" width="78.6621" height="78.6621" rx="8.68942" stroke="url(#paint3_linear_10996_14560)" stroke-opacity="0.12" stroke-width="0.914676"/>
<path d="M130.456 120.736C128.878 120.736 127.598 122.016 127.598 123.594C127.598 125.173 128.878 126.453 130.456 126.453H133.315V133.313H121.31C119.731 133.313 118.451 132.033 118.451 130.454V129.311C118.451 127.732 119.731 126.453 121.31 126.453H126.178C125.63 125.635 125.311 124.652 125.311 123.594C125.311 120.753 127.615 118.449 130.456 118.449C132.073 118.449 133.515 119.194 134.458 120.36C135.401 119.194 136.843 118.449 138.46 118.449C141.301 118.449 143.605 120.753 143.605 123.594C143.605 124.652 143.286 125.635 142.738 126.453H148.75C150.328 126.453 151.608 127.732 151.608 129.311V130.454C151.608 132.033 150.328 133.313 148.75 133.313H135.601V126.453H138.46C140.038 126.453 141.318 125.173 141.318 123.594C141.318 122.016 140.038 120.736 138.46 120.736C136.881 120.736 135.601 122.016 135.601 123.594V126.453H133.315V123.594C133.315 122.016 132.035 120.736 130.456 120.736Z" fill="white"/>
<path d="M133.315 135.599H120.738V145.889C120.738 147.784 122.274 149.32 124.168 149.32H133.315V135.599Z" fill="white"/>
<path d="M135.601 135.599V149.32H145.891C147.786 149.32 149.321 147.784 149.321 145.889V135.599H135.601Z" fill="white"/>
<rect x="188.424" width="79.5768" height="79.5768" rx="9.14676" fill="#202020"/>
<rect x="188.881" y="0.457338" width="78.6621" height="78.6621" rx="8.68942" stroke="white" stroke-opacity="0.04" stroke-width="0.914676"/>
<rect x="188.881" y="0.457338" width="78.6621" height="78.6621" rx="8.68942" stroke="url(#paint4_linear_10996_14560)" stroke-opacity="0.12" stroke-width="0.914676"/>
<path d="M228.669 33.3874C226.775 33.3874 225.239 34.9231 225.239 36.8174C225.239 38.7118 226.775 40.2475 228.669 40.2475C230.563 40.2475 232.099 38.7118 232.099 36.8174C232.099 34.9231 230.563 33.3874 228.669 33.3874Z" fill="white"/>
<path fill-rule="evenodd" clip-rule="evenodd" d="M212.662 29.3857C212.662 27.8071 213.942 26.5273 215.52 26.5273H241.817C243.396 26.5273 244.676 27.8071 244.676 29.3857V44.2492C244.676 45.8278 243.396 47.1075 241.817 47.1075H215.52C213.942 47.1075 212.662 45.8278 212.662 44.2492V29.3857ZM222.952 36.8174C222.952 33.6602 225.512 31.1007 228.669 31.1007C231.826 31.1007 234.386 33.6602 234.386 36.8174C234.386 39.9747 231.826 42.5342 228.669 42.5342C225.512 42.5342 222.952 39.9747 222.952 36.8174ZM238.959 35.6741C238.328 35.6741 237.816 36.186 237.816 36.8174V36.8289C237.816 37.4603 238.328 37.9722 238.959 37.9722H238.97C239.602 37.9722 240.114 37.4603 240.114 36.8289V36.8174C240.114 36.186 239.602 35.6741 238.97 35.6741H238.959ZM217.235 36.8174C217.235 36.186 217.747 35.6741 218.379 35.6741H218.39C219.022 35.6741 219.534 36.186 219.534 36.8174V36.8289C219.534 37.4603 219.022 37.9722 218.39 37.9722H218.379C217.747 37.9722 217.235 37.4603 217.235 36.8289V36.8174Z" fill="white"/>
<path d="M213.805 49.3942C213.174 49.3942 212.662 49.9061 212.662 50.5376C212.662 51.169 213.174 51.6809 213.805 51.6809C222.038 51.6809 230.011 52.7819 237.587 54.844C239.402 55.338 241.246 53.9932 241.246 52.0699V50.5376C241.246 49.9061 240.734 49.3942 240.102 49.3942H213.805Z" fill="white"/>
<rect x="188.424" y="94.2109" width="79.5768" height="79.5768" rx="9.14676" fill="#202020"/>
<rect x="188.881" y="94.6683" width="78.6621" height="78.6621" rx="8.68942" stroke="white" stroke-opacity="0.04" stroke-width="0.914676"/>
<rect x="188.881" y="94.6683" width="78.6621" height="78.6621" rx="8.68942" stroke="url(#paint5_linear_10996_14560)" stroke-opacity="0.12" stroke-width="0.914676"/>
<path fill-rule="evenodd" clip-rule="evenodd" d="M218.95 118.449H224.095C227.252 118.449 229.812 121.009 229.812 124.166V127.024C229.812 128.603 231.092 129.883 232.67 129.883H235.529C238.686 129.883 241.245 132.442 241.245 135.599V147.605C241.245 149.183 239.966 150.463 238.387 150.463H218.95C217.372 150.463 216.092 149.183 216.092 147.605V121.308C216.092 119.729 217.372 118.449 218.95 118.449ZM225.239 142.459C225.239 141.828 224.727 141.316 224.095 141.316C223.464 141.316 222.952 141.828 222.952 142.459V143.603C222.952 144.234 223.464 144.746 224.095 144.746C224.727 144.746 225.239 144.234 225.239 143.603V142.459ZM228.669 137.886C229.3 137.886 229.812 138.398 229.812 139.029V143.603C229.812 144.234 229.3 144.746 228.669 144.746C228.037 144.746 227.525 144.234 227.525 143.603V139.029C227.525 138.398 228.037 137.886 228.669 137.886ZM234.385 135.599C234.385 134.968 233.873 134.456 233.242 134.456C232.611 134.456 232.099 134.968 232.099 135.599V143.603C232.099 144.234 232.611 144.746 233.242 144.746C233.873 144.746 234.385 144.234 234.385 143.603V135.599Z" fill="white"/>
<path d="M232.099 124.166C232.099 122.164 231.364 120.334 230.149 118.931C235.331 120.284 239.41 124.364 240.764 129.545C239.36 128.331 237.53 127.596 235.529 127.596H232.67C232.355 127.596 232.099 127.34 232.099 127.024V124.166Z" fill="white"/>
<defs>
<linearGradient id="paint0_linear_10996_14560" x1="39.7884" y1="0" x2="39.7884" y2="58.9174" gradientUnits="userSpaceOnUse">
<stop stop-color="white"/>
<stop offset="1" stop-color="white" stop-opacity="0"/>
</linearGradient>
<linearGradient id="paint1_linear_10996_14560" x1="39.7884" y1="94.2109" x2="39.7884" y2="153.128" gradientUnits="userSpaceOnUse">
<stop stop-color="white"/>
<stop offset="1" stop-color="white" stop-opacity="0"/>
</linearGradient>
<linearGradient id="paint2_linear_10996_14560" x1="133.999" y1="0" x2="133.999" y2="58.9174" gradientUnits="userSpaceOnUse">
<stop stop-color="white"/>
<stop offset="1" stop-color="white" stop-opacity="0"/>
</linearGradient>
<linearGradient id="paint3_linear_10996_14560" x1="133.999" y1="94.2109" x2="133.999" y2="153.128" gradientUnits="userSpaceOnUse">
<stop stop-color="white"/>
<stop offset="1" stop-color="white" stop-opacity="0"/>
</linearGradient>
<linearGradient id="paint4_linear_10996_14560" x1="228.212" y1="0" x2="228.212" y2="58.9174" gradientUnits="userSpaceOnUse">
<stop stop-color="white"/>
<stop offset="1" stop-color="white" stop-opacity="0"/>
</linearGradient>
<linearGradient id="paint5_linear_10996_14560" x1="228.212" y1="94.2109" x2="228.212" y2="153.128" gradientUnits="userSpaceOnUse">
<stop stop-color="white"/>
<stop offset="1" stop-color="white" stop-opacity="0"/>
</linearGradient>
</defs>
</svg>
