<svg width="590" height="545" viewBox="0 0 590 545" fill="none" xmlns="http://www.w3.org/2000/svg">
<path d="M20 0.5H570C580.77 0.5 589.5 9.23045 589.5 20V525C589.5 535.77 580.77 544.5 570 544.5H20C9.23045 544.5 0.5 535.77 0.5 525V20C0.500006 9.23045 9.23045 0.5 20 0.5Z" fill="#FCFCFC"/>
<path d="M20 0.5H570C580.77 0.5 589.5 9.23045 589.5 20V525C589.5 535.77 580.77 544.5 570 544.5H20C9.23045 544.5 0.5 535.77 0.5 525V20C0.500006 9.23045 9.23045 0.5 20 0.5Z" stroke="#E1E1E1"/>
<rect x="66" y="51.1328" width="458" height="442.733" rx="24" fill="#0F2128"/>
<path d="M110.581 88.9368C110.513 88.361 110.237 87.9141 109.752 87.5959C109.267 87.2777 108.672 87.1186 107.968 87.1186C107.453 87.1186 107.002 87.2019 106.615 87.3686C106.233 87.5353 105.934 87.7644 105.718 88.0561C105.506 88.3478 105.4 88.6792 105.4 89.0504C105.4 89.361 105.473 89.6281 105.621 89.8516C105.773 90.0713 105.966 90.255 106.201 90.4027C106.435 90.5466 106.682 90.666 106.939 90.7607C107.197 90.8516 107.434 90.9254 107.65 90.9822L108.831 91.3004C109.134 91.38 109.471 91.4898 109.843 91.63C110.218 91.7701 110.576 91.9614 110.917 92.2038C111.261 92.4425 111.545 92.7493 111.769 93.1243C111.992 93.4993 112.104 93.9595 112.104 94.505C112.104 95.1338 111.939 95.7019 111.61 96.2095C111.284 96.7171 110.807 97.1205 110.178 97.4197C109.553 97.719 108.793 97.8686 107.9 97.8686C107.066 97.8686 106.345 97.7341 105.735 97.4652C105.129 97.1963 104.651 96.8213 104.303 96.3402C103.958 95.8591 103.763 95.3004 103.718 94.6641H105.172C105.21 95.1035 105.358 95.4671 105.615 95.755C105.877 96.0391 106.206 96.2512 106.604 96.3913C107.006 96.5277 107.437 96.5959 107.9 96.5959C108.437 96.5959 108.92 96.5088 109.348 96.3345C109.776 96.1565 110.115 95.9103 110.365 95.5959C110.615 95.2777 110.74 94.9065 110.74 94.4822C110.74 94.0959 110.632 93.7815 110.417 93.5391C110.201 93.2966 109.917 93.0997 109.564 92.9482C109.212 92.7966 108.831 92.6641 108.422 92.5504L106.99 92.1413C106.081 91.88 105.362 91.5069 104.831 91.022C104.301 90.5372 104.036 89.9027 104.036 89.1186C104.036 88.4671 104.212 87.8989 104.564 87.4141C104.92 86.9254 105.398 86.5466 105.996 86.2777C106.598 86.005 107.271 85.8686 108.013 85.8686C108.763 85.8686 109.43 86.0031 110.013 86.272C110.596 86.5372 111.059 86.9008 111.4 87.3629C111.744 87.825 111.926 88.3497 111.945 88.9368H110.581ZM117.127 97.8686C116.574 97.8686 116.072 97.7644 115.621 97.5561C115.171 97.344 114.813 97.0391 114.548 96.6413C114.282 96.2398 114.15 95.755 114.15 95.1868C114.15 94.6868 114.248 94.2815 114.445 93.9709C114.642 93.6565 114.906 93.4103 115.235 93.2322C115.565 93.0542 115.928 92.9216 116.326 92.8345C116.728 92.7436 117.131 92.6716 117.536 92.6186C118.067 92.5504 118.496 92.4993 118.826 92.4652C119.159 92.4273 119.402 92.3648 119.553 92.2777C119.709 92.1906 119.786 92.0391 119.786 91.8232V91.7777C119.786 91.2171 119.633 90.7815 119.326 90.4709C119.023 90.1603 118.563 90.005 117.945 90.005C117.305 90.005 116.803 90.1451 116.44 90.4254C116.076 90.7057 115.82 91.005 115.673 91.3232L114.4 90.8686C114.627 90.3383 114.93 89.9254 115.309 89.63C115.692 89.3307 116.108 89.1224 116.559 89.005C117.014 88.8838 117.461 88.8232 117.9 88.8232C118.18 88.8232 118.502 88.8572 118.866 88.9254C119.233 88.9898 119.587 89.1243 119.928 89.3288C120.273 89.5334 120.559 89.8421 120.786 90.255C121.014 90.6679 121.127 91.2209 121.127 91.9141V97.6641H119.786V96.4822H119.718C119.627 96.6716 119.476 96.8743 119.264 97.0902C119.051 97.3061 118.769 97.4898 118.417 97.6413C118.065 97.7929 117.635 97.8686 117.127 97.8686ZM117.332 96.6641C117.862 96.6641 118.309 96.5599 118.673 96.3516C119.04 96.1432 119.317 95.8743 119.502 95.5447C119.692 95.2152 119.786 94.8686 119.786 94.505V93.2777C119.729 93.3459 119.604 93.4084 119.411 93.4652C119.222 93.5182 119.002 93.5656 118.752 93.6072C118.506 93.6451 118.265 93.6792 118.031 93.7095C117.8 93.736 117.612 93.7588 117.468 93.7777C117.12 93.8232 116.794 93.897 116.491 93.9993C116.192 94.0978 115.949 94.2474 115.764 94.4482C115.582 94.6451 115.491 94.9141 115.491 95.255C115.491 95.7209 115.663 96.0732 116.008 96.3118C116.356 96.5466 116.798 96.6641 117.332 96.6641ZM130.718 88.9368L127.491 97.6641H126.128L122.9 88.9368H124.355L126.764 95.8913H126.855L129.264 88.9368H130.718ZM132.808 97.6641V88.9368H134.149V97.6641H132.808ZM133.49 87.4822C133.229 87.4822 133.003 87.3932 132.814 87.2152C132.628 87.0372 132.536 86.8232 132.536 86.5732C132.536 86.3232 132.628 86.1091 132.814 85.9311C133.003 85.7531 133.229 85.6641 133.49 85.6641C133.752 85.6641 133.975 85.7531 134.161 85.9311C134.35 86.1091 134.445 86.3232 134.445 86.5732C134.445 86.8232 134.35 87.0372 134.161 87.2152C133.975 87.3932 133.752 87.4822 133.49 87.4822ZM138.266 92.4141V97.6641H136.925V88.9368H138.221V90.3004H138.334C138.539 89.8572 138.849 89.5012 139.266 89.2322C139.683 88.9595 140.221 88.8232 140.88 88.8232C141.471 88.8232 141.988 88.9444 142.431 89.1868C142.874 89.4254 143.219 89.7891 143.465 90.2777C143.711 90.7625 143.834 91.3762 143.834 92.1186V97.6641H142.493V92.2095C142.493 91.5239 142.315 90.9898 141.959 90.6072C141.603 90.2209 141.115 90.0277 140.493 90.0277C140.065 90.0277 139.683 90.1205 139.346 90.3061C139.012 90.4917 138.749 90.7625 138.556 91.1186C138.363 91.4747 138.266 91.9065 138.266 92.4141ZM150.127 101.119C149.48 101.119 148.923 101.035 148.457 100.869C147.991 100.706 147.603 100.49 147.292 100.221C146.985 99.9557 146.741 99.6716 146.559 99.3686L147.627 98.6186C147.749 98.7777 147.902 98.9595 148.088 99.1641C148.273 99.3724 148.527 99.5523 148.849 99.7038C149.175 99.8591 149.601 99.9368 150.127 99.9368C150.832 99.9368 151.413 99.7663 151.872 99.4254C152.33 99.0845 152.559 98.5504 152.559 97.8232V96.0504H152.446C152.347 96.2095 152.207 96.4065 152.025 96.6413C151.847 96.8724 151.589 97.0788 151.252 97.2607C150.919 97.4387 150.468 97.5277 149.9 97.5277C149.196 97.5277 148.563 97.361 148.002 97.0277C147.446 96.6944 147.004 96.2095 146.678 95.5732C146.357 94.9368 146.196 94.1641 146.196 93.255C146.196 92.361 146.353 91.5826 146.667 90.9197C146.982 90.2531 147.419 89.7379 147.98 89.3743C148.54 89.0069 149.188 88.8232 149.923 88.8232C150.491 88.8232 150.942 88.9179 151.275 89.1072C151.612 89.2929 151.87 89.505 152.048 89.7436C152.23 89.9785 152.37 90.1716 152.468 90.3232H152.605V88.9368H153.9V97.9141C153.9 98.6641 153.73 99.2739 153.389 99.7436C153.052 100.217 152.597 100.564 152.025 100.783C151.457 101.007 150.824 101.119 150.127 101.119ZM150.082 96.3232C150.62 96.3232 151.074 96.2 151.446 95.9538C151.817 95.7076 152.099 95.3535 152.292 94.8913C152.485 94.4292 152.582 93.8762 152.582 93.2322C152.582 92.6035 152.487 92.0485 152.298 91.5675C152.108 91.0864 151.828 90.7095 151.457 90.4368C151.086 90.1641 150.627 90.0277 150.082 90.0277C149.514 90.0277 149.04 90.1716 148.661 90.4595C148.286 90.7474 148.004 91.1338 147.815 91.6186C147.629 92.1035 147.536 92.6413 147.536 93.2322C147.536 93.8383 147.631 94.3743 147.821 94.8402C148.014 95.3023 148.298 95.666 148.673 95.9311C149.052 96.1925 149.521 96.3232 150.082 96.3232ZM166.496 86.0277H168.178L172.133 95.6868H172.269L176.224 86.0277H177.906V97.6641H176.587V88.8232H176.474L172.837 97.6641H171.565L167.928 88.8232H167.815V97.6641H166.496V86.0277ZM184.414 97.8459C183.627 97.8459 182.935 97.6584 182.341 97.2834C181.75 96.9084 181.288 96.3838 180.954 95.7095C180.625 95.0353 180.46 94.2474 180.46 93.3459C180.46 92.4368 180.625 91.6432 180.954 90.9652C181.288 90.2872 181.75 89.7607 182.341 89.3857C182.935 89.0107 183.627 88.8232 184.414 88.8232C185.202 88.8232 185.892 89.0107 186.483 89.3857C187.077 89.7607 187.539 90.2872 187.869 90.9652C188.202 91.6432 188.369 92.4368 188.369 93.3459C188.369 94.2474 188.202 95.0353 187.869 95.7095C187.539 96.3838 187.077 96.9084 186.483 97.2834C185.892 97.6584 185.202 97.8459 184.414 97.8459ZM184.414 96.6413C185.013 96.6413 185.505 96.4879 185.892 96.1811C186.278 95.8743 186.564 95.4709 186.75 94.9709C186.935 94.4709 187.028 93.9292 187.028 93.3459C187.028 92.7625 186.935 92.219 186.75 91.7152C186.564 91.2114 186.278 90.8042 185.892 90.4936C185.505 90.183 185.013 90.0277 184.414 90.0277C183.816 90.0277 183.324 90.183 182.937 90.4936C182.551 90.8042 182.265 91.2114 182.079 91.7152C181.894 92.219 181.801 92.7625 181.801 93.3459C181.801 93.9292 181.894 94.4709 182.079 94.9709C182.265 95.4709 182.551 95.8743 182.937 96.1811C183.324 96.4879 183.816 96.6413 184.414 96.6413ZM192.077 92.4141V97.6641H190.736V88.9368H192.031V90.3004H192.145C192.349 89.8572 192.66 89.5012 193.077 89.2322C193.493 88.9595 194.031 88.8232 194.69 88.8232C195.281 88.8232 195.798 88.9444 196.242 89.1868C196.685 89.4254 197.029 89.7891 197.276 90.2777C197.522 90.7625 197.645 91.3762 197.645 92.1186V97.6641H196.304V92.2095C196.304 91.5239 196.126 90.9898 195.77 90.6072C195.414 90.2209 194.925 90.0277 194.304 90.0277C193.876 90.0277 193.493 90.1205 193.156 90.3061C192.823 90.4917 192.56 90.7625 192.367 91.1186C192.173 91.4747 192.077 91.9065 192.077 92.4141ZM204.211 88.9368V90.0732H199.688V88.9368H204.211ZM201.006 86.8459H202.347V95.1641C202.347 95.5429 202.402 95.8269 202.512 96.0163C202.625 96.2019 202.769 96.3269 202.944 96.3913C203.122 96.4519 203.309 96.4822 203.506 96.4822C203.654 96.4822 203.775 96.4747 203.87 96.4595C203.964 96.4406 204.04 96.4254 204.097 96.4141L204.37 97.6186C204.279 97.6527 204.152 97.6868 203.989 97.7209C203.826 97.7588 203.62 97.7777 203.37 97.7777C202.991 97.7777 202.62 97.6963 202.256 97.5334C201.896 97.3705 201.597 97.1224 201.358 96.7891C201.124 96.4557 201.006 96.0353 201.006 95.5277V86.8459ZM208.076 92.4141V97.6641H206.735V86.0277H208.076V90.3004H208.19C208.394 89.8497 208.701 89.4917 209.11 89.2266C209.523 88.9576 210.072 88.8232 210.758 88.8232C211.353 88.8232 211.873 88.9425 212.32 89.1811C212.767 89.416 213.114 89.7777 213.36 90.2663C213.61 90.7512 213.735 91.3686 213.735 92.1186V97.6641H212.394V92.2095C212.394 91.5163 212.214 90.9804 211.855 90.6016C211.498 90.219 211.004 90.0277 210.372 90.0277C209.932 90.0277 209.538 90.1205 209.19 90.3061C208.845 90.4917 208.572 90.7625 208.372 91.1186C208.175 91.4747 208.076 91.9065 208.076 92.4141Z" fill="#F9F9F9"/>
<path d="M121.611 114.363V134.727H117.892L109.033 121.91H108.884V134.727H104.578V114.363H108.357L117.147 127.17H117.326V114.363H121.611ZM141.509 114.363V134.727H137.203V118.45H137.084L132.421 121.373V117.555L137.462 114.363H141.509ZM154.505 135.005C152.974 135.005 151.612 134.756 150.419 134.259C149.232 133.755 148.301 133.069 147.625 132.201C146.948 131.333 146.61 130.348 146.61 129.248C146.61 128.399 146.803 127.621 147.187 126.911C147.578 126.195 148.109 125.602 148.778 125.131C149.448 124.654 150.197 124.349 151.025 124.217V124.077C149.938 123.859 149.056 123.332 148.38 122.496C147.704 121.655 147.366 120.677 147.366 119.563C147.366 118.509 147.674 117.571 148.291 116.749C148.907 115.921 149.752 115.271 150.826 114.8C151.907 114.323 153.133 114.085 154.505 114.085C155.877 114.085 157.1 114.323 158.174 114.8C159.255 115.278 160.103 115.931 160.72 116.759C161.336 117.581 161.648 118.516 161.654 119.563C161.648 120.683 161.303 121.661 160.62 122.496C159.938 123.332 159.063 123.859 157.995 124.077V124.217C158.811 124.349 159.55 124.654 160.213 125.131C160.882 125.602 161.412 126.195 161.804 126.911C162.201 127.621 162.403 128.399 162.41 129.248C162.403 130.348 162.062 131.333 161.386 132.201C160.71 133.069 159.775 133.755 158.582 134.259C157.395 134.756 156.037 135.005 154.505 135.005ZM154.505 131.843C155.188 131.843 155.785 131.72 156.295 131.475C156.805 131.223 157.203 130.879 157.488 130.441C157.78 129.997 157.926 129.487 157.926 128.91C157.926 128.32 157.777 127.799 157.478 127.349C157.18 126.891 156.776 126.533 156.265 126.275C155.755 126.01 155.168 125.877 154.505 125.877C153.849 125.877 153.262 126.01 152.745 126.275C152.228 126.533 151.821 126.891 151.522 127.349C151.231 127.799 151.085 128.32 151.085 128.91C151.085 129.487 151.227 129.997 151.512 130.441C151.797 130.879 152.198 131.223 152.716 131.475C153.233 131.72 153.829 131.843 154.505 131.843ZM154.505 122.745C155.075 122.745 155.582 122.629 156.027 122.397C156.471 122.165 156.819 121.844 157.071 121.433C157.323 121.022 157.448 120.548 157.448 120.011C157.448 119.48 157.323 119.016 157.071 118.619C156.819 118.214 156.474 117.899 156.037 117.674C155.599 117.442 155.089 117.326 154.505 117.326C153.929 117.326 153.418 117.442 152.974 117.674C152.53 117.899 152.182 118.214 151.93 118.619C151.685 119.016 151.562 119.48 151.562 120.011C151.562 120.548 151.688 121.022 151.94 121.433C152.192 121.844 152.54 122.165 152.984 122.397C153.428 122.629 153.935 122.745 154.505 122.745ZM173.418 135.005C172.013 135.005 170.76 134.746 169.659 134.229C168.566 133.712 167.697 133 167.054 132.092C166.411 131.183 166.077 130.143 166.05 128.969H170.226C170.273 129.758 170.604 130.398 171.22 130.888C171.837 131.379 172.569 131.624 173.418 131.624C174.094 131.624 174.691 131.475 175.208 131.177C175.731 130.872 176.139 130.451 176.431 129.914C176.729 129.371 176.878 128.747 176.878 128.045C176.878 127.329 176.726 126.699 176.421 126.156C176.122 125.612 175.708 125.188 175.178 124.883C174.648 124.578 174.041 124.422 173.358 124.415C172.762 124.415 172.182 124.538 171.618 124.783C171.061 125.029 170.627 125.363 170.316 125.788L166.488 125.102L167.452 114.363H179.901V117.883H171.002L170.475 122.984H170.594C170.952 122.48 171.492 122.062 172.215 121.731C172.937 121.399 173.746 121.234 174.641 121.234C175.867 121.234 176.961 121.522 177.922 122.099C178.883 122.675 179.642 123.468 180.199 124.475C180.756 125.476 181.031 126.629 181.024 127.935C181.031 129.308 180.713 130.527 180.07 131.594C179.434 132.655 178.542 133.49 177.395 134.1C176.255 134.703 174.929 135.005 173.418 135.005ZM184.587 134.727V131.624L191.836 124.913C192.452 124.316 192.969 123.779 193.387 123.302C193.811 122.825 194.133 122.357 194.351 121.9C194.57 121.436 194.68 120.935 194.68 120.398C194.68 119.802 194.544 119.288 194.272 118.857C194 118.42 193.629 118.085 193.158 117.853C192.688 117.614 192.154 117.495 191.557 117.495C190.934 117.495 190.391 117.621 189.927 117.873C189.463 118.125 189.105 118.486 188.853 118.957C188.601 119.427 188.475 119.987 188.475 120.637H184.388C184.388 119.305 184.69 118.148 185.293 117.167C185.896 116.186 186.742 115.427 187.829 114.89C188.916 114.353 190.169 114.085 191.587 114.085C193.046 114.085 194.315 114.343 195.396 114.86C196.483 115.371 197.328 116.08 197.931 116.988C198.534 117.896 198.836 118.937 198.836 120.11C198.836 120.879 198.683 121.638 198.378 122.387C198.08 123.136 197.547 123.968 196.778 124.883C196.009 125.791 194.925 126.881 193.526 128.154L190.553 131.067V131.207H199.104V134.727H184.587ZM207.427 131.942L207.318 133.036C207.232 133.911 207.066 134.783 206.821 135.651C206.582 136.526 206.33 137.318 206.065 138.028C205.807 138.737 205.598 139.294 205.439 139.698H202.695C202.794 139.307 202.93 138.76 203.102 138.058C203.275 137.362 203.437 136.579 203.589 135.711C203.742 134.843 203.838 133.958 203.878 133.056L203.927 131.942H207.427ZM218.985 135.174C217.274 135.167 215.803 134.746 214.57 133.911C213.344 133.076 212.399 131.866 211.736 130.282C211.08 128.698 210.755 126.792 210.762 124.565C210.762 122.344 211.09 120.451 211.746 118.887C212.409 117.323 213.353 116.133 214.58 115.317C215.813 114.496 217.281 114.085 218.985 114.085C220.688 114.085 222.153 114.496 223.38 115.317C224.612 116.139 225.56 117.333 226.223 118.897C226.886 120.455 227.214 122.344 227.208 124.565C227.208 126.799 226.876 128.708 226.213 130.292C225.557 131.876 224.616 133.086 223.389 133.921C222.163 134.756 220.695 135.174 218.985 135.174ZM218.985 131.604C220.151 131.604 221.083 131.018 221.779 129.844C222.475 128.671 222.819 126.911 222.813 124.565C222.813 123.02 222.654 121.734 222.335 120.707C222.024 119.679 221.58 118.907 221.003 118.39C220.433 117.873 219.76 117.614 218.985 117.614C217.825 117.614 216.897 118.194 216.201 119.354C215.505 120.514 215.153 122.251 215.147 124.565C215.147 126.129 215.302 127.435 215.614 128.482C215.932 129.523 216.38 130.305 216.956 130.829C217.533 131.346 218.209 131.604 218.985 131.604ZM238.822 135.174C237.112 135.167 235.64 134.746 234.407 133.911C233.181 133.076 232.236 131.866 231.573 130.282C230.917 128.698 230.592 126.792 230.599 124.565C230.599 122.344 230.927 120.451 231.583 118.887C232.246 117.323 233.191 116.133 234.417 115.317C235.65 114.496 237.118 114.085 238.822 114.085C240.526 114.085 241.991 114.496 243.217 115.317C244.45 116.139 245.398 117.333 246.061 118.897C246.723 120.455 247.052 122.344 247.045 124.565C247.045 126.799 246.714 128.708 246.051 130.292C245.394 131.876 244.453 133.086 243.227 133.921C242 134.756 240.532 135.174 238.822 135.174ZM238.822 131.604C239.989 131.604 240.92 131.018 241.616 129.844C242.312 128.671 242.657 126.911 242.65 124.565C242.65 123.02 242.491 121.734 242.173 120.707C241.861 119.679 241.417 118.907 240.84 118.39C240.27 117.873 239.598 117.614 238.822 117.614C237.662 117.614 236.734 118.194 236.038 119.354C235.342 120.514 234.991 122.251 234.984 124.565C234.984 126.129 235.14 127.435 235.451 128.482C235.769 129.523 236.217 130.305 236.794 130.829C237.37 131.346 238.046 131.604 238.822 131.604Z" fill="white"/>
<path d="M105.874 161.616V174.707H104.289V161.616H105.874ZM110.716 168.801V174.707H109.208V164.889H110.665V166.423H110.793C111.023 165.924 111.373 165.524 111.841 165.221C112.31 164.914 112.915 164.761 113.657 164.761C114.322 164.761 114.903 164.897 115.402 165.17C115.9 165.439 116.288 165.848 116.565 166.397C116.842 166.943 116.981 167.633 116.981 168.468V174.707H115.472V168.571C115.472 167.799 115.272 167.199 114.871 166.768C114.471 166.333 113.921 166.116 113.222 166.116C112.741 166.116 112.31 166.221 111.931 166.429C111.556 166.638 111.26 166.943 111.042 167.343C110.825 167.744 110.716 168.23 110.716 168.801ZM124.086 174.912C123.165 174.912 122.373 174.694 121.708 174.26C121.043 173.825 120.532 173.226 120.174 172.463C119.816 171.701 119.637 170.829 119.637 169.849C119.637 168.852 119.82 167.972 120.187 167.209C120.557 166.442 121.073 165.843 121.734 165.413C122.398 164.978 123.174 164.761 124.06 164.761C124.751 164.761 125.373 164.889 125.927 165.145C126.481 165.4 126.935 165.758 127.288 166.218C127.642 166.679 127.861 167.216 127.947 167.829H126.438C126.323 167.382 126.067 166.985 125.671 166.64C125.279 166.291 124.751 166.116 124.086 166.116C123.498 166.116 122.982 166.27 122.539 166.576C122.1 166.879 121.757 167.307 121.51 167.861C121.267 168.411 121.145 169.056 121.145 169.798C121.145 170.556 121.265 171.217 121.503 171.779C121.746 172.342 122.087 172.779 122.526 173.09C122.969 173.401 123.489 173.556 124.086 173.556C124.478 173.556 124.834 173.488 125.153 173.352C125.473 173.216 125.743 173.02 125.965 172.764C126.187 172.508 126.344 172.201 126.438 171.843H127.947C127.861 172.423 127.65 172.945 127.314 173.409C126.981 173.87 126.54 174.236 125.991 174.509C125.445 174.777 124.81 174.912 124.086 174.912ZM130.512 174.707V164.889H131.969V166.372H132.072C132.25 165.886 132.574 165.492 133.043 165.189C133.512 164.887 134.04 164.735 134.628 164.735C134.739 164.735 134.878 164.738 135.044 164.742C135.21 164.746 135.336 164.752 135.421 164.761V166.295C135.37 166.282 135.253 166.263 135.069 166.238C134.89 166.208 134.701 166.193 134.5 166.193C134.023 166.193 133.597 166.293 133.222 166.493C132.851 166.689 132.557 166.962 132.34 167.311C132.127 167.657 132.02 168.051 132.02 168.494V174.707H130.512ZM141.387 174.912C140.441 174.912 139.625 174.703 138.939 174.285C138.257 173.863 137.731 173.275 137.36 172.521C136.993 171.762 136.81 170.88 136.81 169.875C136.81 168.869 136.993 167.983 137.36 167.216C137.731 166.444 138.246 165.843 138.907 165.413C139.571 164.978 140.347 164.761 141.233 164.761C141.745 164.761 142.25 164.846 142.748 165.017C143.247 165.187 143.701 165.464 144.11 165.848C144.519 166.227 144.845 166.73 145.088 167.356C145.331 167.983 145.452 168.754 145.452 169.67V170.309H137.884V169.005H143.918C143.918 168.451 143.807 167.957 143.586 167.522C143.368 167.088 143.057 166.745 142.652 166.493C142.252 166.242 141.779 166.116 141.233 166.116C140.633 166.116 140.113 166.265 139.674 166.564C139.239 166.858 138.905 167.241 138.67 167.714C138.436 168.187 138.319 168.694 138.319 169.235V170.105C138.319 170.846 138.446 171.475 138.702 171.99C138.962 172.502 139.322 172.892 139.782 173.16C140.243 173.424 140.777 173.556 141.387 173.556C141.783 173.556 142.141 173.501 142.461 173.39C142.785 173.275 143.064 173.105 143.298 172.879C143.532 172.649 143.713 172.363 143.841 172.022L145.299 172.431C145.145 172.926 144.887 173.36 144.525 173.735C144.163 174.106 143.716 174.396 143.183 174.605C142.65 174.809 142.052 174.912 141.387 174.912ZM150.996 174.937C150.374 174.937 149.809 174.82 149.302 174.586C148.795 174.347 148.392 174.004 148.094 173.556C147.796 173.105 147.647 172.559 147.647 171.92C147.647 171.358 147.757 170.902 147.979 170.552C148.201 170.199 148.497 169.922 148.868 169.721C149.238 169.521 149.647 169.372 150.095 169.274C150.546 169.172 151 169.091 151.456 169.031C152.053 168.954 152.537 168.897 152.907 168.858C153.282 168.816 153.555 168.745 153.725 168.647C153.9 168.549 153.988 168.379 153.988 168.136V168.085C153.988 167.454 153.815 166.964 153.47 166.615C153.129 166.265 152.611 166.091 151.917 166.091C151.196 166.091 150.632 166.248 150.223 166.564C149.814 166.879 149.526 167.216 149.36 167.574L147.928 167.062C148.184 166.466 148.524 166.001 148.951 165.669C149.381 165.332 149.85 165.098 150.357 164.966C150.868 164.829 151.371 164.761 151.865 164.761C152.181 164.761 152.543 164.799 152.952 164.876C153.365 164.949 153.764 165.1 154.147 165.33C154.535 165.56 154.857 165.907 155.113 166.372C155.368 166.836 155.496 167.458 155.496 168.238V174.707H153.988V173.377H153.911C153.809 173.591 153.638 173.819 153.399 174.061C153.161 174.304 152.843 174.511 152.447 174.681C152.051 174.852 151.567 174.937 150.996 174.937ZM151.226 173.582C151.823 173.582 152.326 173.465 152.735 173.23C153.148 172.996 153.459 172.694 153.668 172.323C153.881 171.952 153.988 171.562 153.988 171.153V169.772C153.924 169.849 153.783 169.919 153.566 169.983C153.353 170.043 153.105 170.096 152.824 170.143C152.547 170.186 152.277 170.224 152.012 170.258C151.752 170.288 151.542 170.314 151.38 170.335C150.988 170.386 150.621 170.469 150.28 170.584C149.944 170.695 149.671 170.863 149.462 171.089C149.257 171.311 149.155 171.613 149.155 171.997C149.155 172.521 149.349 172.917 149.737 173.186C150.129 173.45 150.625 173.582 151.226 173.582ZM165.564 167.088L164.209 167.471C164.124 167.245 163.998 167.026 163.832 166.813C163.67 166.596 163.448 166.417 163.167 166.276C162.886 166.135 162.526 166.065 162.087 166.065C161.486 166.065 160.985 166.203 160.585 166.48C160.188 166.753 159.99 167.1 159.99 167.522C159.99 167.897 160.126 168.194 160.399 168.411C160.672 168.628 161.098 168.809 161.678 168.954L163.135 169.312C164.013 169.525 164.667 169.851 165.097 170.29C165.528 170.725 165.743 171.285 165.743 171.971C165.743 172.534 165.581 173.037 165.257 173.48C164.938 173.923 164.49 174.272 163.915 174.528C163.34 174.784 162.671 174.912 161.908 174.912C160.906 174.912 160.077 174.694 159.421 174.26C158.765 173.825 158.349 173.19 158.175 172.355L159.607 171.997C159.743 172.525 160.001 172.922 160.38 173.186C160.764 173.45 161.264 173.582 161.882 173.582C162.585 173.582 163.144 173.433 163.557 173.135C163.974 172.832 164.183 172.47 164.183 172.048C164.183 171.707 164.064 171.422 163.825 171.191C163.587 170.957 163.22 170.782 162.726 170.667L161.09 170.284C160.19 170.071 159.53 169.74 159.108 169.293C158.69 168.841 158.482 168.277 158.482 167.599C158.482 167.045 158.637 166.555 158.948 166.129C159.264 165.703 159.692 165.368 160.233 165.125C160.778 164.882 161.396 164.761 162.087 164.761C163.058 164.761 163.821 164.974 164.375 165.4C164.933 165.826 165.33 166.389 165.564 167.088ZM172.49 174.912C171.544 174.912 170.728 174.703 170.042 174.285C169.36 173.863 168.834 173.275 168.463 172.521C168.097 171.762 167.914 170.88 167.914 169.875C167.914 168.869 168.097 167.983 168.463 167.216C168.834 166.444 169.35 165.843 170.01 165.413C170.675 164.978 171.45 164.761 172.337 164.761C172.848 164.761 173.353 164.846 173.852 165.017C174.35 165.187 174.804 165.464 175.213 165.848C175.622 166.227 175.948 166.73 176.191 167.356C176.434 167.983 176.556 168.754 176.556 169.67V170.309H168.987V169.005H175.021C175.021 168.451 174.911 167.957 174.689 167.522C174.472 167.088 174.161 166.745 173.756 166.493C173.355 166.242 172.882 166.116 172.337 166.116C171.736 166.116 171.216 166.265 170.777 166.564C170.342 166.858 170.008 167.241 169.774 167.714C169.539 168.187 169.422 168.694 169.422 169.235V170.105C169.422 170.846 169.55 171.475 169.806 171.99C170.065 172.502 170.426 172.892 170.886 173.16C171.346 173.424 171.881 173.556 172.49 173.556C172.887 173.556 173.244 173.501 173.564 173.39C173.888 173.275 174.167 173.105 174.401 172.879C174.636 172.649 174.817 172.363 174.945 172.022L176.402 172.431C176.249 172.926 175.991 173.36 175.629 173.735C175.266 174.106 174.819 174.396 174.286 174.605C173.754 174.809 173.155 174.912 172.49 174.912ZM188.621 174.912C187.735 174.912 186.957 174.701 186.288 174.279C185.624 173.857 185.104 173.267 184.729 172.508C184.358 171.75 184.173 170.863 184.173 169.849C184.173 168.826 184.358 167.934 184.729 167.171C185.104 166.408 185.624 165.816 186.288 165.394C186.957 164.972 187.735 164.761 188.621 164.761C189.508 164.761 190.283 164.972 190.948 165.394C191.617 165.816 192.137 166.408 192.508 167.171C192.883 167.934 193.07 168.826 193.07 169.849C193.07 170.863 192.883 171.75 192.508 172.508C192.137 173.267 191.617 173.857 190.948 174.279C190.283 174.701 189.508 174.912 188.621 174.912ZM188.621 173.556C189.295 173.556 189.849 173.384 190.283 173.039C190.718 172.694 191.04 172.24 191.249 171.677C191.457 171.115 191.562 170.505 191.562 169.849C191.562 169.193 191.457 168.581 191.249 168.015C191.04 167.448 190.718 166.99 190.283 166.64C189.849 166.291 189.295 166.116 188.621 166.116C187.948 166.116 187.394 166.291 186.959 166.64C186.525 166.99 186.203 167.448 185.994 168.015C185.785 168.581 185.681 169.193 185.681 169.849C185.681 170.505 185.785 171.115 185.994 171.677C186.203 172.24 186.525 172.694 186.959 173.039C187.394 173.384 187.948 173.556 188.621 173.556ZM200.105 164.889V166.167H194.813V164.889H200.105ZM196.398 174.707V163.534C196.398 162.971 196.53 162.502 196.794 162.127C197.058 161.752 197.401 161.471 197.823 161.284C198.245 161.096 198.69 161.002 199.159 161.002C199.53 161.002 199.832 161.032 200.067 161.092C200.301 161.152 200.476 161.207 200.591 161.258L200.156 162.562C200.08 162.537 199.973 162.505 199.837 162.466C199.705 162.428 199.53 162.409 199.313 162.409C198.814 162.409 198.454 162.534 198.232 162.786C198.015 163.037 197.906 163.406 197.906 163.892V174.707H196.398ZM252.767 164.889V166.167H247.475V164.889H252.767ZM249.06 174.707V163.534C249.06 162.971 249.192 162.502 249.456 162.127C249.72 161.752 250.063 161.471 250.485 161.284C250.907 161.096 251.352 161.002 251.821 161.002C252.192 161.002 252.494 161.032 252.729 161.092C252.963 161.152 253.138 161.207 253.253 161.258L252.818 162.562C252.742 162.537 252.635 162.505 252.499 162.466C252.367 162.428 252.192 162.409 251.975 162.409C251.476 162.409 251.116 162.534 250.894 162.786C250.677 163.037 250.568 163.406 250.568 163.892V174.707H249.06ZM255.241 174.707V164.889H256.699V166.372H256.801C256.98 165.886 257.304 165.492 257.773 165.189C258.241 164.887 258.77 164.735 259.358 164.735C259.469 164.735 259.607 164.738 259.773 164.742C259.939 164.746 260.065 164.752 260.15 164.761V166.295C260.099 166.282 259.982 166.263 259.799 166.238C259.62 166.208 259.43 166.193 259.23 166.193C258.753 166.193 258.327 166.293 257.952 166.493C257.581 166.689 257.287 166.962 257.069 167.311C256.856 167.657 256.75 168.051 256.75 168.494V174.707H255.241ZM265.988 174.912C265.102 174.912 264.324 174.701 263.655 174.279C262.991 173.857 262.471 173.267 262.096 172.508C261.725 171.75 261.54 170.863 261.54 169.849C261.54 168.826 261.725 167.934 262.096 167.171C262.471 166.408 262.991 165.816 263.655 165.394C264.324 164.972 265.102 164.761 265.988 164.761C266.875 164.761 267.65 164.972 268.315 165.394C268.984 165.816 269.504 166.408 269.875 167.171C270.25 167.934 270.437 168.826 270.437 169.849C270.437 170.863 270.25 171.75 269.875 172.508C269.504 173.267 268.984 173.857 268.315 174.279C267.65 174.701 266.875 174.912 265.988 174.912ZM265.988 173.556C266.662 173.556 267.216 173.384 267.65 173.039C268.085 172.694 268.407 172.24 268.616 171.677C268.824 171.115 268.929 170.505 268.929 169.849C268.929 169.193 268.824 168.581 268.616 168.015C268.407 167.448 268.085 166.99 267.65 166.64C267.216 166.291 266.662 166.116 265.988 166.116C265.315 166.116 264.761 166.291 264.326 166.64C263.892 166.99 263.57 167.448 263.361 168.015C263.152 168.581 263.048 169.193 263.048 169.849C263.048 170.505 263.152 171.115 263.361 171.677C263.57 172.24 263.892 172.694 264.326 173.039C264.761 173.384 265.315 173.556 265.988 173.556ZM273.1 174.707V164.889H274.557V166.423H274.685C274.89 165.899 275.22 165.492 275.676 165.202C276.132 164.908 276.68 164.761 277.319 164.761C277.966 164.761 278.506 164.908 278.936 165.202C279.371 165.492 279.709 165.899 279.952 166.423H280.055C280.306 165.916 280.683 165.513 281.186 165.215C281.689 164.912 282.292 164.761 282.995 164.761C283.873 164.761 284.591 165.036 285.149 165.586C285.707 166.131 285.986 166.981 285.986 168.136V174.707H284.478V168.136C284.478 167.412 284.28 166.894 283.883 166.583C283.487 166.272 283.02 166.116 282.484 166.116C281.793 166.116 281.258 166.325 280.879 166.743C280.5 167.156 280.31 167.68 280.31 168.315V174.707H278.776V167.983C278.776 167.424 278.595 166.975 278.233 166.634C277.871 166.289 277.404 166.116 276.833 166.116C276.441 166.116 276.074 166.221 275.734 166.429C275.397 166.638 275.124 166.928 274.915 167.299C274.711 167.665 274.609 168.089 274.609 168.571V174.707H273.1ZM296.036 161.616V174.707H294.527V161.616H296.036ZM302.048 174.937C301.426 174.937 300.861 174.82 300.354 174.586C299.847 174.347 299.444 174.004 299.146 173.556C298.847 173.105 298.698 172.559 298.698 171.92C298.698 171.358 298.809 170.902 299.031 170.552C299.252 170.199 299.548 169.922 299.919 169.721C300.29 169.521 300.699 169.372 301.146 169.274C301.598 169.172 302.052 169.091 302.508 169.031C303.105 168.954 303.588 168.897 303.959 168.858C304.334 168.816 304.607 168.745 304.777 168.647C304.952 168.549 305.039 168.379 305.039 168.136V168.085C305.039 167.454 304.867 166.964 304.521 166.615C304.181 166.265 303.663 166.091 302.968 166.091C302.248 166.091 301.683 166.248 301.274 166.564C300.865 166.879 300.578 167.216 300.411 167.574L298.98 167.062C299.235 166.466 299.576 166.001 300.002 165.669C300.433 165.332 300.901 165.098 301.408 164.966C301.92 164.829 302.423 164.761 302.917 164.761C303.232 164.761 303.595 164.799 304.004 164.876C304.417 164.949 304.815 165.1 305.199 165.33C305.587 165.56 305.908 165.907 306.164 166.372C306.42 166.836 306.548 167.458 306.548 168.238V174.707H305.039V173.377H304.962C304.86 173.591 304.69 173.819 304.451 174.061C304.212 174.304 303.895 174.511 303.499 174.681C303.102 174.852 302.619 174.937 302.048 174.937ZM302.278 173.582C302.874 173.582 303.377 173.465 303.786 173.23C304.2 172.996 304.511 172.694 304.72 172.323C304.933 171.952 305.039 171.562 305.039 171.153V169.772C304.975 169.849 304.835 169.919 304.617 169.983C304.404 170.043 304.157 170.096 303.876 170.143C303.599 170.186 303.328 170.224 303.064 170.258C302.804 170.288 302.593 170.314 302.431 170.335C302.039 170.386 301.673 170.469 301.332 170.584C300.995 170.695 300.722 170.863 300.514 171.089C300.309 171.311 300.207 171.613 300.207 171.997C300.207 172.521 300.401 172.917 300.788 173.186C301.181 173.45 301.677 173.582 302.278 173.582ZM316.616 167.088L315.261 167.471C315.175 167.245 315.05 167.026 314.883 166.813C314.721 166.596 314.5 166.417 314.219 166.276C313.937 166.135 313.577 166.065 313.138 166.065C312.537 166.065 312.037 166.203 311.636 166.48C311.24 166.753 311.042 167.1 311.042 167.522C311.042 167.897 311.178 168.194 311.451 168.411C311.724 168.628 312.15 168.809 312.729 168.954L314.187 169.312C315.064 169.525 315.719 169.851 316.149 170.29C316.579 170.725 316.795 171.285 316.795 171.971C316.795 172.534 316.633 173.037 316.309 173.48C315.989 173.923 315.542 174.272 314.966 174.528C314.391 174.784 313.722 174.912 312.959 174.912C311.958 174.912 311.129 174.694 310.473 174.26C309.817 173.825 309.401 173.19 309.226 172.355L310.658 171.997C310.795 172.525 311.052 172.922 311.432 173.186C311.815 173.45 312.316 173.582 312.934 173.582C313.637 173.582 314.195 173.433 314.609 173.135C315.026 172.832 315.235 172.47 315.235 172.048C315.235 171.707 315.116 171.422 314.877 171.191C314.638 170.957 314.272 170.782 313.778 170.667L312.141 170.284C311.242 170.071 310.582 169.74 310.16 169.293C309.742 168.841 309.533 168.277 309.533 167.599C309.533 167.045 309.689 166.555 310 166.129C310.315 165.703 310.743 165.368 311.285 165.125C311.83 164.882 312.448 164.761 313.138 164.761C314.11 164.761 314.873 164.974 315.427 165.4C315.985 165.826 316.381 166.389 316.616 167.088ZM323.695 164.889V166.167H318.607V164.889H323.695ZM320.09 162.537H321.599V171.895C321.599 172.321 321.66 172.64 321.784 172.853C321.912 173.062 322.074 173.203 322.27 173.275C322.47 173.343 322.681 173.377 322.903 173.377C323.069 173.377 323.205 173.369 323.312 173.352C323.418 173.331 323.504 173.314 323.567 173.301L323.874 174.656C323.772 174.694 323.629 174.733 323.446 174.771C323.263 174.814 323.03 174.835 322.749 174.835C322.323 174.835 321.905 174.743 321.496 174.56C321.092 174.377 320.755 174.098 320.486 173.723C320.222 173.348 320.09 172.875 320.09 172.304V162.537ZM331.747 174.707V164.889H333.204V166.423H333.332C333.537 165.899 333.867 165.492 334.323 165.202C334.779 164.908 335.326 164.761 335.966 164.761C336.613 164.761 337.152 164.908 337.583 165.202C338.018 165.492 338.356 165.899 338.599 166.423H338.701C338.953 165.916 339.33 165.513 339.833 165.215C340.336 164.912 340.939 164.761 341.642 164.761C342.52 164.761 343.238 165.036 343.796 165.586C344.354 166.131 344.633 166.981 344.633 168.136V174.707H343.125V168.136C343.125 167.412 342.927 166.894 342.53 166.583C342.134 166.272 341.667 166.116 341.13 166.116C340.44 166.116 339.905 166.325 339.526 166.743C339.147 167.156 338.957 167.68 338.957 168.315V174.707H337.423V167.983C337.423 167.424 337.242 166.975 336.88 166.634C336.518 166.289 336.051 166.116 335.48 166.116C335.088 166.116 334.721 166.221 334.38 166.429C334.044 166.638 333.771 166.928 333.562 167.299C333.358 167.665 333.255 168.089 333.255 168.571V174.707H331.747ZM351.74 174.912C350.854 174.912 350.076 174.701 349.407 174.279C348.742 173.857 348.222 173.267 347.847 172.508C347.477 171.75 347.291 170.863 347.291 169.849C347.291 168.826 347.477 167.934 347.847 167.171C348.222 166.408 348.742 165.816 349.407 165.394C350.076 164.972 350.854 164.761 351.74 164.761C352.626 164.761 353.402 164.972 354.067 165.394C354.736 165.816 355.256 166.408 355.626 167.171C356.001 167.934 356.189 168.826 356.189 169.849C356.189 170.863 356.001 171.75 355.626 172.508C355.256 173.267 354.736 173.857 354.067 174.279C353.402 174.701 352.626 174.912 351.74 174.912ZM351.74 173.556C352.413 173.556 352.967 173.384 353.402 173.039C353.837 172.694 354.158 172.24 354.367 171.677C354.576 171.115 354.68 170.505 354.68 169.849C354.68 169.193 354.576 168.581 354.367 168.015C354.158 167.448 353.837 166.99 353.402 166.64C352.967 166.291 352.413 166.116 351.74 166.116C351.067 166.116 350.513 166.291 350.078 166.64C349.644 166.99 349.322 167.448 349.113 168.015C348.904 168.581 348.8 169.193 348.8 169.849C348.8 170.505 348.904 171.115 349.113 171.677C349.322 172.24 349.644 172.694 350.078 173.039C350.513 173.384 351.067 173.556 351.74 173.556ZM360.36 168.801V174.707H358.852V164.889H360.309V166.423H360.437C360.667 165.924 361.016 165.524 361.485 165.221C361.954 164.914 362.559 164.761 363.301 164.761C363.965 164.761 364.547 164.897 365.046 165.17C365.544 165.439 365.932 165.848 366.209 166.397C366.486 166.943 366.624 167.633 366.624 168.468V174.707H365.116V168.571C365.116 167.799 364.916 167.199 364.515 166.768C364.114 166.333 363.565 166.116 362.866 166.116C362.384 166.116 361.954 166.221 361.575 166.429C361.2 166.638 360.904 166.943 360.686 167.343C360.469 167.744 360.36 168.23 360.36 168.801ZM374.011 164.889V166.167H368.923V164.889H374.011ZM370.406 162.537H371.914V171.895C371.914 172.321 371.976 172.64 372.1 172.853C372.228 173.062 372.389 173.203 372.585 173.275C372.786 173.343 372.997 173.377 373.218 173.377C373.384 173.377 373.521 173.369 373.627 173.352C373.734 173.331 373.819 173.314 373.883 173.301L374.19 174.656C374.088 174.694 373.945 174.733 373.762 174.771C373.578 174.814 373.346 174.835 373.065 174.835C372.639 174.835 372.221 174.743 371.812 174.56C371.407 174.377 371.071 174.098 370.802 173.723C370.538 173.348 370.406 172.875 370.406 172.304V162.537ZM378.36 168.801V174.707H376.851V161.616H378.36V166.423H378.487C378.717 165.916 379.063 165.513 379.523 165.215C379.987 164.912 380.605 164.761 381.377 164.761C382.046 164.761 382.632 164.895 383.134 165.164C383.637 165.428 384.027 165.835 384.304 166.385C384.585 166.93 384.726 167.625 384.726 168.468V174.707H383.217V168.571C383.217 167.791 383.015 167.188 382.61 166.762C382.21 166.331 381.654 166.116 380.942 166.116C380.448 166.116 380.004 166.221 379.612 166.429C379.225 166.638 378.918 166.943 378.692 167.343C378.47 167.744 378.36 168.23 378.36 168.801Z" fill="#F0F0F0"/>
<path d="M212.579 161.616V174.707H210.993V163.278H210.917L207.721 165.4V163.789L210.993 161.616H212.579ZM216.703 174.707V173.556L221.025 168.826C221.532 168.272 221.949 167.791 222.277 167.382C222.605 166.968 222.848 166.581 223.006 166.218C223.168 165.852 223.249 165.468 223.249 165.068C223.249 164.608 223.138 164.209 222.917 163.873C222.699 163.536 222.401 163.276 222.022 163.093C221.642 162.909 221.216 162.818 220.743 162.818C220.24 162.818 219.801 162.922 219.426 163.131C219.056 163.336 218.768 163.623 218.564 163.994C218.363 164.365 218.263 164.799 218.263 165.298H216.755C216.755 164.531 216.931 163.858 217.285 163.278C217.639 162.699 218.12 162.247 218.73 161.923C219.343 161.599 220.032 161.437 220.794 161.437C221.561 161.437 222.241 161.599 222.833 161.923C223.426 162.247 223.89 162.684 224.227 163.233C224.564 163.783 224.732 164.395 224.732 165.068C224.732 165.549 224.645 166.02 224.47 166.48C224.299 166.936 224.001 167.446 223.575 168.008C223.153 168.566 222.567 169.248 221.817 170.054L218.877 173.199V173.301H224.962V174.707H216.703ZM234.635 172.252V171.562C234.635 171.085 234.733 170.648 234.929 170.252C235.13 169.851 235.419 169.532 235.799 169.293C236.182 169.05 236.647 168.929 237.192 168.929C237.746 168.929 238.21 169.05 238.585 169.293C238.96 169.532 239.244 169.851 239.436 170.252C239.627 170.648 239.723 171.085 239.723 171.562V172.252C239.723 172.73 239.625 173.169 239.429 173.569C239.237 173.966 238.952 174.285 238.573 174.528C238.198 174.767 237.737 174.886 237.192 174.886C236.638 174.886 236.171 174.767 235.792 174.528C235.413 174.285 235.125 173.966 234.929 173.569C234.733 173.169 234.635 172.73 234.635 172.252ZM235.939 171.562V172.252C235.939 172.649 236.033 173.005 236.22 173.32C236.408 173.631 236.732 173.787 237.192 173.787C237.639 173.787 237.955 173.631 238.138 173.32C238.326 173.005 238.419 172.649 238.419 172.252V171.562C238.419 171.166 238.33 170.812 238.151 170.501C237.972 170.186 237.652 170.028 237.192 170.028C236.745 170.028 236.423 170.186 236.227 170.501C236.035 170.812 235.939 171.166 235.939 171.562ZM228.115 164.761V164.071C228.115 163.593 228.213 163.157 228.409 162.76C228.61 162.36 228.899 162.04 229.279 161.801C229.662 161.559 230.127 161.437 230.672 161.437C231.226 161.437 231.691 161.559 232.066 161.801C232.441 162.04 232.724 162.36 232.916 162.76C233.108 163.157 233.203 163.593 233.203 164.071V164.761C233.203 165.238 233.105 165.677 232.909 166.078C232.718 166.474 232.432 166.794 232.053 167.037C231.678 167.275 231.218 167.395 230.672 167.395C230.118 167.395 229.652 167.275 229.272 167.037C228.893 166.794 228.605 166.474 228.409 166.078C228.213 165.677 228.115 165.238 228.115 164.761ZM229.419 164.071V164.761C229.419 165.157 229.513 165.513 229.701 165.828C229.888 166.14 230.212 166.295 230.672 166.295C231.12 166.295 231.435 166.14 231.618 165.828C231.806 165.513 231.899 165.157 231.899 164.761V164.071C231.899 163.674 231.81 163.321 231.631 163.01C231.452 162.694 231.132 162.537 230.672 162.537C230.225 162.537 229.903 162.694 229.707 163.01C229.515 163.321 229.419 163.674 229.419 164.071ZM228.601 174.707L237.601 161.616H239.059L230.059 174.707H228.601Z" fill="white"/>
<path d="M137.33 433.581C136.473 433.581 135.744 433.348 135.142 432.882C134.54 432.412 134.08 431.732 133.761 430.842C133.443 429.948 133.284 428.869 133.284 427.604C133.284 426.346 133.443 425.272 133.761 424.382C134.083 423.488 134.545 422.806 135.148 422.337C135.754 421.863 136.481 421.626 137.33 421.626C138.178 421.626 138.903 421.863 139.506 422.337C140.112 422.806 140.574 423.488 140.892 424.382C141.214 425.272 141.375 426.346 141.375 427.604C141.375 428.869 141.216 429.948 140.898 430.842C140.58 431.732 140.119 432.412 139.517 432.882C138.915 433.348 138.186 433.581 137.33 433.581ZM137.33 432.331C138.178 432.331 138.837 431.922 139.307 431.104C139.776 430.286 140.011 429.119 140.011 427.604C140.011 426.596 139.903 425.738 139.687 425.03C139.475 424.321 139.169 423.782 138.767 423.411C138.369 423.039 137.89 422.854 137.33 422.854C136.489 422.854 135.831 423.268 135.358 424.098C134.884 424.924 134.648 426.092 134.648 427.604C134.648 428.611 134.754 429.467 134.966 430.172C135.178 430.876 135.483 431.412 135.881 431.78C136.282 432.147 136.765 432.331 137.33 432.331Z" fill="#C1C1C1"/>
<line x1="151.72" y1="426.229" x2="486.413" y2="423.594" stroke="#CACACA" stroke-width="1.17436"/>
<path d="M157.59 445.207H158.999V453.526C158.999 454.268 158.863 454.899 158.59 455.418C158.317 455.937 157.933 456.33 157.437 456.599C156.941 456.868 156.355 457.003 155.681 457.003C155.045 457.003 154.478 456.887 153.982 456.656C153.486 456.421 153.096 456.088 152.812 455.656C152.528 455.224 152.386 454.711 152.386 454.116H153.772C153.772 454.446 153.853 454.734 154.016 454.98C154.183 455.223 154.41 455.412 154.698 455.548C154.986 455.685 155.314 455.753 155.681 455.753C156.086 455.753 156.431 455.668 156.715 455.497C156.999 455.327 157.215 455.077 157.363 454.747C157.514 454.414 157.59 454.007 157.59 453.526V445.207ZM164.53 457.048C163.976 457.048 163.475 456.944 163.024 456.736C162.573 456.524 162.215 456.219 161.95 455.821C161.685 455.42 161.552 454.935 161.552 454.366C161.552 453.866 161.651 453.461 161.848 453.151C162.045 452.836 162.308 452.59 162.637 452.412C162.967 452.234 163.331 452.101 163.728 452.014C164.13 451.923 164.533 451.851 164.939 451.798C165.469 451.73 165.899 451.679 166.228 451.645C166.562 451.607 166.804 451.545 166.956 451.457C167.111 451.37 167.189 451.219 167.189 451.003V450.957C167.189 450.397 167.035 449.961 166.728 449.651C166.425 449.34 165.965 449.185 165.348 449.185C164.708 449.185 164.206 449.325 163.842 449.605C163.478 449.885 163.223 450.185 163.075 450.503L161.802 450.048C162.03 449.518 162.333 449.105 162.711 448.81C163.094 448.51 163.511 448.302 163.961 448.185C164.416 448.063 164.863 448.003 165.302 448.003C165.583 448.003 165.905 448.037 166.268 448.105C166.636 448.17 166.99 448.304 167.331 448.509C167.675 448.713 167.961 449.022 168.189 449.435C168.416 449.848 168.53 450.401 168.53 451.094V456.844H167.189V455.662H167.12C167.03 455.851 166.878 456.054 166.666 456.27C166.454 456.486 166.172 456.67 165.819 456.821C165.467 456.973 165.037 457.048 164.53 457.048ZM164.734 455.844C165.264 455.844 165.711 455.74 166.075 455.531C166.442 455.323 166.719 455.054 166.905 454.724C167.094 454.395 167.189 454.048 167.189 453.685V452.457C167.132 452.526 167.007 452.588 166.814 452.645C166.624 452.698 166.405 452.745 166.155 452.787C165.908 452.825 165.668 452.859 165.433 452.889C165.202 452.916 165.014 452.938 164.87 452.957C164.522 453.003 164.196 453.077 163.893 453.179C163.594 453.277 163.351 453.427 163.166 453.628C162.984 453.825 162.893 454.094 162.893 454.435C162.893 454.901 163.066 455.253 163.41 455.491C163.759 455.726 164.2 455.844 164.734 455.844ZM172.638 451.594V456.844H171.297V448.116H172.592V449.48H172.706C172.911 449.037 173.221 448.681 173.638 448.412C174.055 448.139 174.592 448.003 175.252 448.003C175.842 448.003 176.359 448.124 176.803 448.366C177.246 448.605 177.591 448.969 177.837 449.457C178.083 449.942 178.206 450.556 178.206 451.298V456.844H176.865V451.389C176.865 450.704 176.687 450.17 176.331 449.787C175.975 449.401 175.486 449.207 174.865 449.207C174.437 449.207 174.055 449.3 173.717 449.486C173.384 449.671 173.121 449.942 172.928 450.298C172.734 450.654 172.638 451.086 172.638 451.594Z" fill="#B6B6B6"/>
<path d="M253.409 456.844V445.207H260.386V446.457H254.818V450.389H259.864V451.639H254.818V456.844H253.409ZM265.956 457.026C265.115 457.026 264.39 456.84 263.78 456.469C263.174 456.094 262.706 455.571 262.377 454.901C262.051 454.226 261.888 453.442 261.888 452.548C261.888 451.654 262.051 450.866 262.377 450.185C262.706 449.499 263.165 448.965 263.752 448.582C264.343 448.196 265.032 448.003 265.82 448.003C266.275 448.003 266.723 448.079 267.167 448.23C267.61 448.382 268.013 448.628 268.377 448.969C268.74 449.306 269.03 449.753 269.246 450.31C269.462 450.866 269.57 451.552 269.57 452.366V452.935H262.843V451.776H268.206C268.206 451.283 268.108 450.844 267.911 450.457C267.718 450.071 267.441 449.766 267.081 449.543C266.725 449.319 266.305 449.207 265.82 449.207C265.286 449.207 264.824 449.34 264.434 449.605C264.047 449.866 263.75 450.207 263.542 450.628C263.333 451.048 263.229 451.499 263.229 451.98V452.753C263.229 453.412 263.343 453.971 263.57 454.429C263.801 454.884 264.121 455.23 264.53 455.469C264.939 455.704 265.415 455.821 265.956 455.821C266.309 455.821 266.627 455.772 266.911 455.673C267.199 455.571 267.447 455.42 267.655 455.219C267.864 455.014 268.025 454.76 268.138 454.457L269.434 454.821C269.297 455.26 269.068 455.647 268.746 455.98C268.424 456.31 268.026 456.567 267.553 456.753C267.079 456.935 266.547 457.026 265.956 457.026ZM272.112 456.844V445.207H273.452V449.503H273.566C273.665 449.351 273.801 449.158 273.975 448.923C274.153 448.685 274.407 448.473 274.737 448.287C275.07 448.098 275.521 448.003 276.089 448.003C276.824 448.003 277.471 448.187 278.032 448.554C278.593 448.921 279.03 449.442 279.345 450.116C279.659 450.791 279.816 451.586 279.816 452.503C279.816 453.427 279.659 454.228 279.345 454.906C279.03 455.58 278.595 456.103 278.038 456.474C277.481 456.842 276.839 457.026 276.112 457.026C275.551 457.026 275.102 456.933 274.765 456.747C274.428 456.558 274.168 456.344 273.987 456.105C273.805 455.863 273.665 455.662 273.566 455.503H273.407V456.844H272.112ZM273.43 452.48C273.43 453.139 273.526 453.721 273.72 454.224C273.913 454.724 274.195 455.116 274.566 455.401C274.937 455.681 275.392 455.821 275.93 455.821C276.49 455.821 276.958 455.673 277.333 455.378C277.712 455.079 277.996 454.677 278.185 454.173C278.379 453.666 278.475 453.101 278.475 452.48C278.475 451.866 278.381 451.313 278.191 450.821C278.006 450.325 277.723 449.933 277.345 449.645C276.97 449.353 276.498 449.207 275.93 449.207C275.384 449.207 274.926 449.346 274.555 449.622C274.184 449.895 273.903 450.277 273.714 450.77C273.524 451.259 273.43 451.829 273.43 452.48Z" fill="#B6B6B6"/>
<path d="M352.776 445.207H354.458L358.413 454.866H358.549L362.504 445.207H364.185V456.844H362.867V448.003H362.754L359.117 456.844H357.844L354.208 448.003H354.094V456.844H352.776V445.207ZM369.717 457.048C369.164 457.048 368.662 456.944 368.211 456.736C367.761 456.524 367.403 456.219 367.137 455.821C366.872 455.42 366.74 454.935 366.74 454.366C366.74 453.866 366.838 453.461 367.035 453.151C367.232 452.836 367.495 452.59 367.825 452.412C368.155 452.234 368.518 452.101 368.916 452.014C369.317 451.923 369.721 451.851 370.126 451.798C370.656 451.73 371.086 451.679 371.416 451.645C371.749 451.607 371.992 451.545 372.143 451.457C372.298 451.37 372.376 451.219 372.376 451.003V450.957C372.376 450.397 372.223 449.961 371.916 449.651C371.613 449.34 371.153 449.185 370.535 449.185C369.895 449.185 369.393 449.325 369.03 449.605C368.666 449.885 368.41 450.185 368.262 450.503L366.99 450.048C367.217 449.518 367.52 449.105 367.899 448.81C368.281 448.51 368.698 448.302 369.149 448.185C369.603 448.063 370.05 448.003 370.49 448.003C370.77 448.003 371.092 448.037 371.456 448.105C371.823 448.17 372.177 448.304 372.518 448.509C372.863 448.713 373.149 449.022 373.376 449.435C373.603 449.848 373.717 450.401 373.717 451.094V456.844H372.376V455.662H372.308C372.217 455.851 372.066 456.054 371.853 456.27C371.641 456.486 371.359 456.67 371.007 456.821C370.655 456.973 370.225 457.048 369.717 457.048ZM369.922 455.844C370.452 455.844 370.899 455.74 371.262 455.531C371.63 455.323 371.906 455.054 372.092 454.724C372.281 454.395 372.376 454.048 372.376 453.685V452.457C372.319 452.526 372.194 452.588 372.001 452.645C371.812 452.698 371.592 452.745 371.342 452.787C371.096 452.825 370.855 452.859 370.62 452.889C370.389 452.916 370.202 452.938 370.058 452.957C369.709 453.003 369.384 453.077 369.081 453.179C368.781 453.277 368.539 453.427 368.353 453.628C368.172 453.825 368.081 454.094 368.081 454.435C368.081 454.901 368.253 455.253 368.598 455.491C368.946 455.726 369.387 455.844 369.922 455.844ZM376.484 456.844V448.116H377.78V449.435H377.871C378.03 449.003 378.318 448.652 378.734 448.384C379.151 448.115 379.621 447.98 380.144 447.98C380.242 447.98 380.365 447.982 380.513 447.986C380.661 447.99 380.772 447.995 380.848 448.003V449.366C380.803 449.355 380.698 449.338 380.536 449.315C380.377 449.289 380.208 449.276 380.03 449.276C379.606 449.276 379.227 449.365 378.894 449.543C378.564 449.717 378.303 449.959 378.109 450.27C377.92 450.577 377.825 450.927 377.825 451.321V456.844H376.484Z" fill="#FFFAFA"/>
<path d="M448.379 456.844H446.901L451.174 445.207H452.629L456.901 456.844H455.424L451.947 447.048H451.856L448.379 456.844ZM448.924 452.298H454.879V453.548H448.924V452.298ZM458.852 460.116V448.116H460.147V449.503H460.307C460.405 449.351 460.541 449.158 460.716 448.923C460.894 448.685 461.147 448.473 461.477 448.287C461.81 448.098 462.261 448.003 462.829 448.003C463.564 448.003 464.212 448.187 464.772 448.554C465.333 448.921 465.771 449.442 466.085 450.116C466.399 450.791 466.557 451.586 466.557 452.503C466.557 453.427 466.399 454.228 466.085 454.906C465.771 455.58 465.335 456.103 464.778 456.474C464.221 456.842 463.579 457.026 462.852 457.026C462.291 457.026 461.842 456.933 461.505 456.747C461.168 456.558 460.909 456.344 460.727 456.105C460.545 455.863 460.405 455.662 460.307 455.503H460.193V460.116H458.852ZM460.17 452.48C460.17 453.139 460.267 453.721 460.46 454.224C460.653 454.724 460.935 455.116 461.307 455.401C461.678 455.681 462.132 455.821 462.67 455.821C463.231 455.821 463.699 455.673 464.074 455.378C464.452 455.079 464.736 454.677 464.926 454.173C465.119 453.666 465.216 453.101 465.216 452.48C465.216 451.866 465.121 451.313 464.932 450.821C464.746 450.325 464.464 449.933 464.085 449.645C463.71 449.353 463.238 449.207 462.67 449.207C462.125 449.207 461.666 449.346 461.295 449.622C460.924 449.895 460.644 450.277 460.454 450.77C460.265 451.259 460.17 451.829 460.17 452.48ZM468.922 456.844V448.116H470.217V449.435H470.308C470.467 449.003 470.755 448.652 471.172 448.384C471.589 448.115 472.058 447.98 472.581 447.98C472.68 447.98 472.803 447.982 472.95 447.986C473.098 447.99 473.21 447.995 473.286 448.003V449.366C473.24 449.355 473.136 449.338 472.973 449.315C472.814 449.289 472.645 449.276 472.467 449.276C472.043 449.276 471.664 449.365 471.331 449.543C471.002 449.717 470.74 449.959 470.547 450.27C470.358 450.577 470.263 450.927 470.263 451.321V456.844H468.922ZM475.195 456.844V448.116H476.536V456.844H475.195ZM475.877 446.662C475.616 446.662 475.39 446.573 475.201 446.395C475.015 446.217 474.922 446.003 474.922 445.753C474.922 445.503 475.015 445.289 475.201 445.111C475.39 444.933 475.616 444.844 475.877 444.844C476.138 444.844 476.362 444.933 476.547 445.111C476.737 445.289 476.831 445.503 476.831 445.753C476.831 446.003 476.737 446.217 476.547 446.395C476.362 446.573 476.138 446.662 475.877 446.662Z" fill="#B6B6B6"/>
<path d="M120.846 352.274V363.91H119.437V353.751H119.369L116.528 355.637V354.206L119.437 352.274H120.846ZM128.308 364.069C127.452 364.069 126.723 363.836 126.12 363.37C125.518 362.901 125.058 362.221 124.74 361.331C124.422 360.437 124.263 359.357 124.263 358.092C124.263 356.834 124.422 355.761 124.74 354.87C125.062 353.976 125.524 353.295 126.126 352.825C126.732 352.351 127.459 352.115 128.308 352.115C129.156 352.115 129.882 352.351 130.484 352.825C131.09 353.295 131.552 353.976 131.87 354.87C132.192 355.761 132.353 356.834 132.353 358.092C132.353 359.357 132.194 360.437 131.876 361.331C131.558 362.221 131.098 362.901 130.495 363.37C129.893 363.836 129.164 364.069 128.308 364.069ZM128.308 362.819C129.156 362.819 129.816 362.41 130.285 361.592C130.755 360.774 130.99 359.607 130.99 358.092C130.99 357.084 130.882 356.226 130.666 355.518C130.454 354.81 130.147 354.27 129.745 353.899C129.348 353.528 128.869 353.342 128.308 353.342C127.467 353.342 126.81 353.757 126.336 354.586C125.863 355.412 125.626 356.581 125.626 358.092C125.626 359.1 125.732 359.956 125.944 360.66C126.156 361.365 126.461 361.901 126.859 362.268C127.261 362.636 127.744 362.819 128.308 362.819ZM136.105 360.728L136.083 359.069H136.355L140.173 355.183H141.833L137.764 359.297H137.651L136.105 360.728ZM134.855 363.91V352.274H136.196V363.91H134.855ZM140.401 363.91L136.992 359.592L137.946 358.66L142.105 363.91H140.401Z" fill="#C1C1C1"/>
<line x1="151.725" y1="356.616" x2="486.417" y2="356.616" stroke="#AAAAAA" stroke-width="1.17436" stroke-dasharray="3.52 3.52"/>
<path d="M114.506 294.398V293.376L118.347 289.171C118.798 288.679 119.169 288.251 119.461 287.887C119.752 287.52 119.968 287.175 120.108 286.853C120.252 286.527 120.324 286.186 120.324 285.83C120.324 285.421 120.226 285.067 120.029 284.768C119.836 284.469 119.57 284.237 119.233 284.075C118.896 283.912 118.517 283.83 118.097 283.83C117.65 283.83 117.26 283.923 116.927 284.109C116.597 284.29 116.341 284.546 116.159 284.876C115.981 285.205 115.892 285.592 115.892 286.035H114.552C114.552 285.353 114.709 284.754 115.023 284.239C115.338 283.724 115.766 283.323 116.307 283.035C116.853 282.747 117.464 282.603 118.142 282.603C118.824 282.603 119.428 282.747 119.955 283.035C120.481 283.323 120.894 283.711 121.194 284.2C121.493 284.688 121.642 285.232 121.642 285.83C121.642 286.258 121.565 286.677 121.409 287.086C121.258 287.491 120.993 287.944 120.614 288.444C120.239 288.94 119.718 289.546 119.052 290.262L116.438 293.058V293.148H121.847V294.398H114.506ZM128.309 294.558C127.453 294.558 126.724 294.325 126.122 293.859C125.519 293.389 125.059 292.709 124.741 291.819C124.423 290.925 124.264 289.845 124.264 288.58C124.264 287.323 124.423 286.249 124.741 285.359C125.063 284.465 125.525 283.783 126.127 283.313C126.733 282.84 127.461 282.603 128.309 282.603C129.158 282.603 129.883 282.84 130.485 283.313C131.091 283.783 131.553 284.465 131.872 285.359C132.194 286.249 132.354 287.323 132.354 288.58C132.354 289.845 132.195 290.925 131.877 291.819C131.559 292.709 131.099 293.389 130.497 293.859C129.894 294.325 129.165 294.558 128.309 294.558ZM128.309 293.308C129.158 293.308 129.817 292.898 130.286 292.08C130.756 291.262 130.991 290.095 130.991 288.58C130.991 287.573 130.883 286.715 130.667 286.006C130.455 285.298 130.148 284.758 129.747 284.387C129.349 284.016 128.87 283.83 128.309 283.83C127.468 283.83 126.811 284.245 126.337 285.075C125.864 285.9 125.627 287.069 125.627 288.58C125.627 289.588 125.733 290.444 125.945 291.148C126.158 291.853 126.462 292.389 126.86 292.756C127.262 293.124 127.745 293.308 128.309 293.308ZM136.106 291.217L136.084 289.558H136.356L140.174 285.671H141.834L137.765 289.785H137.652L136.106 291.217ZM134.856 294.398V282.762H136.197V294.398H134.856ZM140.402 294.398L136.993 290.08L137.947 289.148L142.106 294.398H140.402Z" fill="white"/>
<line x1="151.727" y1="287.331" x2="486.419" y2="287.331" stroke="#AAAAAA" stroke-width="1.17436" stroke-dasharray="3.52 3.52"/>
<path d="M118.096 225.05C117.429 225.05 116.829 224.917 116.295 224.652C115.761 224.387 115.333 224.023 115.011 223.561C114.689 223.099 114.513 222.572 114.482 221.982H115.846C115.899 222.508 116.138 222.944 116.562 223.288C116.99 223.629 117.501 223.8 118.096 223.8C118.573 223.8 118.997 223.688 119.369 223.464C119.744 223.241 120.037 222.934 120.249 222.544C120.465 222.15 120.573 221.705 120.573 221.209C120.573 220.701 120.461 220.249 120.238 219.851C120.018 219.449 119.715 219.133 119.329 218.902C118.943 218.671 118.501 218.554 118.005 218.55C117.649 218.546 117.283 218.601 116.908 218.714C116.533 218.824 116.225 218.966 115.982 219.141L114.664 218.982L115.369 213.254H121.414V214.504H116.55L116.141 217.936H116.21C116.448 217.747 116.747 217.589 117.107 217.464C117.467 217.339 117.842 217.277 118.232 217.277C118.944 217.277 119.579 217.447 120.136 217.788C120.696 218.125 121.136 218.588 121.454 219.175C121.776 219.762 121.937 220.432 121.937 221.186C121.937 221.929 121.77 222.591 121.437 223.175C121.107 223.754 120.653 224.213 120.073 224.55C119.494 224.883 118.835 225.05 118.096 225.05ZM128.309 225.05C127.453 225.05 126.724 224.817 126.122 224.351C125.52 223.881 125.059 223.201 124.741 222.311C124.423 221.417 124.264 220.338 124.264 219.072C124.264 217.815 124.423 216.741 124.741 215.851C125.063 214.957 125.525 214.275 126.128 213.805C126.734 213.332 127.461 213.095 128.309 213.095C129.158 213.095 129.883 213.332 130.486 213.805C131.092 214.275 131.554 214.957 131.872 215.851C132.194 216.741 132.355 217.815 132.355 219.072C132.355 220.338 132.196 221.417 131.878 222.311C131.559 223.201 131.099 223.881 130.497 224.351C129.895 224.817 129.165 225.05 128.309 225.05ZM128.309 223.8C129.158 223.8 129.817 223.391 130.287 222.572C130.756 221.754 130.991 220.588 130.991 219.072C130.991 218.065 130.883 217.207 130.667 216.499C130.455 215.79 130.148 215.25 129.747 214.879C129.349 214.508 128.87 214.322 128.309 214.322C127.468 214.322 126.811 214.737 126.338 215.567C125.864 216.393 125.628 217.561 125.628 219.072C125.628 220.08 125.734 220.936 125.946 221.641C126.158 222.345 126.463 222.881 126.861 223.249C127.262 223.616 127.745 223.8 128.309 223.8ZM136.107 221.709L136.084 220.05H136.357L140.175 216.163H141.834L137.766 220.277H137.652L136.107 221.709ZM134.857 224.891V213.254H136.198V224.891H134.857ZM140.402 224.891L136.993 220.572L137.948 219.641L142.107 224.891H140.402Z" fill="#C1C1C1"/>
<line x1="151.727" y1="218.046" x2="486.419" y2="218.046" stroke="#AAAAAA" stroke-width="1.17436" stroke-dasharray="3.52 3.52"/>
<path fill-rule="evenodd" clip-rule="evenodd" d="M223.046 243C219.155 243 216 246.155 216 250.046V269C216 272.892 219.155 276.046 223.046 276.046H293.628C297.52 276.046 300.674 272.892 300.674 269V262.462L305.252 258.953L300.674 255.443V250.046C300.674 246.155 297.52 243 293.628 243H223.046Z" fill="white"/>
<path d="M233.744 253.5V265.137H232.38L226.039 256H225.926V265.137H224.517V253.5H225.88L232.244 262.659H232.357V253.5H233.744ZM236.406 262.75V261.591L241.52 253.5H242.361V255.296H241.792L237.929 261.409V261.5H244.815V262.75H236.406ZM241.883 265.137V262.398V261.858V253.5H243.224V265.137H241.883ZM250.901 265.296C250.234 265.296 249.634 265.163 249.1 264.898C248.566 264.633 248.138 264.269 247.816 263.807C247.494 263.345 247.317 262.819 247.287 262.228H248.651C248.704 262.754 248.942 263.19 249.367 263.534C249.795 263.875 250.306 264.046 250.901 264.046C251.378 264.046 251.802 263.934 252.174 263.711C252.549 263.487 252.842 263.18 253.054 262.79C253.27 262.396 253.378 261.951 253.378 261.455C253.378 260.947 253.266 260.495 253.043 260.097C252.823 259.695 252.52 259.379 252.134 259.148C251.747 258.917 251.306 258.8 250.81 258.796C250.454 258.792 250.088 258.847 249.713 258.961C249.338 259.07 249.03 259.212 248.787 259.387L247.469 259.228L248.174 253.5H254.219V254.75H249.355L248.946 258.182H249.014C249.253 257.993 249.552 257.836 249.912 257.711C250.272 257.586 250.647 257.523 251.037 257.523C251.749 257.523 252.384 257.694 252.941 258.034C253.501 258.372 253.941 258.834 254.259 259.421C254.581 260.008 254.742 260.678 254.742 261.432C254.742 262.175 254.575 262.837 254.242 263.421C253.912 264 253.458 264.459 252.878 264.796C252.299 265.129 251.639 265.296 250.901 265.296ZM258.904 263.546L258.813 264.159C258.749 264.591 258.65 265.053 258.518 265.546C258.389 266.038 258.254 266.502 258.114 266.938C257.974 267.373 257.859 267.72 257.768 267.978H256.745C256.794 267.735 256.859 267.415 256.938 267.017C257.018 266.62 257.097 266.175 257.177 265.682C257.26 265.194 257.328 264.694 257.381 264.182L257.45 263.546H258.904ZM265.075 265.296C264.219 265.296 263.49 265.063 262.887 264.597C262.285 264.127 261.825 263.447 261.507 262.557C261.189 261.663 261.029 260.584 261.029 259.319C261.029 258.061 261.189 256.987 261.507 256.097C261.829 255.203 262.291 254.521 262.893 254.051C263.499 253.578 264.226 253.341 265.075 253.341C265.923 253.341 266.649 253.578 267.251 254.051C267.857 254.521 268.319 255.203 268.637 256.097C268.959 256.987 269.12 258.061 269.12 259.319C269.12 260.584 268.961 261.663 268.643 262.557C268.325 263.447 267.865 264.127 267.262 264.597C266.66 265.063 265.931 265.296 265.075 265.296ZM265.075 264.046C265.923 264.046 266.582 263.637 267.052 262.819C267.522 262 267.757 260.834 267.757 259.319C267.757 258.311 267.649 257.453 267.433 256.745C267.221 256.036 266.914 255.497 266.512 255.125C266.115 254.754 265.636 254.569 265.075 254.569C264.234 254.569 263.577 254.983 263.103 255.813C262.63 256.639 262.393 257.807 262.393 259.319C262.393 260.326 262.499 261.182 262.711 261.887C262.923 262.591 263.228 263.127 263.626 263.495C264.028 263.862 264.511 264.046 265.075 264.046ZM275.395 265.296C274.539 265.296 273.81 265.063 273.207 264.597C272.605 264.127 272.145 263.447 271.827 262.557C271.509 261.663 271.349 260.584 271.349 259.319C271.349 258.061 271.509 256.987 271.827 256.097C272.149 255.203 272.611 254.521 273.213 254.051C273.819 253.578 274.546 253.341 275.395 253.341C276.243 253.341 276.969 253.578 277.571 254.051C278.177 254.521 278.639 255.203 278.957 256.097C279.279 256.987 279.44 258.061 279.44 259.319C279.44 260.584 279.281 261.663 278.963 262.557C278.645 263.447 278.185 264.127 277.582 264.597C276.98 265.063 276.251 265.296 275.395 265.296ZM275.395 264.046C276.243 264.046 276.902 263.637 277.372 262.819C277.842 262 278.077 260.834 278.077 259.319C278.077 258.311 277.969 257.453 277.753 256.745C277.541 256.036 277.234 255.497 276.832 255.125C276.435 254.754 275.956 254.569 275.395 254.569C274.554 254.569 273.897 254.983 273.423 255.813C272.95 256.639 272.713 257.807 272.713 259.319C272.713 260.326 272.819 261.182 273.031 261.887C273.243 262.591 273.548 263.127 273.946 263.495C274.348 263.862 274.831 264.046 275.395 264.046ZM285.715 265.296C284.859 265.296 284.13 265.063 283.527 264.597C282.925 264.127 282.465 263.447 282.147 262.557C281.829 261.663 281.669 260.584 281.669 259.319C281.669 258.061 281.829 256.987 282.147 256.097C282.469 255.203 282.931 254.521 283.533 254.051C284.139 253.578 284.866 253.341 285.715 253.341C286.563 253.341 287.289 253.578 287.891 254.051C288.497 254.521 288.959 255.203 289.277 256.097C289.599 256.987 289.76 258.061 289.76 259.319C289.76 260.584 289.601 261.663 289.283 262.557C288.965 263.447 288.505 264.127 287.902 264.597C287.3 265.063 286.571 265.296 285.715 265.296ZM285.715 264.046C286.563 264.046 287.222 263.637 287.692 262.819C288.162 262 288.397 260.834 288.397 259.319C288.397 258.311 288.289 257.453 288.073 256.745C287.861 256.036 287.554 255.497 287.152 255.125C286.755 254.754 286.276 254.569 285.715 254.569C284.874 254.569 284.217 254.983 283.743 255.813C283.27 256.639 283.033 257.807 283.033 259.319C283.033 260.326 283.139 261.182 283.351 261.887C283.563 262.591 283.868 263.127 284.266 263.495C284.668 263.862 285.151 264.046 285.715 264.046Z" fill="#131313"/>
<path d="M202.223 371.303C202.223 363.52 208.532 357.211 216.315 357.211C224.098 357.211 230.407 363.52 230.407 371.303V425.324H202.223V371.303Z" fill="#D9D9D9"/>
<path d="M239.801 334.893C239.801 327.11 246.11 320.801 253.893 320.801C261.676 320.801 267.985 327.11 267.985 334.893V425.319H239.801V334.893Z" fill="#D9D9D9"/>
<path d="M277.383 371.303C277.383 363.52 283.692 357.211 291.475 357.211C299.258 357.211 305.567 363.52 305.567 371.303V425.324H277.383V371.303Z" fill="#D9D9D9"/>
<path d="M315 243C315 235.268 321.268 229 329 229C336.732 229 343 235.268 343 243V425H315V243Z" fill="#32AE4C"/>
<path d="M353 278C353 270.268 359.268 264 367 264C374.732 264 381 270.268 381 278V425H353V278Z" fill="#D9D9D9"/>
<path d="M390.121 352.514C390.121 344.731 396.43 338.422 404.213 338.422C411.996 338.422 418.306 344.731 418.306 352.514V425.324H390.121V352.514Z" fill="#D9D9D9"/>
<g filter="url(#filter0_d_10996_15701)">
<circle cx="328.739" cy="261.186" r="10.5692" fill="#131313"/>
<circle cx="328.739" cy="261.186" r="7.63333" stroke="white" stroke-width="5.8718"/>
</g>
<defs>
<filter id="filter0_d_10996_15701" x="302.903" y="238.874" width="51.672" height="51.6701" filterUnits="userSpaceOnUse" color-interpolation-filters="sRGB">
<feFlood flood-opacity="0" result="BackgroundImageFix"/>
<feColorMatrix in="SourceAlpha" type="matrix" values="0 0 0 0 0 0 0 0 0 0 0 0 0 0 0 0 0 0 127 0" result="hardAlpha"/>
<feOffset dy="3.52308"/>
<feGaussianBlur stdDeviation="7.63333"/>
<feComposite in2="hardAlpha" operator="out"/>
<feColorMatrix type="matrix" values="0 0 0 0 0.290196 0 0 0 0 0.333333 0 0 0 0 0.407843 0 0 0 0.15 0"/>
<feBlend mode="normal" in2="BackgroundImageFix" result="effect1_dropShadow_10996_15701"/>
<feBlend mode="normal" in="SourceGraphic" in2="effect1_dropShadow_10996_15701" result="shape"/>
</filter>
</defs>
</svg>
