<svg width="551" height="551" viewBox="0 0 551 551" fill="none" xmlns="http://www.w3.org/2000/svg">
<circle cx="275.125" cy="275.124" r="52.4048" fill="#28B446"/>
<circle cx="275.126" cy="275.124" r="105.277" stroke="#535353" stroke-width="0.811578"/>
<circle cx="275.123" cy="275.125" r="154.188" stroke="#222228" stroke-width="0.811578"/>
<circle cx="275.123" cy="275.125" r="154.188" stroke="#535353" stroke-width="0.811578"/>
<circle cx="275.126" cy="275.124" r="206.593" stroke="#535353" stroke-width="0.811578"/>
<circle opacity="0.5" cx="275.125" cy="275.125" r="274.719" stroke="#535353" stroke-width="0.811578"/>
<rect x="389.959" y="188.758" width="53.5647" height="53.5647" rx="26.7823" fill="#EBF7ED"/>
<path d="M416.556 201.055C408.662 201.055 402.256 207.461 402.256 215.355C402.256 223.248 408.662 229.655 416.556 229.655C424.449 229.655 430.856 223.248 430.856 215.355C430.856 207.461 424.449 201.055 416.556 201.055ZM411.594 217.457C412.008 217.871 412.008 218.558 411.594 218.972C411.379 219.187 411.108 219.287 410.836 219.287C410.564 219.287 410.292 219.187 410.078 218.972L407.218 216.113C406.803 215.698 406.803 215.011 407.218 214.597L410.078 211.737C410.493 211.322 411.179 211.322 411.594 211.737C412.008 212.151 412.008 212.838 411.594 213.253L409.492 215.355L411.594 217.457ZM418.972 212.437L416.112 219.115C415.941 219.516 415.54 219.759 415.126 219.759C414.983 219.759 414.84 219.73 414.711 219.673C414.168 219.444 413.91 218.815 414.153 218.257L417.013 211.579C417.242 211.036 417.871 210.779 418.415 211.022C418.958 211.265 419.201 211.894 418.972 212.437ZM425.894 216.113L423.034 218.972C422.819 219.187 422.547 219.287 422.276 219.287C422.004 219.287 421.732 219.187 421.518 218.972C421.103 218.558 421.103 217.871 421.518 217.457L423.62 215.355L421.518 213.253C421.103 212.838 421.103 212.151 421.518 211.737C421.933 211.322 422.619 211.322 423.034 211.737L425.894 214.597C426.308 215.011 426.308 215.698 425.894 216.113Z" fill="#32AE4C"/>
<rect x="195.193" y="394.68" width="53.5647" height="53.5647" rx="26.7823" fill="#EBF7ED"/>
<path d="M226.441 428.069H223.938C221.965 428.069 220.363 426.467 220.363 424.494C220.363 423.908 220.849 423.422 221.436 423.422C222.022 423.422 222.508 423.908 222.508 424.494C222.508 425.281 223.152 425.924 223.938 425.924H226.441C227.227 425.924 227.871 425.281 227.871 424.494C227.871 423.708 227.227 423.064 226.441 423.064H223.938C221.965 423.064 220.363 421.462 220.363 419.489C220.363 417.516 221.965 415.914 223.938 415.914H226.441C228.414 415.914 230.016 417.516 230.016 419.489C230.016 420.075 229.53 420.562 228.943 420.562C228.357 420.562 227.871 420.075 227.871 419.489C227.871 418.703 227.227 418.059 226.441 418.059H223.938C223.152 418.059 222.508 418.703 222.508 419.489C222.508 420.276 223.152 420.919 223.938 420.919H226.441C228.414 420.919 230.016 422.521 230.016 424.494C230.016 426.467 228.414 428.069 226.441 428.069Z" fill="#32AE4C"/>
<path d="M221.793 436.451C221.378 436.451 220.963 436.351 220.577 436.136L218.461 435.121C217.932 434.863 217.703 434.22 217.96 433.691C218.218 433.162 218.847 432.933 219.39 433.19L221.55 434.234C221.707 434.32 221.85 434.32 221.95 434.263L233.39 427.914C233.504 427.856 233.576 427.728 233.576 427.599V414.986C233.576 414.858 233.504 414.743 233.39 414.672L221.95 408.323C221.836 408.265 221.707 408.265 221.607 408.323L210.167 414.672C210.052 414.729 209.981 414.858 209.981 414.986V427.599C209.981 427.728 210.052 427.842 210.167 427.914L213.756 429.901C214.314 430.216 214.972 430.202 215.529 429.873C216.087 429.544 216.416 428.972 216.416 428.328L216.43 416.988C216.43 416.402 216.916 415.916 217.503 415.916C218.089 415.916 218.575 416.402 218.575 416.988L218.561 428.328C218.561 429.73 217.832 431.002 216.616 431.717C215.401 432.432 213.942 432.447 212.712 431.76L209.123 429.773C208.322 429.329 207.836 428.486 207.836 427.585V414.972C207.836 414.071 208.322 413.227 209.123 412.784L220.563 406.435C221.321 406.006 222.236 406.006 222.994 406.435L234.434 412.784C235.235 413.227 235.721 414.071 235.721 414.972V427.585C235.721 428.486 235.235 429.329 234.434 429.773L222.994 436.122C222.622 436.336 222.207 436.451 221.793 436.451Z" fill="#32AE4C"/>
<rect x="120.549" y="169.023" width="53.5647" height="53.5647" rx="26.7823" fill="#EBF7ED"/>
<path d="M158.414 181.324H135.863C135.005 181.324 134.347 182.068 134.448 182.912L137.022 206.106C137.079 206.678 137.493 207.164 138.051 207.321L146.745 209.81C147.003 209.881 147.275 209.881 147.532 209.81L156.226 207.321C156.784 207.164 157.184 206.678 157.256 206.106L159.83 182.912C159.93 182.068 159.272 181.324 158.414 181.324ZM153.223 189.189H142.27L142.742 193.479H152.508C152.809 193.479 153.095 193.608 153.309 193.837C153.509 194.065 153.609 194.366 153.581 194.666L152.866 201.816C152.823 202.259 152.523 202.617 152.094 202.746L147.089 204.175C146.989 204.204 146.889 204.218 146.788 204.218C146.688 204.218 146.588 204.204 146.488 204.175L141.483 202.746C141.026 202.617 140.711 202.188 140.711 201.716V198.856C140.711 198.27 141.197 197.783 141.783 197.783C142.37 197.783 142.856 198.27 142.856 198.856V200.901L146.788 202.031L150.792 200.887L151.321 195.638H141.783C141.24 195.638 140.782 195.224 140.711 194.68L139.996 188.245C139.967 187.945 140.053 187.645 140.268 187.416C140.468 187.187 140.768 187.058 141.068 187.058H153.223C153.81 187.058 154.296 187.545 154.296 188.131C154.296 188.717 153.81 189.189 153.223 189.189Z" fill="#32AE4C"/>
<path d="M268.26 266.739C271.902 266.739 274.854 263.787 274.854 260.145C274.854 256.503 271.902 253.551 268.26 253.551C264.618 253.551 261.666 256.503 261.666 260.145C261.666 263.787 264.618 266.739 268.26 266.739Z" fill="white"/>
<path d="M299.032 282.122C302.673 282.122 305.626 279.169 305.626 275.528C305.626 271.886 302.673 268.934 299.032 268.934C295.39 268.934 292.438 271.886 292.438 275.528C292.438 279.169 295.39 282.122 299.032 282.122Z" fill="white"/>
<path d="M268.26 297.508C271.902 297.508 274.854 294.556 274.854 290.914C274.854 287.273 271.902 284.32 268.26 284.32C264.618 284.32 261.666 287.273 261.666 290.914C261.666 294.556 264.618 297.508 268.26 297.508Z" fill="white"/>
<path d="M268.26 285.971C267.359 285.971 266.611 285.224 266.611 284.323V266.738C266.611 265.837 267.359 265.09 268.26 265.09C269.161 265.09 269.908 265.837 269.908 266.738C269.908 271.552 272.238 273.882 277.052 273.882H292.438C293.339 273.882 294.087 274.629 294.087 275.53C294.087 276.432 293.339 277.179 292.438 277.179H277.052C274.063 277.179 271.667 276.41 269.908 274.959V284.323C269.908 285.224 269.161 285.971 268.26 285.971Z" fill="white"/>
<circle cx="323.009" cy="128.231" r="12.9853" fill="url(#paint0_radial_10992_15778)" fill-opacity="0.3"/>
<circle cx="323.01" cy="128.231" r="7.35194" fill="url(#paint1_radial_10992_15778)"/>
<circle cx="367.645" cy="396.86" r="12.9853" fill="url(#paint2_radial_10992_15778)" fill-opacity="0.3"/>
<circle cx="367.647" cy="396.86" r="7.35194" fill="url(#paint3_radial_10992_15778)"/>
<circle cx="127.419" cy="314.892" r="12.9853" fill="url(#paint4_radial_10992_15778)" fill-opacity="0.3"/>
<circle cx="127.42" cy="314.891" r="7.35194" fill="url(#paint5_radial_10992_15778)"/>
<defs>
<radialGradient id="paint0_radial_10992_15778" cx="0" cy="0" r="1" gradientUnits="userSpaceOnUse" gradientTransform="translate(318.287 113.475) rotate(68.4287) scale(27.2917 321.509)">
<stop stop-color="#28B446"/>
<stop offset="1" stop-color="#28B446"/>
</radialGradient>
<radialGradient id="paint1_radial_10992_15778" cx="0" cy="0" r="1" gradientUnits="userSpaceOnUse" gradientTransform="translate(320.337 119.876) rotate(68.4287) scale(15.4519 182.031)">
<stop stop-color="#28B446"/>
<stop offset="1" stop-color="#28B446" stop-opacity="0.06"/>
</radialGradient>
<radialGradient id="paint2_radial_10992_15778" cx="0" cy="0" r="1" gradientUnits="userSpaceOnUse" gradientTransform="translate(362.923 382.104) rotate(68.4287) scale(27.2917 321.509)">
<stop stop-color="#28B446"/>
<stop offset="1" stop-color="#28B446"/>
</radialGradient>
<radialGradient id="paint3_radial_10992_15778" cx="0" cy="0" r="1" gradientUnits="userSpaceOnUse" gradientTransform="translate(364.973 388.505) rotate(68.4287) scale(15.4519 182.031)">
<stop stop-color="#28B446"/>
<stop offset="1" stop-color="#28B446" stop-opacity="0.06"/>
</radialGradient>
<radialGradient id="paint4_radial_10992_15778" cx="0" cy="0" r="1" gradientUnits="userSpaceOnUse" gradientTransform="translate(122.697 300.136) rotate(68.4287) scale(27.2917 321.509)">
<stop stop-color="#28B446"/>
<stop offset="1" stop-color="#28B446"/>
</radialGradient>
<radialGradient id="paint5_radial_10992_15778" cx="0" cy="0" r="1" gradientUnits="userSpaceOnUse" gradientTransform="translate(124.747 306.537) rotate(68.4287) scale(15.4519 182.031)">
<stop stop-color="#28B446"/>
<stop offset="1" stop-color="#28B446" stop-opacity="0.06"/>
</radialGradient>
</defs>
</svg>
