<svg width="14" height="15" viewBox="0 0 14 15" fill="none" xmlns="http://www.w3.org/2000/svg">
<path d="M6.9987 0.96875C10.6807 0.96875 13.6654 3.95342 13.6654 7.63542C13.6654 11.3174 10.6807 14.3021 6.9987 14.3021C3.3167 14.3021 0.332031 11.3174 0.332031 7.63542C0.332031 3.95342 3.3167 0.96875 6.9987 0.96875ZM6.9987 3.63542C6.82189 3.63542 6.65232 3.70565 6.52729 3.83068C6.40227 3.9557 6.33203 4.12527 6.33203 4.30208V7.63542C6.33207 7.81221 6.40233 7.98175 6.52736 8.10675L8.52736 10.1067C8.6531 10.2282 8.8215 10.2954 8.9963 10.2939C9.1711 10.2923 9.3383 10.2222 9.46191 10.0986C9.58552 9.97502 9.65563 9.80781 9.65715 9.63302C9.65867 9.45822 9.59147 9.28982 9.47003 9.16408L7.66536 7.35942V4.30208C7.66536 4.12527 7.59513 3.9557 7.4701 3.83068C7.34508 3.70565 7.17551 3.63542 6.9987 3.63542Z" fill="#DFDFDF"/>
</svg>
