<svg width="692" height="500" viewBox="0 0 692 500" fill="none" xmlns="http://www.w3.org/2000/svg">
<g clip-path="url(#clip0_11476_43512)">
<rect width="692" height="500" rx="40" fill="#131313"/>
<path d="M-11.4118 -161H-59V-118.583M-11.4118 -161V-118.583M-11.4118 -161H36.1765M-11.4118 -118.583H-59M-11.4118 -118.583H36.1765M-11.4118 -118.583V-76.1667M-59 -118.583V-76.1667M36.1765 -161V-118.583M36.1765 -161H83.7647M36.1765 -118.583H83.7647M36.1765 -118.583V-76.1667M83.7647 -161V-118.583M83.7647 -161H131.353M83.7647 -118.583H131.353M83.7647 -118.583V-76.1667M131.353 -161V-118.583M131.353 -161H178.941M131.353 -118.583H178.941M131.353 -118.583V-76.1667M178.941 -161V-118.583M178.941 -161H226.529M178.941 -118.583H226.529M178.941 -118.583V-76.1667M226.529 -161V-118.583M226.529 -161H274.118M226.529 -118.583H274.118M226.529 -118.583V-76.1667M274.118 -161V-118.583M274.118 -161H321.706M274.118 -118.583H321.706M274.118 -118.583V-76.1667M321.706 -161V-118.583M321.706 -161H369.294M321.706 -118.583H369.294M321.706 -118.583V-76.1667M369.294 -161V-118.583M369.294 -161H416.882M369.294 -118.583H416.882M369.294 -118.583V-76.1667M416.882 -161V-118.583M416.882 -161H464.471M416.882 -118.583H464.471M416.882 -118.583V-76.1667M464.471 -161V-118.583M464.471 -161H512.059M464.471 -118.583H512.059M464.471 -118.583V-76.1667M512.059 -161V-118.583M512.059 -161H559.647M512.059 -118.583H559.647M512.059 -118.583V-76.1667M559.647 -161V-118.583M559.647 -161H607.235M559.647 -118.583H607.235M559.647 -118.583V-76.1667M607.235 -161V-118.583M607.235 -161H654.824M607.235 -118.583H654.824M607.235 -118.583V-76.1667M654.824 -161V-118.583M654.824 -161H702.412M654.824 -118.583H702.412M654.824 -118.583V-76.1667M702.412 -161V-118.583M702.412 -161H750V-118.583M702.412 -118.583H750M702.412 -118.583V-76.1667M750 -118.583V-76.1667M-11.4118 -76.1667H-59M-11.4118 -76.1667H36.1765M-11.4118 -76.1667V-33.75M-59 -76.1667V-33.75M36.1765 -76.1667H83.7647M36.1765 -76.1667V-33.75M83.7647 -76.1667H131.353M83.7647 -76.1667V-33.75M131.353 -76.1667H178.941M131.353 -76.1667V-33.75M178.941 -76.1667H226.529M178.941 -76.1667V-33.75M226.529 -76.1667H274.118M226.529 -76.1667V-33.75M274.118 -76.1667H321.706M274.118 -76.1667V-33.75M321.706 -76.1667H369.294M321.706 -76.1667V-33.75M369.294 -76.1667H416.882M369.294 -76.1667V-33.75M416.882 -76.1667H464.471M416.882 -76.1667V-33.75M464.471 -76.1667H512.059M464.471 -76.1667V-33.75M512.059 -76.1667H559.647M512.059 -76.1667V-33.75M559.647 -76.1667H607.235M559.647 -76.1667V-33.75M607.235 -76.1667H654.824M607.235 -76.1667V-33.75M654.824 -76.1667H702.412M654.824 -76.1667V-33.75M702.412 -76.1667H750M702.412 -76.1667V-33.75M750 -76.1667V-33.75M-11.4118 -33.75H-59M-11.4118 -33.75H36.1765M-11.4118 -33.75V8.66667M-59 -33.75V8.66667M36.1765 -33.75H83.7647M36.1765 -33.75V8.66667M83.7647 -33.75H131.353M83.7647 -33.75V8.66667M131.353 -33.75H178.941M131.353 -33.75V8.66667M178.941 -33.75H226.529M178.941 -33.75V8.66667M226.529 -33.75H274.118M226.529 -33.75V8.66667M274.118 -33.75H321.706M274.118 -33.75V8.66667M321.706 -33.75H369.294M321.706 -33.75V8.66667M369.294 -33.75H416.882M369.294 -33.75V8.66667M416.882 -33.75H464.471M416.882 -33.75V8.66667M464.471 -33.75H512.059M464.471 -33.75V8.66667M512.059 -33.75H559.647M512.059 -33.75V8.66667M559.647 -33.75H607.235M559.647 -33.75V8.66667M607.235 -33.75H654.824M607.235 -33.75V8.66667M654.824 -33.75H702.412M654.824 -33.75V8.66667M702.412 -33.75H750M702.412 -33.75V8.66667M750 -33.75V8.66667M-11.4118 8.66667H-59M-11.4118 8.66667H36.1765M-11.4118 8.66667V51.0833M-59 8.66667V51.0833M36.1765 8.66667H83.7647M36.1765 8.66667V51.0833M83.7647 8.66667H131.353M83.7647 8.66667V51.0833M131.353 8.66667H178.941M131.353 8.66667V51.0833M178.941 8.66667H226.529M178.941 8.66667V51.0833M226.529 8.66667H274.118M226.529 8.66667V51.0833M274.118 8.66667H321.706M274.118 8.66667V51.0833M321.706 8.66667H369.294M321.706 8.66667V51.0833M369.294 8.66667H416.882M369.294 8.66667V51.0833M416.882 8.66667H464.471M416.882 8.66667V51.0833M464.471 8.66667H512.059M464.471 8.66667V51.0833M512.059 8.66667H559.647M512.059 8.66667V51.0833M559.647 8.66667H607.235M559.647 8.66667V51.0833M607.235 8.66667H654.824M607.235 8.66667V51.0833M654.824 8.66667H702.412M654.824 8.66667V51.0833M702.412 8.66667H750M702.412 8.66667V51.0833M750 8.66667V51.0833M-11.4118 51.0833H-59M-11.4118 51.0833H36.1765M-11.4118 51.0833V93.5M-59 51.0833V93.5M36.1765 51.0833H83.7647M36.1765 51.0833V93.5M83.7647 51.0833H131.353M83.7647 51.0833V93.5M131.353 51.0833H178.941M131.353 51.0833V93.5M178.941 51.0833H226.529M178.941 51.0833V93.5M226.529 51.0833H274.118M226.529 51.0833V93.5M274.118 51.0833H321.706M274.118 51.0833V93.5M321.706 51.0833H369.294M321.706 51.0833V93.5M369.294 51.0833H416.882M369.294 51.0833V93.5M416.882 51.0833H464.471M416.882 51.0833V93.5M464.471 51.0833H512.059M464.471 51.0833V93.5M512.059 51.0833H559.647M512.059 51.0833V93.5M559.647 51.0833H607.235M559.647 51.0833V93.5M607.235 51.0833H654.824M607.235 51.0833V93.5M654.824 51.0833H702.412M654.824 51.0833V93.5M702.412 51.0833H750M702.412 51.0833V93.5M750 51.0833V93.5M-11.4118 93.5H-59M-11.4118 93.5H36.1765M-11.4118 93.5V135.917M-59 93.5V135.917M36.1765 93.5H83.7647M36.1765 93.5V135.917M83.7647 93.5H131.353M83.7647 93.5V135.917M131.353 93.5H178.941M131.353 93.5V135.917M178.941 93.5H226.529M178.941 93.5V135.917M226.529 93.5H274.118M226.529 93.5V135.917M274.118 93.5H321.706M274.118 93.5V135.917M321.706 93.5H369.294M321.706 93.5V135.917M369.294 93.5H416.882M369.294 93.5V135.917M416.882 93.5H464.471M416.882 93.5V135.917M464.471 93.5H512.059M464.471 93.5V135.917M512.059 93.5H559.647M512.059 93.5V135.917M559.647 93.5H607.235M559.647 93.5V135.917M607.235 93.5H654.824M607.235 93.5V135.917M654.824 93.5H702.412M654.824 93.5V135.917M702.412 93.5H750M702.412 93.5V135.917M750 93.5V135.917M-11.4118 135.917H-59M-11.4118 135.917H36.1765M-11.4118 135.917V178.333M-59 135.917V178.333M36.1765 135.917H83.7647M36.1765 135.917V178.333M83.7647 135.917H131.353M83.7647 135.917V178.333M131.353 135.917H178.941M131.353 135.917V178.333M178.941 135.917H226.529M178.941 135.917V178.333M226.529 135.917H274.118M226.529 135.917V178.333M274.118 135.917H321.706M274.118 135.917V178.333M321.706 135.917H369.294M321.706 135.917V178.333M369.294 135.917H416.882M369.294 135.917V178.333M416.882 135.917H464.471M416.882 135.917V178.333M464.471 135.917H512.059M464.471 135.917V178.333M512.059 135.917H559.647M512.059 135.917V178.333M559.647 135.917H607.235M559.647 135.917V178.333M607.235 135.917H654.824M607.235 135.917V178.333M654.824 135.917H702.412M654.824 135.917V178.333M702.412 135.917H750M702.412 135.917V178.333M750 135.917V178.333M-11.4118 178.333H-59M-11.4118 178.333H36.1765M-11.4118 178.333V220.75M-59 178.333V220.75M36.1765 178.333H83.7647M36.1765 178.333V220.75M83.7647 178.333H131.353M83.7647 178.333V220.75M131.353 178.333H178.941M131.353 178.333V220.75M178.941 178.333H226.529M178.941 178.333V220.75M226.529 178.333H274.118M226.529 178.333V220.75M274.118 178.333H321.706M274.118 178.333V220.75M321.706 178.333H369.294M321.706 178.333V220.75M369.294 178.333H416.882M369.294 178.333V220.75M416.882 178.333H464.471M416.882 178.333V220.75M464.471 178.333H512.059M464.471 178.333V220.75M512.059 178.333H559.647M512.059 178.333V220.75M559.647 178.333H607.235M559.647 178.333V220.75M607.235 178.333H654.824M607.235 178.333V220.75M654.824 178.333H702.412M654.824 178.333V220.75M702.412 178.333H750M702.412 178.333V220.75M750 178.333V220.75M-11.4118 220.75H-59M-11.4118 220.75H36.1765M-11.4118 220.75V263.167M-59 220.75V263.167M36.1765 220.75H83.7647M36.1765 220.75V263.167M83.7647 220.75H131.353M83.7647 220.75V263.167M131.353 220.75H178.941M131.353 220.75V263.167M178.941 220.75H226.529M178.941 220.75V263.167M226.529 220.75H274.118M226.529 220.75V263.167M274.118 220.75H321.706M274.118 220.75V263.167M321.706 220.75H369.294M321.706 220.75V263.167M369.294 220.75H416.882M369.294 220.75V263.167M416.882 220.75H464.471M416.882 220.75V263.167M464.471 220.75H512.059M464.471 220.75V263.167M512.059 220.75H559.647M512.059 220.75V263.167M559.647 220.75H607.235M559.647 220.75V263.167M607.235 220.75H654.824M607.235 220.75V263.167M654.824 220.75H702.412M654.824 220.75V263.167M702.412 220.75H750M702.412 220.75V263.167M750 220.75V263.167M-11.4118 263.167H-59M-11.4118 263.167H36.1765M-11.4118 263.167V305.583M-59 263.167V305.583M36.1765 263.167H83.7647M36.1765 263.167V305.583M83.7647 263.167H131.353M83.7647 263.167V305.583M131.353 263.167H178.941M131.353 263.167V305.583M178.941 263.167H226.529M178.941 263.167V305.583M226.529 263.167H274.118M226.529 263.167V305.583M274.118 263.167H321.706M274.118 263.167V305.583M321.706 263.167H369.294M321.706 263.167V305.583M369.294 263.167H416.882M369.294 263.167V305.583M416.882 263.167H464.471M416.882 263.167V305.583M464.471 263.167H512.059M464.471 263.167V305.583M512.059 263.167H559.647M512.059 263.167V305.583M559.647 263.167H607.235M559.647 263.167V305.583M607.235 263.167H654.824M607.235 263.167V305.583M654.824 263.167H702.412M654.824 263.167V305.583M702.412 263.167H750M702.412 263.167V305.583M750 263.167V305.583M-11.4118 305.583H-59M-11.4118 305.583H36.1765M-11.4118 305.583V348M-59 305.583V348H-11.4118M36.1765 305.583H83.7647M36.1765 305.583V348M83.7647 305.583H131.353M83.7647 305.583V348M131.353 305.583H178.941M131.353 305.583V348M178.941 305.583H226.529M178.941 305.583V348M226.529 305.583H274.118M226.529 305.583V348M274.118 305.583H321.706M274.118 305.583V348M321.706 305.583H369.294M321.706 305.583V348M369.294 305.583H416.882M369.294 305.583V348M416.882 305.583H464.471M416.882 305.583V348M464.471 305.583H512.059M464.471 305.583V348M512.059 305.583H559.647M512.059 305.583V348M559.647 305.583H607.235M559.647 305.583V348M607.235 305.583H654.824M607.235 305.583V348M654.824 305.583H702.412M654.824 305.583V348M702.412 305.583H750M702.412 305.583V348M750 305.583V348H702.412M-11.4118 348H36.1765M36.1765 348H83.7647M83.7647 348H131.353M131.353 348H178.941M178.941 348H226.529M226.529 348H274.118M274.118 348H321.706M321.706 348H369.294M369.294 348H416.882M416.882 348H464.471M464.471 348H512.059M512.059 348H559.647M559.647 348H607.235M607.235 348H654.824M654.824 348H702.412" stroke="url(#paint0_radial_11476_43512)" stroke-opacity="0.2"/>
<rect x="-8" y="111" width="707" height="389" fill="url(#paint1_linear_11476_43512)"/>
</g>
<rect x="0.5" y="0.5" width="691" height="499" rx="39.5" stroke="white" stroke-opacity="0.04"/>
<rect x="0.5" y="0.5" width="691" height="499" rx="39.5" stroke="url(#paint2_linear_11476_43512)" stroke-opacity="0.12"/>
<defs>
<radialGradient id="paint0_radial_11476_43512" cx="0" cy="0" r="1" gradientUnits="userSpaceOnUse" gradientTransform="translate(345.5 107.095) rotate(90) scale(240.361 405.11)">
<stop stop-color="white"/>
<stop offset="1" stop-color="white" stop-opacity="0"/>
</radialGradient>
<linearGradient id="paint1_linear_11476_43512" x1="345.5" y1="111" x2="345.5" y2="500" gradientUnits="userSpaceOnUse">
<stop stop-color="#131313" stop-opacity="0"/>
<stop offset="1" stop-color="#131313"/>
</linearGradient>
<linearGradient id="paint2_linear_11476_43512" x1="346" y1="0" x2="346" y2="370.192" gradientUnits="userSpaceOnUse">
<stop stop-color="white"/>
<stop offset="1" stop-color="white" stop-opacity="0"/>
</linearGradient>
<clipPath id="clip0_11476_43512">
<rect width="692" height="500" rx="40" fill="white"/>
</clipPath>
</defs>
</svg>
