<svg width="356" height="140" viewBox="0 0 356 140" fill="none" xmlns="http://www.w3.org/2000/svg">
<path d="M34 16C34 7.16345 41.1634 0 50 0H356V58H50C41.1634 58 34 50.8366 34 42V16Z" fill="#F2F1F1"/>
<path d="M50 0.5H355.5V57.5H50C41.4396 57.5 34.5 50.5604 34.5 42V16C34.5 7.43959 41.4396 0.5 50 0.5Z" stroke="white" stroke-opacity="0.01"/>
<path d="M50 0.5H355.5V57.5H50C41.4396 57.5 34.5 50.5604 34.5 42V16C34.5 7.43959 41.4396 0.5 50 0.5Z" stroke="url(#paint0_radial_10957_46282)" stroke-opacity="0.12"/>
<rect x="50" y="13" width="32" height="32" rx="8" fill="#2B4089"/>
<path d="M68.25 27.875H67.125V22.625H67.5C68.1962 22.625 68.8639 22.9016 69.3562 23.3938C69.8484 23.8861 70.125 24.5538 70.125 25.25C70.125 25.5484 70.2435 25.8345 70.4545 26.0455C70.6655 26.2565 70.9516 26.375 71.25 26.375C71.5484 26.375 71.8345 26.2565 72.0455 26.0455C72.2565 25.8345 72.375 25.5484 72.375 25.25C72.3735 23.9575 71.8594 22.7184 70.9455 21.8045C70.0316 20.8906 68.7925 20.3765 67.5 20.375H67.125V19.25C67.125 18.9516 67.0065 18.6655 66.7955 18.4545C66.5845 18.2435 66.2984 18.125 66 18.125C65.7016 18.125 65.4155 18.2435 65.2045 18.4545C64.9935 18.6655 64.875 18.9516 64.875 19.25V20.375H64.5C63.2071 20.375 61.9671 20.8886 61.0529 21.8029C60.1386 22.7171 59.625 23.9571 59.625 25.25C59.625 26.5429 60.1386 27.7829 61.0529 28.6971C61.9671 29.6114 63.2071 30.125 64.5 30.125H64.875V35.375H63.75C63.0538 35.375 62.3861 35.0984 61.8938 34.6062C61.4016 34.1139 61.125 33.4462 61.125 32.75C61.125 32.4516 61.0065 32.1655 60.7955 31.9545C60.5845 31.7435 60.2984 31.625 60 31.625C59.7016 31.625 59.4155 31.7435 59.2045 31.9545C58.9935 32.1655 58.875 32.4516 58.875 32.75C58.8765 34.0425 59.3906 35.2816 60.3045 36.1955C61.2184 37.1094 62.4575 37.6235 63.75 37.625H64.875V38.75C64.875 39.0484 64.9935 39.3345 65.2045 39.5455C65.4155 39.7565 65.7016 39.875 66 39.875C66.2984 39.875 66.5845 39.7565 66.7955 39.5455C67.0065 39.3345 67.125 39.0484 67.125 38.75V37.625H68.25C69.5429 37.625 70.7829 37.1114 71.6971 36.1971C72.6114 35.2829 73.125 34.0429 73.125 32.75C73.125 31.4571 72.6114 30.2171 71.6971 29.3029C70.7829 28.3886 69.5429 27.875 68.25 27.875ZM64.5 27.875C63.8038 27.875 63.1361 27.5984 62.6438 27.1062C62.1516 26.6139 61.875 25.9462 61.875 25.25C61.875 24.5538 62.1516 23.8861 62.6438 23.3938C63.1361 22.9016 63.8038 22.625 64.5 22.625H64.875V27.875H64.5ZM68.25 35.375H67.125V30.125H68.25C68.9462 30.125 69.6139 30.4016 70.1062 30.8938C70.5984 31.3861 70.875 32.0538 70.875 32.75C70.875 33.4462 70.5984 34.1139 70.1062 34.6062C69.6139 35.0984 68.9462 35.375 68.25 35.375Z" fill="white"/>
<path d="M104.25 36H99.7614V21.4545H104.449C105.86 21.4545 107.067 21.7457 108.071 22.3281C109.075 22.9058 109.844 23.7367 110.379 24.821C110.914 25.9006 111.182 27.1932 111.182 28.6989C111.182 30.214 110.912 31.5185 110.372 32.6122C109.832 33.7012 109.046 34.5393 108.014 35.1264C106.982 35.7088 105.727 36 104.25 36ZM101.523 34.4375H104.136C105.339 34.4375 106.336 34.2055 107.126 33.7415C107.917 33.2775 108.507 32.617 108.895 31.7599C109.283 30.9029 109.477 29.8826 109.477 28.6989C109.477 27.5246 109.286 26.5137 108.902 25.6662C108.518 24.8139 107.946 24.1605 107.183 23.706C106.421 23.2467 105.472 23.017 104.335 23.017H101.523V34.4375ZM118.341 36.2273C117.356 36.2273 116.492 35.9929 115.749 35.5241C115.01 35.0554 114.432 34.3996 114.016 33.5568C113.604 32.714 113.398 31.7292 113.398 30.6023C113.398 29.4659 113.604 28.474 114.016 27.6264C114.432 26.7789 115.01 26.1207 115.749 25.652C116.492 25.1832 117.356 24.9489 118.341 24.9489C119.326 24.9489 120.188 25.1832 120.926 25.652C121.67 26.1207 122.247 26.7789 122.659 27.6264C123.076 28.474 123.284 29.4659 123.284 30.6023C123.284 31.7292 123.076 32.714 122.659 33.5568C122.247 34.3996 121.67 35.0554 120.926 35.5241C120.188 35.9929 119.326 36.2273 118.341 36.2273ZM118.341 34.7216C119.089 34.7216 119.705 34.5298 120.188 34.1463C120.67 33.7628 121.028 33.2585 121.26 32.6335C121.492 32.0085 121.608 31.3314 121.608 30.6023C121.608 29.8731 121.492 29.1937 121.26 28.5639C121.028 27.9342 120.67 27.4252 120.188 27.0369C119.705 26.6487 119.089 26.4545 118.341 26.4545C117.593 26.4545 116.977 26.6487 116.494 27.0369C116.011 27.4252 115.654 27.9342 115.422 28.5639C115.19 29.1937 115.074 29.8731 115.074 30.6023C115.074 31.3314 115.19 32.0085 115.422 32.6335C115.654 33.2585 116.011 33.7628 116.494 34.1463C116.977 34.5298 117.593 34.7216 118.341 34.7216ZM127.519 21.4545V36H125.843V21.4545H127.519ZM132.265 21.4545V36H130.589V21.4545H132.265ZM138.545 36.2557C137.854 36.2557 137.226 36.1255 136.663 35.8651C136.1 35.5999 135.652 35.2188 135.321 34.7216C134.989 34.2197 134.824 33.6136 134.824 32.9034C134.824 32.2784 134.947 31.7718 135.193 31.3835C135.439 30.9905 135.768 30.6828 136.18 30.4602C136.592 30.2377 137.047 30.072 137.544 29.9631C138.046 29.8494 138.55 29.7595 139.056 29.6932C139.719 29.608 140.257 29.544 140.669 29.5014C141.085 29.4541 141.388 29.3759 141.578 29.267C141.772 29.1581 141.869 28.9687 141.869 28.6989V28.642C141.869 27.9413 141.677 27.3968 141.294 27.0085C140.915 26.6203 140.34 26.4261 139.568 26.4261C138.768 26.4261 138.14 26.6013 137.686 26.9517C137.231 27.3021 136.912 27.6761 136.727 28.0739L135.136 27.5057C135.42 26.8428 135.799 26.3267 136.272 25.9574C136.751 25.5833 137.271 25.3229 137.835 25.1761C138.403 25.0246 138.962 24.9489 139.511 24.9489C139.861 24.9489 140.264 24.9915 140.718 25.0767C141.178 25.1572 141.62 25.3253 142.047 25.581C142.477 25.8366 142.835 26.2225 143.119 26.7386C143.403 27.2547 143.545 27.946 143.545 28.8125V36H141.869V34.5227H141.784C141.67 34.7595 141.481 35.0128 141.216 35.2827C140.95 35.5526 140.598 35.7822 140.157 35.9716C139.717 36.161 139.18 36.2557 138.545 36.2557ZM138.801 34.75C139.464 34.75 140.022 34.6198 140.477 34.3594C140.936 34.099 141.282 33.7628 141.514 33.3509C141.751 32.9389 141.869 32.5057 141.869 32.0511V30.517C141.798 30.6023 141.642 30.6804 141.4 30.7514C141.163 30.8177 140.889 30.8769 140.576 30.929C140.269 30.9763 139.968 31.0189 139.674 31.0568C139.386 31.09 139.151 31.1184 138.971 31.142C138.536 31.1989 138.128 31.2912 137.75 31.419C137.376 31.5421 137.073 31.7292 136.841 31.9801C136.613 32.2263 136.5 32.5625 136.5 32.9886C136.5 33.571 136.715 34.0114 137.146 34.3097C137.582 34.6032 138.133 34.75 138.801 34.75ZM146.604 36V25.0909H148.224V26.7386H148.337C148.536 26.1989 148.896 25.7609 149.417 25.4247C149.938 25.0885 150.525 24.9205 151.178 24.9205C151.301 24.9205 151.455 24.9228 151.64 24.9276C151.825 24.9323 151.964 24.9394 152.059 24.9489V26.6534C152.002 26.6392 151.872 26.6179 151.668 26.5895C151.469 26.5563 151.259 26.5398 151.036 26.5398C150.506 26.5398 150.032 26.651 149.616 26.8736C149.204 27.0914 148.877 27.3944 148.636 27.7827C148.399 28.1662 148.281 28.6042 148.281 29.0966V36H146.604Z" fill="#282828"/>
<path d="M0 86C0 77.1634 7.16344 70 16 70H356V140H16C7.16344 140 0 132.837 0 124V86Z" fill="#F2F1F1"/>
<path d="M16 70.5H355.5V139.5H16C7.43959 139.5 0.5 132.56 0.5 124V86C0.5 77.4396 7.43959 70.5 16 70.5Z" stroke="white" stroke-opacity="0.01"/>
<path d="M16 70.5H355.5V139.5H16C7.43959 139.5 0.5 132.56 0.5 124V86C0.5 77.4396 7.43959 70.5 16 70.5Z" stroke="url(#paint1_radial_10957_46282)" stroke-opacity="0.12"/>
<rect x="16" y="87.5" width="35" height="35" rx="8" fill="#2B892E"/>
<path d="M40.375 113.001C40.375 113.299 40.2565 113.585 40.0455 113.796C39.8345 114.007 39.5484 114.126 39.25 114.126H27.25C26.9516 114.126 26.6655 114.007 26.4545 113.796C26.2435 113.585 26.125 113.299 26.125 113.001C26.125 112.702 26.2435 112.416 26.4545 112.205C26.6655 111.994 26.9516 111.876 27.25 111.876H27.625C28.2217 111.876 28.794 111.639 29.216 111.217C29.6379 110.795 29.875 110.222 29.875 109.626V106.626H27.25C26.9516 106.626 26.6655 106.507 26.4545 106.296C26.2435 106.085 26.125 105.799 26.125 105.501C26.125 105.202 26.2435 104.916 26.4545 104.705C26.6655 104.494 26.9516 104.376 27.25 104.376H29.875V101.376C29.8749 100.38 30.1579 99.4049 30.6909 98.564C31.224 97.7231 31.9852 97.0512 32.8857 96.6265C33.7863 96.2018 34.789 96.042 35.7769 96.1656C36.7648 96.2893 37.6972 96.6913 38.4653 97.3247C38.6954 97.5147 38.8407 97.7883 38.8691 98.0853C38.8974 98.3824 38.8067 98.6785 38.6167 98.9086C38.4268 99.1387 38.1532 99.284 37.8561 99.3124C37.5591 99.3408 37.2629 99.25 37.0328 99.06C36.4969 98.6151 35.8215 98.3729 35.125 98.3757C34.3294 98.3757 33.5663 98.6917 33.0037 99.2543C32.4411 99.8169 32.125 100.58 32.125 101.376V104.376H34.75C35.0484 104.376 35.3345 104.494 35.5455 104.705C35.7565 104.916 35.875 105.202 35.875 105.501C35.875 105.799 35.7565 106.085 35.5455 106.296C35.3345 106.507 35.0484 106.626 34.75 106.626H32.125V109.626C32.1259 110.416 31.9176 111.192 31.5212 111.876H39.25C39.5484 111.876 39.8345 111.994 40.0455 112.205C40.2565 112.416 40.375 112.702 40.375 113.001Z" fill="white"/>
<path d="M81.0455 102C80.858 101.426 80.6108 100.912 80.304 100.457C80.0028 99.9972 79.642 99.6051 79.2216 99.2812C78.8068 98.9574 78.3352 98.7102 77.8068 98.5398C77.2784 98.3693 76.6989 98.2841 76.0682 98.2841C75.0341 98.2841 74.0938 98.5511 73.2472 99.0852C72.4006 99.6193 71.7273 100.406 71.2273 101.446C70.7273 102.486 70.4773 103.761 70.4773 105.273C70.4773 106.784 70.7301 108.06 71.2358 109.099C71.7415 110.139 72.4261 110.926 73.2898 111.46C74.1534 111.994 75.125 112.261 76.2045 112.261C77.2045 112.261 78.0852 112.048 78.8466 111.622C79.6136 111.19 80.2102 110.582 80.6364 109.798C81.0682 109.009 81.2841 108.08 81.2841 107.011L81.9318 107.148H76.6818V105.273H83.3295V107.148C83.3295 108.585 83.0227 109.835 82.4091 110.898C81.8011 111.96 80.9602 112.784 79.8864 113.369C78.8182 113.949 77.5909 114.239 76.2045 114.239C74.6591 114.239 73.3011 113.875 72.1307 113.148C70.9659 112.42 70.0568 111.386 69.4034 110.045C68.7557 108.705 68.4318 107.114 68.4318 105.273C68.4318 103.892 68.6165 102.651 68.9858 101.548C69.3608 100.44 69.8892 99.4972 70.571 98.7188C71.2528 97.9403 72.0597 97.3438 72.9915 96.929C73.9233 96.5142 74.9489 96.3068 76.0682 96.3068C76.9886 96.3068 77.8466 96.446 78.642 96.7244C79.4432 96.9972 80.1562 97.3864 80.7812 97.892C81.4119 98.392 81.9375 98.9915 82.358 99.6903C82.7784 100.384 83.0682 101.153 83.2273 102H81.0455ZM86.6768 114V100.909H88.62V102.886H88.7564C88.995 102.239 89.4268 101.713 90.0518 101.31C90.6768 100.906 91.3814 100.705 92.1655 100.705C92.3132 100.705 92.4979 100.707 92.7195 100.713C92.9411 100.719 93.1087 100.727 93.2223 100.739V102.784C93.1541 102.767 92.9979 102.741 92.7536 102.707C92.5149 102.668 92.2621 102.648 91.995 102.648C91.3587 102.648 90.7905 102.781 90.2905 103.048C89.7962 103.31 89.4041 103.673 89.1143 104.139C88.8303 104.599 88.6882 105.125 88.6882 105.716V114H86.6768ZM100.697 114.273C99.4354 114.273 98.3473 113.994 97.4325 113.438C96.5234 112.875 95.8217 112.091 95.3274 111.085C94.8388 110.074 94.5945 108.898 94.5945 107.557C94.5945 106.216 94.8388 105.034 95.3274 104.011C95.8217 102.983 96.5092 102.182 97.3899 101.608C98.2763 101.028 99.3104 100.739 100.492 100.739C101.174 100.739 101.847 100.852 102.512 101.08C103.177 101.307 103.782 101.676 104.327 102.188C104.873 102.693 105.308 103.364 105.631 104.199C105.955 105.034 106.117 106.062 106.117 107.284V108.136H96.0263V106.398H104.072C104.072 105.659 103.924 105 103.629 104.42C103.339 103.841 102.924 103.384 102.384 103.048C101.85 102.713 101.219 102.545 100.492 102.545C99.6911 102.545 98.9979 102.744 98.4126 103.142C97.8331 103.534 97.3871 104.045 97.0746 104.676C96.7621 105.307 96.6058 105.983 96.6058 106.705V107.864C96.6058 108.852 96.7763 109.69 97.1172 110.378C97.4638 111.06 97.9439 111.58 98.5575 111.938C99.1712 112.29 99.8842 112.466 100.697 112.466C101.225 112.466 101.702 112.392 102.129 112.244C102.56 112.091 102.933 111.864 103.245 111.562C103.558 111.256 103.799 110.875 103.969 110.42L105.913 110.966C105.708 111.625 105.364 112.205 104.881 112.705C104.398 113.199 103.802 113.585 103.092 113.864C102.381 114.136 101.583 114.273 100.697 114.273ZM113.029 114.307C112.2 114.307 111.447 114.151 110.771 113.838C110.094 113.52 109.558 113.062 109.16 112.466C108.762 111.864 108.563 111.136 108.563 110.284C108.563 109.534 108.711 108.926 109.006 108.46C109.302 107.989 109.697 107.619 110.191 107.352C110.685 107.085 111.231 106.886 111.827 106.756C112.43 106.619 113.035 106.511 113.643 106.432C114.438 106.33 115.083 106.253 115.577 106.202C116.077 106.145 116.441 106.051 116.668 105.92C116.901 105.79 117.018 105.562 117.018 105.239V105.17C117.018 104.33 116.788 103.676 116.327 103.21C115.873 102.744 115.183 102.511 114.256 102.511C113.296 102.511 112.543 102.722 111.998 103.142C111.452 103.562 111.069 104.011 110.847 104.489L108.938 103.807C109.279 103.011 109.734 102.392 110.302 101.949C110.876 101.5 111.501 101.187 112.177 101.011C112.859 100.83 113.529 100.739 114.188 100.739C114.609 100.739 115.092 100.79 115.637 100.892C116.188 100.989 116.719 101.19 117.231 101.497C117.748 101.804 118.177 102.267 118.518 102.886C118.859 103.506 119.029 104.335 119.029 105.375V114H117.018V112.227H116.915C116.779 112.511 116.552 112.815 116.234 113.139C115.915 113.463 115.492 113.739 114.964 113.966C114.435 114.193 113.79 114.307 113.029 114.307ZM113.336 112.5C114.131 112.5 114.802 112.344 115.347 112.031C115.898 111.719 116.313 111.315 116.592 110.821C116.876 110.327 117.018 109.807 117.018 109.261V107.42C116.933 107.523 116.745 107.616 116.455 107.702C116.171 107.781 115.842 107.852 115.467 107.915C115.097 107.972 114.737 108.023 114.384 108.068C114.038 108.108 113.756 108.142 113.54 108.17C113.018 108.239 112.529 108.349 112.075 108.503C111.626 108.651 111.262 108.875 110.984 109.176C110.711 109.472 110.575 109.875 110.575 110.386C110.575 111.085 110.833 111.614 111.35 111.972C111.873 112.324 112.535 112.5 113.336 112.5ZM128.393 100.909V102.614H121.609V100.909H128.393ZM123.587 97.7727H125.598V110.25C125.598 110.818 125.68 111.244 125.845 111.528C126.016 111.807 126.232 111.994 126.493 112.091C126.76 112.182 127.041 112.227 127.337 112.227C127.558 112.227 127.74 112.216 127.882 112.193C128.024 112.165 128.138 112.142 128.223 112.125L128.632 113.932C128.496 113.983 128.305 114.034 128.061 114.085C127.817 114.142 127.507 114.17 127.132 114.17C126.564 114.17 126.007 114.048 125.462 113.804C124.922 113.56 124.473 113.188 124.115 112.688C123.763 112.188 123.587 111.557 123.587 110.795V97.7727ZM138.442 114V96.5455H144.544C145.76 96.5455 146.763 96.7557 147.553 97.1761C148.342 97.5909 148.93 98.1506 149.317 98.8551C149.703 99.554 149.896 100.33 149.896 101.182C149.896 101.932 149.763 102.551 149.496 103.04C149.234 103.528 148.888 103.915 148.456 104.199C148.03 104.483 147.567 104.693 147.067 104.83V105C147.601 105.034 148.138 105.222 148.678 105.562C149.217 105.903 149.669 106.392 150.033 107.028C150.396 107.665 150.578 108.443 150.578 109.364C150.578 110.239 150.379 111.026 149.982 111.724C149.584 112.423 148.956 112.977 148.098 113.386C147.24 113.795 146.124 114 144.749 114H138.442ZM140.555 112.125H144.749C146.129 112.125 147.109 111.858 147.689 111.324C148.274 110.784 148.567 110.131 148.567 109.364C148.567 108.773 148.416 108.227 148.115 107.727C147.814 107.222 147.385 106.818 146.828 106.517C146.271 106.21 145.612 106.057 144.851 106.057H140.555V112.125ZM140.555 104.216H144.476C145.112 104.216 145.686 104.091 146.197 103.841C146.714 103.591 147.124 103.239 147.425 102.784C147.732 102.33 147.885 101.795 147.885 101.182C147.885 100.415 147.618 99.7642 147.084 99.2301C146.55 98.6903 145.703 98.4205 144.544 98.4205H140.555V104.216ZM153.778 114V100.909H155.722V102.886H155.858C156.097 102.239 156.528 101.713 157.153 101.31C157.778 100.906 158.483 100.705 159.267 100.705C159.415 100.705 159.599 100.707 159.821 100.713C160.043 100.719 160.21 100.727 160.324 100.739V102.784C160.256 102.767 160.099 102.741 159.855 102.707C159.616 102.668 159.364 102.648 159.097 102.648C158.46 102.648 157.892 102.781 157.392 103.048C156.898 103.31 156.506 103.673 156.216 104.139C155.932 104.599 155.79 105.125 155.79 105.716V114H153.778ZM162.708 114V100.909H164.719V114H162.708ZM163.731 98.7273C163.339 98.7273 163.001 98.5938 162.717 98.3267C162.438 98.0597 162.299 97.7386 162.299 97.3636C162.299 96.9886 162.438 96.6676 162.717 96.4006C163.001 96.1335 163.339 96 163.731 96C164.123 96 164.458 96.1335 164.737 96.4006C165.021 96.6676 165.163 96.9886 165.163 97.3636C165.163 97.7386 165.021 98.0597 164.737 98.3267C164.458 98.5938 164.123 98.7273 163.731 98.7273ZM174.097 100.909V102.614H167.312V100.909H174.097ZM169.29 97.7727H171.301V110.25C171.301 110.818 171.384 111.244 171.548 111.528C171.719 111.807 171.935 111.994 172.196 112.091C172.463 112.182 172.744 112.227 173.04 112.227C173.261 112.227 173.443 112.216 173.585 112.193C173.727 112.165 173.841 112.142 173.926 112.125L174.335 113.932C174.199 113.983 174.009 114.034 173.764 114.085C173.52 114.142 173.21 114.17 172.835 114.17C172.267 114.17 171.71 114.048 171.165 113.804C170.625 113.56 170.176 113.188 169.818 112.688C169.466 112.188 169.29 111.557 169.29 110.795V97.7727ZM177.122 114V100.909H179.134V114H177.122ZM178.145 98.7273C177.753 98.7273 177.415 98.5938 177.131 98.3267C176.852 98.0597 176.713 97.7386 176.713 97.3636C176.713 96.9886 176.852 96.6676 177.131 96.4006C177.415 96.1335 177.753 96 178.145 96C178.537 96 178.872 96.1335 179.151 96.4006C179.435 96.6676 179.577 96.9886 179.577 97.3636C179.577 97.7386 179.435 98.0597 179.151 98.3267C178.872 98.5938 178.537 98.7273 178.145 98.7273ZM192.09 103.841L190.283 104.352C190.17 104.051 190.002 103.759 189.781 103.474C189.565 103.185 189.269 102.946 188.894 102.759C188.519 102.571 188.039 102.477 187.454 102.477C186.653 102.477 185.985 102.662 185.451 103.031C184.923 103.395 184.658 103.858 184.658 104.42C184.658 104.92 184.84 105.315 185.204 105.605C185.567 105.895 186.136 106.136 186.908 106.33L188.852 106.807C190.022 107.091 190.894 107.526 191.468 108.111C192.042 108.69 192.329 109.437 192.329 110.352C192.329 111.102 192.113 111.773 191.681 112.364C191.255 112.955 190.658 113.42 189.891 113.761C189.124 114.102 188.232 114.273 187.215 114.273C185.88 114.273 184.775 113.983 183.9 113.403C183.025 112.824 182.471 111.977 182.238 110.864L184.147 110.386C184.329 111.091 184.673 111.619 185.178 111.972C185.69 112.324 186.357 112.5 187.181 112.5C188.119 112.5 188.863 112.301 189.414 111.903C189.971 111.5 190.249 111.017 190.249 110.455C190.249 110 190.09 109.619 189.772 109.312C189.454 109 188.965 108.767 188.306 108.614L186.124 108.102C184.925 107.818 184.045 107.378 183.482 106.781C182.925 106.179 182.647 105.426 182.647 104.523C182.647 103.784 182.854 103.131 183.269 102.562C183.69 101.994 184.261 101.548 184.982 101.224C185.71 100.901 186.533 100.739 187.454 100.739C188.749 100.739 189.766 101.023 190.505 101.591C191.249 102.159 191.778 102.909 192.09 103.841ZM197.368 106.125V114H195.357V96.5455H197.368V102.955H197.538C197.845 102.278 198.305 101.741 198.919 101.344C199.538 100.94 200.362 100.739 201.391 100.739C202.283 100.739 203.064 100.918 203.734 101.276C204.405 101.628 204.925 102.17 205.294 102.903C205.669 103.631 205.857 104.557 205.857 105.682V114H203.845V105.818C203.845 104.778 203.575 103.974 203.036 103.406C202.501 102.832 201.76 102.545 200.811 102.545C200.152 102.545 199.561 102.685 199.038 102.963C198.521 103.241 198.112 103.648 197.811 104.182C197.516 104.716 197.368 105.364 197.368 106.125ZM216.559 114V96.5455H222.457C223.826 96.5455 224.945 96.7926 225.815 97.2869C226.69 97.7756 227.337 98.4375 227.758 99.2727C228.178 100.108 228.388 101.04 228.388 102.068C228.388 103.097 228.178 104.031 227.758 104.872C227.343 105.713 226.701 106.384 225.832 106.884C224.962 107.378 223.849 107.625 222.491 107.625H218.263V105.75H222.423C223.36 105.75 224.113 105.588 224.681 105.264C225.249 104.94 225.661 104.503 225.917 103.952C226.178 103.395 226.309 102.767 226.309 102.068C226.309 101.369 226.178 100.744 225.917 100.193C225.661 99.642 225.246 99.2102 224.673 98.8977C224.099 98.5795 223.337 98.4205 222.388 98.4205H218.673V114H216.559ZM236.698 114.273C235.516 114.273 234.479 113.991 233.587 113.429C232.701 112.866 232.008 112.08 231.508 111.068C231.013 110.057 230.766 108.875 230.766 107.523C230.766 106.159 231.013 104.969 231.508 103.952C232.008 102.935 232.701 102.145 233.587 101.582C234.479 101.02 235.516 100.739 236.698 100.739C237.88 100.739 238.914 101.02 239.8 101.582C240.692 102.145 241.386 102.935 241.88 103.952C242.38 104.969 242.63 106.159 242.63 107.523C242.63 108.875 242.38 110.057 241.88 111.068C241.386 112.08 240.692 112.866 239.8 113.429C238.914 113.991 237.88 114.273 236.698 114.273ZM236.698 112.466C237.596 112.466 238.335 112.236 238.914 111.776C239.494 111.315 239.923 110.71 240.201 109.96C240.479 109.21 240.619 108.398 240.619 107.523C240.619 106.648 240.479 105.832 240.201 105.077C239.923 104.321 239.494 103.71 238.914 103.244C238.335 102.778 237.596 102.545 236.698 102.545C235.8 102.545 235.062 102.778 234.482 103.244C233.903 103.71 233.474 104.321 233.195 105.077C232.917 105.832 232.778 106.648 232.778 107.523C232.778 108.398 232.917 109.21 233.195 109.96C233.474 110.71 233.903 111.315 234.482 111.776C235.062 112.236 235.8 112.466 236.698 112.466ZM253.95 108.648V100.909H255.962V114H253.95V111.784H253.814C253.507 112.449 253.03 113.014 252.382 113.48C251.734 113.94 250.916 114.17 249.928 114.17C249.109 114.17 248.382 113.991 247.746 113.634C247.109 113.27 246.609 112.724 246.246 111.997C245.882 111.264 245.7 110.341 245.7 109.227V100.909H247.712V109.091C247.712 110.045 247.979 110.807 248.513 111.375C249.053 111.943 249.74 112.227 250.575 112.227C251.075 112.227 251.584 112.099 252.101 111.844C252.624 111.588 253.061 111.196 253.413 110.668C253.771 110.139 253.95 109.466 253.95 108.648ZM261.657 106.125V114H259.646V100.909H261.589V102.955H261.759C262.066 102.29 262.532 101.756 263.157 101.352C263.782 100.943 264.589 100.739 265.577 100.739C266.464 100.739 267.239 100.92 267.904 101.284C268.569 101.642 269.086 102.188 269.455 102.92C269.825 103.648 270.009 104.568 270.009 105.682V114H267.998V105.818C267.998 104.79 267.731 103.989 267.197 103.415C266.663 102.835 265.93 102.545 264.998 102.545C264.356 102.545 263.782 102.685 263.276 102.963C262.776 103.241 262.381 103.648 262.092 104.182C261.802 104.716 261.657 105.364 261.657 106.125ZM278.628 114.273C277.537 114.273 276.574 113.997 275.739 113.446C274.903 112.889 274.25 112.105 273.778 111.094C273.307 110.077 273.071 108.875 273.071 107.489C273.071 106.114 273.307 104.92 273.778 103.909C274.25 102.898 274.906 102.116 275.747 101.565C276.588 101.014 277.56 100.739 278.662 100.739C279.514 100.739 280.188 100.881 280.682 101.165C281.182 101.443 281.563 101.761 281.824 102.119C282.091 102.472 282.298 102.761 282.446 102.989H282.616V96.5455H284.628V114H282.685V111.989H282.446C282.298 112.227 282.088 112.528 281.815 112.892C281.543 113.25 281.153 113.571 280.648 113.855C280.142 114.134 279.469 114.273 278.628 114.273ZM278.901 112.466C279.707 112.466 280.389 112.256 280.946 111.835C281.503 111.409 281.926 110.821 282.216 110.071C282.506 109.315 282.651 108.443 282.651 107.455C282.651 106.477 282.509 105.622 282.224 104.889C281.94 104.151 281.52 103.577 280.963 103.168C280.406 102.753 279.719 102.545 278.901 102.545C278.048 102.545 277.338 102.764 276.77 103.202C276.207 103.634 275.784 104.222 275.5 104.966C275.222 105.705 275.082 106.534 275.082 107.455C275.082 108.386 275.224 109.233 275.509 109.994C275.798 110.75 276.224 111.352 276.787 111.801C277.355 112.244 278.06 112.466 278.901 112.466Z" fill="#282828"/>
<defs>
<radialGradient id="paint0_radial_10957_46282" cx="0" cy="0" r="1" gradientUnits="userSpaceOnUse" gradientTransform="translate(195) rotate(90) scale(37.0878 205.901)">
<stop stop-color="white"/>
<stop offset="1" stop-color="white" stop-opacity="0"/>
</radialGradient>
<radialGradient id="paint1_radial_10957_46282" cx="0" cy="0" r="1" gradientUnits="userSpaceOnUse" gradientTransform="translate(178 70) rotate(90) scale(44.7611 227.642)">
<stop stop-color="white"/>
<stop offset="1" stop-color="white" stop-opacity="0"/>
</radialGradient>
</defs>
</svg>
