<svg width="1440" height="622" viewBox="0 0 1440 622" fill="none" xmlns="http://www.w3.org/2000/svg">
<g clip-path="url(#clip0_11252_11658)">
<rect width="1440" height="622" fill="#030303"/>
<path opacity="0.5" d="M-55.9438 54.5089L76.0145 428.68H81.2234L213.182 54.5089H269.611L106.4 499H50.8382L-112.373 54.5089H-55.9438ZM318.879 499H262.449L425.661 54.5089H481.222L644.434 499H588.004L455.178 124.829H451.705L318.879 499ZM339.714 325.371H567.169V373.119H339.714V325.371ZM1066.14 54.5089V499H1014.05L771.834 150.005H767.493V499H713.668V54.5089H765.757L1008.84 404.372H1013.18V54.5089H1066.14ZM1149.53 102.257V54.5089H1482.9V102.257H1343.13V499H1289.3V102.257H1149.53Z" fill="white"/>
</g>
<defs>
<clipPath id="clip0_11252_11658">
<rect width="1440" height="622" fill="white"/>
</clipPath>
</defs>
</svg>
