<svg width="488" height="500" viewBox="0 0 488 500" fill="none" xmlns="http://www.w3.org/2000/svg">
<g clip-path="url(#clip0_11476_43570)">
<rect width="488" height="500" rx="40" fill="#32AE4C"/>
<path d="M-20.7059 -25H-56V7.7381M-20.7059 -25V7.7381M-20.7059 -25H14.5882M-20.7059 7.7381H-56M-20.7059 7.7381H14.5882M-20.7059 7.7381V40.4762M-56 7.7381V40.4762M14.5882 -25V7.7381M14.5882 -25H49.8824M14.5882 7.7381H49.8824M14.5882 7.7381V40.4762M49.8824 -25V7.7381M49.8824 -25H85.1765M49.8824 7.7381H85.1765M49.8824 7.7381V40.4762M85.1765 -25V7.7381M85.1765 -25H120.471M85.1765 7.7381H120.471M85.1765 7.7381V40.4762M120.471 -25V7.7381M120.471 -25H155.765M120.471 7.7381H155.765M120.471 7.7381V40.4762M155.765 -25V7.7381M155.765 -25H191.059M155.765 7.7381H191.059M155.765 7.7381V40.4762M191.059 -25V7.7381M191.059 -25H226.353M191.059 7.7381H226.353M191.059 7.7381V40.4762M226.353 -25V7.7381M226.353 -25H261.647M226.353 7.7381H261.647M226.353 7.7381V40.4762M261.647 -25V7.7381M261.647 -25H296.941M261.647 7.7381H296.941M261.647 7.7381V40.4762M296.941 -25V7.7381M296.941 -25H332.235M296.941 7.7381H332.235M296.941 7.7381V40.4762M332.235 -25V7.7381M332.235 -25H367.529M332.235 7.7381H367.529M332.235 7.7381V40.4762M367.529 -25V7.7381M367.529 -25H402.824M367.529 7.7381H402.824M367.529 7.7381V40.4762M402.824 -25V7.7381M402.824 -25H438.118M402.824 7.7381H438.118M402.824 7.7381V40.4762M438.118 -25V7.7381M438.118 -25H473.412M438.118 7.7381H473.412M438.118 7.7381V40.4762M473.412 -25V7.7381M473.412 -25H508.706M473.412 7.7381H508.706M473.412 7.7381V40.4762M508.706 -25V7.7381M508.706 -25H544V7.7381M508.706 7.7381H544M508.706 7.7381V40.4762M544 7.7381V40.4762M-20.7059 40.4762H-56M-20.7059 40.4762H14.5882M-20.7059 40.4762V73.2143M-56 40.4762V73.2143M14.5882 40.4762H49.8824M14.5882 40.4762V73.2143M49.8824 40.4762H85.1765M49.8824 40.4762V73.2143M85.1765 40.4762H120.471M85.1765 40.4762V73.2143M120.471 40.4762H155.765M120.471 40.4762V73.2143M155.765 40.4762H191.059M155.765 40.4762V73.2143M191.059 40.4762H226.353M191.059 40.4762V73.2143M226.353 40.4762H261.647M226.353 40.4762V73.2143M261.647 40.4762H296.941M261.647 40.4762V73.2143M296.941 40.4762H332.235M296.941 40.4762V73.2143M332.235 40.4762H367.529M332.235 40.4762V73.2143M367.529 40.4762H402.824M367.529 40.4762V73.2143M402.824 40.4762H438.118M402.824 40.4762V73.2143M438.118 40.4762H473.412M438.118 40.4762V73.2143M473.412 40.4762H508.706M473.412 40.4762V73.2143M508.706 40.4762H544M508.706 40.4762V73.2143M544 40.4762V73.2143M-20.7059 73.2143H-56M-20.7059 73.2143H14.5882M-20.7059 73.2143V105.952M-56 73.2143V105.952M14.5882 73.2143H49.8824M14.5882 73.2143V105.952M49.8824 73.2143H85.1765M49.8824 73.2143V105.952M85.1765 73.2143H120.471M85.1765 73.2143V105.952M120.471 73.2143H155.765M120.471 73.2143V105.952M155.765 73.2143H191.059M155.765 73.2143V105.952M191.059 73.2143H226.353M191.059 73.2143V105.952M226.353 73.2143H261.647M226.353 73.2143V105.952M261.647 73.2143H296.941M261.647 73.2143V105.952M296.941 73.2143H332.235M296.941 73.2143V105.952M332.235 73.2143H367.529M332.235 73.2143V105.952M367.529 73.2143H402.824M367.529 73.2143V105.952M402.824 73.2143H438.118M402.824 73.2143V105.952M438.118 73.2143H473.412M438.118 73.2143V105.952M473.412 73.2143H508.706M473.412 73.2143V105.952M508.706 73.2143H544M508.706 73.2143V105.952M544 73.2143V105.952M-20.7059 105.952H-56M-20.7059 105.952H14.5882M-20.7059 105.952V138.69M-56 105.952V138.69M14.5882 105.952H49.8824M14.5882 105.952V138.69M49.8824 105.952H85.1765M49.8824 105.952V138.69M85.1765 105.952H120.471M85.1765 105.952V138.69M120.471 105.952H155.765M120.471 105.952V138.69M155.765 105.952H191.059M155.765 105.952V138.69M191.059 105.952H226.353M191.059 105.952V138.69M226.353 105.952H261.647M226.353 105.952V138.69M261.647 105.952H296.941M261.647 105.952V138.69M296.941 105.952H332.235M296.941 105.952V138.69M332.235 105.952H367.529M332.235 105.952V138.69M367.529 105.952H402.824M367.529 105.952V138.69M402.824 105.952H438.118M402.824 105.952V138.69M438.118 105.952H473.412M438.118 105.952V138.69M473.412 105.952H508.706M473.412 105.952V138.69M508.706 105.952H544M508.706 105.952V138.69M544 105.952V138.69M-20.7059 138.69H-56M-20.7059 138.69H14.5882M-20.7059 138.69V171.429M-56 138.69V171.429M14.5882 138.69H49.8824M14.5882 138.69V171.429M49.8824 138.69H85.1765M49.8824 138.69V171.429M85.1765 138.69H120.471M85.1765 138.69V171.429M120.471 138.69H155.765M120.471 138.69V171.429M155.765 138.69H191.059M155.765 138.69V171.429M191.059 138.69H226.353M191.059 138.69V171.429M226.353 138.69H261.647M226.353 138.69V171.429M261.647 138.69H296.941M261.647 138.69V171.429M296.941 138.69H332.235M296.941 138.69V171.429M332.235 138.69H367.529M332.235 138.69V171.429M367.529 138.69H402.824M367.529 138.69V171.429M402.824 138.69H438.118M402.824 138.69V171.429M438.118 138.69H473.412M438.118 138.69V171.429M473.412 138.69H508.706M473.412 138.69V171.429M508.706 138.69H544M508.706 138.69V171.429M544 138.69V171.429M-20.7059 171.429H-56M-20.7059 171.429H14.5882M-20.7059 171.429V204.167M-56 171.429V204.167M14.5882 171.429H49.8824M14.5882 171.429V204.167M49.8824 171.429H85.1765M49.8824 171.429V204.167M85.1765 171.429H120.471M85.1765 171.429V204.167M120.471 171.429H155.765M120.471 171.429V204.167M155.765 171.429H191.059M155.765 171.429V204.167M191.059 171.429H226.353M191.059 171.429V204.167M226.353 171.429H261.647M226.353 171.429V204.167M261.647 171.429H296.941M261.647 171.429V204.167M296.941 171.429H332.235M296.941 171.429V204.167M332.235 171.429H367.529M332.235 171.429V204.167M367.529 171.429H402.824M367.529 171.429V204.167M402.824 171.429H438.118M402.824 171.429V204.167M438.118 171.429H473.412M438.118 171.429V204.167M473.412 171.429H508.706M473.412 171.429V204.167M508.706 171.429H544M508.706 171.429V204.167M544 171.429V204.167M-20.7059 204.167H-56M-20.7059 204.167H14.5882M-20.7059 204.167V236.905M-56 204.167V236.905M14.5882 204.167H49.8824M14.5882 204.167V236.905M49.8824 204.167H85.1765M49.8824 204.167V236.905M85.1765 204.167H120.471M85.1765 204.167V236.905M120.471 204.167H155.765M120.471 204.167V236.905M155.765 204.167H191.059M155.765 204.167V236.905M191.059 204.167H226.353M191.059 204.167V236.905M226.353 204.167H261.647M226.353 204.167V236.905M261.647 204.167H296.941M261.647 204.167V236.905M296.941 204.167H332.235M296.941 204.167V236.905M332.235 204.167H367.529M332.235 204.167V236.905M367.529 204.167H402.824M367.529 204.167V236.905M402.824 204.167H438.118M402.824 204.167V236.905M438.118 204.167H473.412M438.118 204.167V236.905M473.412 204.167H508.706M473.412 204.167V236.905M508.706 204.167H544M508.706 204.167V236.905M544 204.167V236.905M-20.7059 236.905H-56M-20.7059 236.905H14.5882M-20.7059 236.905V269.643M-56 236.905V269.643M14.5882 236.905H49.8824M14.5882 236.905V269.643M49.8824 236.905H85.1765M49.8824 236.905V269.643M85.1765 236.905H120.471M85.1765 236.905V269.643M120.471 236.905H155.765M120.471 236.905V269.643M155.765 236.905H191.059M155.765 236.905V269.643M191.059 236.905H226.353M191.059 236.905V269.643M226.353 236.905H261.647M226.353 236.905V269.643M261.647 236.905H296.941M261.647 236.905V269.643M296.941 236.905H332.235M296.941 236.905V269.643M332.235 236.905H367.529M332.235 236.905V269.643M367.529 236.905H402.824M367.529 236.905V269.643M402.824 236.905H438.118M402.824 236.905V269.643M438.118 236.905H473.412M438.118 236.905V269.643M473.412 236.905H508.706M473.412 236.905V269.643M508.706 236.905H544M508.706 236.905V269.643M544 236.905V269.643M-20.7059 269.643H-56M-20.7059 269.643H14.5882M-20.7059 269.643V302.381M-56 269.643V302.381M14.5882 269.643H49.8824M14.5882 269.643V302.381M49.8824 269.643H85.1765M49.8824 269.643V302.381M85.1765 269.643H120.471M85.1765 269.643V302.381M120.471 269.643H155.765M120.471 269.643V302.381M155.765 269.643H191.059M155.765 269.643V302.381M191.059 269.643H226.353M191.059 269.643V302.381M226.353 269.643H261.647M226.353 269.643V302.381M261.647 269.643H296.941M261.647 269.643V302.381M296.941 269.643H332.235M296.941 269.643V302.381M332.235 269.643H367.529M332.235 269.643V302.381M367.529 269.643H402.824M367.529 269.643V302.381M402.824 269.643H438.118M402.824 269.643V302.381M438.118 269.643H473.412M438.118 269.643V302.381M473.412 269.643H508.706M473.412 269.643V302.381M508.706 269.643H544M508.706 269.643V302.381M544 269.643V302.381M-20.7059 302.381H-56M-20.7059 302.381H14.5882M-20.7059 302.381V335.119M-56 302.381V335.119M14.5882 302.381H49.8824M14.5882 302.381V335.119M49.8824 302.381H85.1765M49.8824 302.381V335.119M85.1765 302.381H120.471M85.1765 302.381V335.119M120.471 302.381H155.765M120.471 302.381V335.119M155.765 302.381H191.059M155.765 302.381V335.119M191.059 302.381H226.353M191.059 302.381V335.119M226.353 302.381H261.647M226.353 302.381V335.119M261.647 302.381H296.941M261.647 302.381V335.119M296.941 302.381H332.235M296.941 302.381V335.119M332.235 302.381H367.529M332.235 302.381V335.119M367.529 302.381H402.824M367.529 302.381V335.119M402.824 302.381H438.118M402.824 302.381V335.119M438.118 302.381H473.412M438.118 302.381V335.119M473.412 302.381H508.706M473.412 302.381V335.119M508.706 302.381H544M508.706 302.381V335.119M544 302.381V335.119M-20.7059 335.119H-56M-20.7059 335.119H14.5882M-20.7059 335.119V367.857M-56 335.119V367.857H-20.7059M14.5882 335.119H49.8824M14.5882 335.119V367.857M49.8824 335.119H85.1765M49.8824 335.119V367.857M85.1765 335.119H120.471M85.1765 335.119V367.857M120.471 335.119H155.765M120.471 335.119V367.857M155.765 335.119H191.059M155.765 335.119V367.857M191.059 335.119H226.353M191.059 335.119V367.857M226.353 335.119H261.647M226.353 335.119V367.857M261.647 335.119H296.941M261.647 335.119V367.857M296.941 335.119H332.235M296.941 335.119V367.857M332.235 335.119H367.529M332.235 335.119V367.857M367.529 335.119H402.824M367.529 335.119V367.857M402.824 335.119H438.118M402.824 335.119V367.857M438.118 335.119H473.412M438.118 335.119V367.857M473.412 335.119H508.706M473.412 335.119V367.857M508.706 335.119H544M508.706 335.119V367.857M544 335.119V367.857H508.706M-20.7059 367.857H14.5882M14.5882 367.857H49.8824M49.8824 367.857H85.1765M85.1765 367.857H120.471M120.471 367.857H155.765M155.765 367.857H191.059M191.059 367.857H226.353M226.353 367.857H261.647M261.647 367.857H296.941M296.941 367.857H332.235M332.235 367.857H367.529M367.529 367.857H402.824M402.824 367.857H438.118M438.118 367.857H473.412M473.412 367.857H508.706" stroke="url(#paint0_radial_11476_43570)" stroke-opacity="0.2"/>
<rect y="225" width="488" height="275" fill="url(#paint1_linear_11476_43570)" fill-opacity="0.2"/>
</g>
<rect x="0.5" y="0.5" width="487" height="499" rx="39.5" stroke="white" stroke-opacity="0.04"/>
<rect x="0.5" y="0.5" width="487" height="499" rx="39.5" stroke="url(#paint2_linear_11476_43570)" stroke-opacity="0.12"/>
<defs>
<radialGradient id="paint0_radial_11476_43570" cx="0" cy="0" r="1" gradientUnits="userSpaceOnUse" gradientTransform="translate(244 181.922) rotate(90) scale(185.516 300.453)">
<stop stop-color="white"/>
<stop offset="1" stop-color="white" stop-opacity="0"/>
</radialGradient>
<linearGradient id="paint1_linear_11476_43570" x1="244" y1="225" x2="244" y2="500" gradientUnits="userSpaceOnUse">
<stop stop-color="#32AE4C" stop-opacity="0.02"/>
<stop offset="1" stop-color="#32AE4C"/>
</linearGradient>
<linearGradient id="paint2_linear_11476_43570" x1="244" y1="0" x2="244" y2="370.192" gradientUnits="userSpaceOnUse">
<stop stop-color="white"/>
<stop offset="1" stop-color="white" stop-opacity="0"/>
</linearGradient>
<clipPath id="clip0_11476_43570">
<rect width="488" height="500" rx="40" fill="white"/>
</clipPath>
</defs>
</svg>
