<svg width="268" height="174" viewBox="0 0 268 174" fill="none" xmlns="http://www.w3.org/2000/svg">
<rect width="79.5768" height="79.5768" rx="9.14676" fill="#202020"/>
<rect x="0.457338" y="0.457338" width="78.6621" height="78.6621" rx="8.68942" stroke="white" stroke-opacity="0.04" stroke-width="0.914676"/>
<rect x="0.457338" y="0.457338" width="78.6621" height="78.6621" rx="8.68942" stroke="url(#paint0_linear_11477_43652)" stroke-opacity="0.12" stroke-width="0.914676"/>
<path d="M32.1686 43.3438H28.098C26.421 43.3438 25.0488 44.7159 25.0488 46.3929V54.0158C25.0488 54.8544 25.7349 55.5404 26.5734 55.5404H32.1686C33.0072 55.5404 33.6932 54.8544 33.6932 54.0158V44.8683C33.6932 44.0298 33.0072 43.3438 32.1686 43.3438Z" fill="white"/>
<path d="M42.3229 37.2461H38.2523C36.5752 37.2461 35.2031 38.6182 35.2031 40.2953V54.0165C35.2031 54.855 35.8892 55.5411 36.7277 55.5411H43.8475C44.686 55.5411 45.3721 54.855 45.3721 54.0165V40.2953C45.3721 38.6182 44.0152 37.2461 42.3229 37.2461Z" fill="white"/>
<path d="M52.4917 47.918H48.4211C47.5825 47.918 46.8965 48.604 46.8965 49.4426V54.0163C46.8965 54.8548 47.5825 55.5409 48.4211 55.5409H54.0163C54.8548 55.5409 55.5409 54.8548 55.5409 54.0163V50.9671C55.5409 49.2901 54.1687 47.918 52.4917 47.918Z" fill="white"/>
<path d="M44.884 29.3925C45.3566 28.9198 45.5396 28.3557 45.3871 27.8679C45.2347 27.38 44.7621 27.0294 44.0912 26.9226L42.6276 26.6787C42.5667 26.6787 42.4294 26.572 42.3989 26.511L41.5909 24.8949C40.9811 23.66 39.5937 23.66 38.9839 24.8949L38.1759 26.511C38.1606 26.572 38.0234 26.6787 37.9624 26.6787L36.4988 26.9226C35.828 27.0294 35.3706 27.38 35.2029 27.8679C35.0505 28.3557 35.2334 28.9198 35.706 29.3925L36.8342 30.5359C36.8952 30.5816 36.9409 30.7646 36.9257 30.8256L36.6055 32.2282C36.3616 33.2801 36.758 33.7528 37.0172 33.9357C37.2763 34.1187 37.8404 34.3626 38.7704 33.8137L40.1426 33.0057C40.2035 32.96 40.4017 32.96 40.4627 33.0057L41.8196 33.8137C42.2465 34.0729 42.5971 34.1492 42.8716 34.1492C43.1917 34.1492 43.4204 34.0272 43.5576 33.9357C43.8168 33.7528 44.2132 33.2801 43.9693 32.2282L43.6491 30.8256C43.6339 30.7493 43.6796 30.5816 43.7406 30.5359L44.884 29.3925Z" fill="white"/>
<rect y="94.2109" width="79.5768" height="79.5768" rx="9.14676" fill="#202020"/>
<rect x="0.457338" y="94.6683" width="78.6621" height="78.6621" rx="8.68942" stroke="white" stroke-opacity="0.04" stroke-width="0.914676"/>
<rect x="0.457338" y="94.6683" width="78.6621" height="78.6621" rx="8.68942" stroke="url(#paint1_linear_11477_43652)" stroke-opacity="0.12" stroke-width="0.914676"/>
<path d="M34.6395 125.591C33.9992 125.591 33.4961 125.073 33.4961 124.448V120.194C33.4961 119.569 33.9992 119.051 34.6395 119.051C35.2799 119.051 35.783 119.569 35.783 120.194V124.433C35.783 125.073 35.2799 125.591 34.6395 125.591Z" fill="white"/>
<path d="M45.952 125.591C45.3117 125.591 44.8086 125.073 44.8086 124.448V120.194C44.8086 119.554 45.327 119.051 45.952 119.051C46.5924 119.051 47.0955 119.569 47.0955 120.194V124.433C47.0955 125.073 46.5924 125.591 45.952 125.591Z" fill="white"/>
<path d="M51.8352 122.861C50.829 122.113 49.3806 122.83 49.3806 124.095V124.248C49.3806 126.032 48.1 127.678 46.3162 127.861C44.258 128.075 42.52 126.459 42.52 124.446V122.861C42.52 122.022 41.8339 121.336 40.9954 121.336H39.5928C38.7543 121.336 38.0682 122.022 38.0682 122.861V124.446C38.0682 125.651 37.4431 126.718 36.4979 127.312C36.3607 127.404 36.2082 127.48 36.0557 127.556C35.9185 127.632 35.7661 127.693 35.5984 127.739C35.4154 127.8 35.2172 127.846 35.0038 127.861C34.7599 127.892 34.5159 127.892 34.272 127.861C34.0585 127.846 33.8603 127.8 33.6774 127.739C33.5249 127.693 33.3725 127.632 33.22 127.556C33.0676 127.48 32.9151 127.404 32.7779 127.312C31.8174 126.641 31.2076 125.483 31.2076 124.248V124.095C31.2076 122.922 29.9574 122.22 28.9664 122.723C28.9512 122.739 28.9359 122.739 28.9207 122.754C28.8597 122.784 28.814 122.815 28.753 122.861C28.7073 122.906 28.6463 122.937 28.6005 122.982C28.1737 123.318 27.7925 123.699 27.4723 124.111C27.3046 124.294 27.1674 124.492 27.0455 124.69C27.0302 124.705 27.015 124.721 26.9997 124.751C26.8625 124.949 26.7405 125.178 26.6338 125.391C26.6033 125.422 26.5881 125.437 26.5881 125.468C26.4966 125.651 26.4051 125.833 26.3442 126.032C26.2984 126.108 26.2832 126.169 26.2527 126.245C26.1612 126.474 26.1002 126.702 26.0392 126.931C25.9783 127.145 25.9325 127.373 25.902 127.602C25.8715 127.77 25.8563 127.937 25.841 128.12C25.8258 128.334 25.8105 128.547 25.8105 128.761V142.116C25.8105 146.217 29.1341 149.541 33.2353 149.541H47.3529C51.454 149.541 54.7776 146.217 54.7776 142.116V128.761C54.7776 126.337 53.6189 124.217 51.8352 122.861ZM40.2941 142.558H33.22C32.5949 142.558 32.0766 142.04 32.0766 141.415C32.0766 140.774 32.5949 140.256 33.22 140.256H40.2941C40.9344 140.256 41.4375 140.774 41.4375 141.415C41.4375 142.04 40.9344 142.558 40.2941 142.558ZM44.5324 136.902H33.22C32.5949 136.902 32.0766 136.384 32.0766 135.758C32.0766 135.118 32.5949 134.6 33.22 134.6H44.5324C45.1728 134.6 45.6911 135.118 45.6911 135.758C45.6911 136.384 45.1728 136.902 44.5324 136.902Z" fill="white"/>
<rect x="94.2109" width="79.5768" height="79.5768" rx="9.14676" fill="#202020"/>
<rect x="94.6683" y="0.457338" width="78.6621" height="78.6621" rx="8.68942" stroke="white" stroke-opacity="0.04" stroke-width="0.914676"/>
<rect x="94.6683" y="0.457338" width="78.6621" height="78.6621" rx="8.68942" stroke="url(#paint2_linear_11477_43652)" stroke-opacity="0.12" stroke-width="0.914676"/>
<path d="M148.473 40.6445H143.168C141.674 40.6445 140.347 41.4678 139.676 42.8094L138.396 45.3402C138.091 45.9501 137.481 46.3312 136.81 46.3312H131.81C131.337 46.3312 130.666 46.2245 130.224 45.3402L128.943 42.8247C128.273 41.4983 126.931 40.6598 125.452 40.6598H120.116C119.521 40.6598 119.049 41.1324 119.049 41.727V46.6971C119.049 52.2314 122.372 55.5397 127.922 55.5397H140.698C145.927 55.5397 149.144 52.6735 149.54 47.5814V41.7117C149.54 41.1324 149.068 40.6445 148.473 40.6445Z" fill="white"/>
<path d="M135.438 27.8088L136.536 28.9065C136.764 29.1352 137.054 29.2419 137.344 29.2419C137.633 29.2419 137.923 29.1352 138.152 28.9065C138.594 28.4644 138.594 27.7326 138.152 27.2904L135.103 24.2413C135.087 24.226 135.072 24.226 135.072 24.2108C134.981 24.1193 134.859 24.0431 134.737 23.9821C134.722 23.9821 134.722 23.9821 134.706 23.9669C134.584 23.9211 134.462 23.9059 134.34 23.8906C134.295 23.8906 134.264 23.8906 134.218 23.8906C134.127 23.8906 134.035 23.9211 133.944 23.9516C133.898 23.9669 133.868 23.9821 133.837 23.9973C133.715 24.0583 133.593 24.1193 133.502 24.226L130.453 27.2752C130.011 27.7173 130.011 28.4491 130.453 28.8913C130.895 29.3334 131.627 29.3334 132.069 28.8913L133.166 27.7936V29.6231H135.453V27.8088H135.438Z" fill="white"/>
<path d="M149.54 38.4789V38.5399C149.205 38.4179 148.839 38.357 148.473 38.357H143.168C140.805 38.357 138.685 39.6681 137.633 41.772L136.49 44.0284H132.13L130.986 41.7873C129.934 39.6681 127.815 38.357 125.452 38.357H120.116C119.75 38.357 119.384 38.4179 119.049 38.5399V38.4789C119.049 32.9294 122.357 29.6211 127.907 29.6211H133.151V35.7194C133.151 36.3445 133.67 36.8629 134.295 36.8629C134.92 36.8629 135.438 36.3445 135.438 35.7194V29.6211H140.683C146.232 29.6211 149.54 32.9294 149.54 38.4789Z" fill="white"/>
<rect x="94.2109" y="94.2109" width="79.5768" height="79.5768" rx="9.14676" fill="#202020"/>
<rect x="94.6683" y="94.6683" width="78.6621" height="78.6621" rx="8.68942" stroke="white" stroke-opacity="0.04" stroke-width="0.914676"/>
<rect x="94.6683" y="94.6683" width="78.6621" height="78.6621" rx="8.68942" stroke="url(#paint3_linear_11477_43652)" stroke-opacity="0.12" stroke-width="0.914676"/>
<path d="M131.627 131.291C131.627 132.114 131.856 132.236 132.374 132.419L133.152 132.693V130.102H132.694C132.115 130.102 131.627 130.635 131.627 131.291Z" fill="white"/>
<path d="M135.438 138.486H135.895C136.489 138.486 136.962 137.953 136.962 137.297C136.962 136.474 136.733 136.352 136.215 136.169L135.438 135.895V138.486Z" fill="white"/>
<path d="M145.851 124.356L142.726 127.482C142.497 127.71 142.207 127.817 141.918 127.817C141.628 127.817 141.338 127.71 141.11 127.482C140.667 127.04 140.667 126.308 141.11 125.866L144.235 122.74C141.552 120.453 138.091 119.051 134.295 119.051C125.879 119.051 119.049 125.881 119.049 134.297C119.049 142.712 125.879 149.542 134.295 149.542C142.71 149.542 149.54 142.712 149.54 134.297C149.54 130.5 148.138 127.04 145.851 124.356ZM136.963 134.022C137.938 134.373 139.25 135.074 139.25 137.315C139.25 139.221 137.74 140.791 135.895 140.791H135.438V141.172C135.438 141.798 134.92 142.316 134.295 142.316C133.67 142.316 133.151 141.798 133.151 141.172V140.791H133.029C131.002 140.791 129.34 139.084 129.34 136.98C129.34 136.34 129.858 135.821 130.483 135.821C131.108 135.821 131.627 136.34 131.627 136.965C131.627 137.803 132.252 138.489 133.029 138.489H133.151V135.105L131.627 134.571C130.651 134.22 129.34 133.519 129.34 131.278C129.34 129.372 130.849 127.802 132.694 127.802H133.151V127.436C133.151 126.811 133.67 126.293 134.295 126.293C134.92 126.293 135.438 126.811 135.438 127.436V127.817H135.56C137.588 127.817 139.25 129.525 139.25 131.629C139.25 132.254 138.731 132.772 138.106 132.772C137.481 132.772 136.963 132.254 136.963 131.629C136.963 130.79 136.338 130.104 135.56 130.104H135.438V133.489L136.963 134.022Z" fill="white"/>
<path d="M150.593 118.608C150.471 118.333 150.257 118.104 149.967 117.982C149.83 117.937 149.693 117.906 149.541 117.906H143.442C142.817 117.906 142.299 118.425 142.299 119.05C142.299 119.675 142.817 120.193 143.442 120.193H146.781L144.235 122.739C144.814 123.242 145.348 123.776 145.851 124.355L148.397 121.809V125.148C148.397 125.773 148.916 126.291 149.541 126.291C150.166 126.291 150.684 125.773 150.684 125.148V119.05C150.684 118.897 150.654 118.76 150.593 118.608Z" fill="white"/>
<rect x="188.424" width="79.5768" height="79.5768" rx="9.14676" fill="#202020"/>
<rect x="188.881" y="0.457338" width="78.6621" height="78.6621" rx="8.68942" stroke="white" stroke-opacity="0.04" stroke-width="0.914676"/>
<rect x="188.881" y="0.457338" width="78.6621" height="78.6621" rx="8.68942" stroke="url(#paint4_linear_11477_43652)" stroke-opacity="0.12" stroke-width="0.914676"/>
<path d="M235.918 27.3359H220.672C216.098 27.3359 213.049 29.6228 213.049 34.9589V45.6309C213.049 50.967 216.098 53.2539 220.672 53.2539H235.918C240.491 53.2539 243.54 50.967 243.54 45.6309V34.9589C243.54 29.6228 240.491 27.3359 235.918 27.3359ZM222.196 49.0612H217.623C216.997 49.0612 216.479 48.5429 216.479 47.9178C216.479 47.2927 216.997 46.7744 217.623 46.7744H222.196C222.821 46.7744 223.34 47.2927 223.34 47.9178C223.34 48.5429 222.821 49.0612 222.196 49.0612ZM228.295 44.8686C225.764 44.8686 223.721 42.8257 223.721 40.2949C223.721 37.7641 225.764 35.7211 228.295 35.7211C230.825 35.7211 232.868 37.7641 232.868 40.2949C232.868 42.8257 230.825 44.8686 228.295 44.8686ZM238.967 33.8154H234.393C233.768 33.8154 233.25 33.2971 233.25 32.672C233.25 32.0469 233.768 31.5285 234.393 31.5285H238.967C239.592 31.5285 240.11 32.0469 240.11 32.672C240.11 33.2971 239.592 33.8154 238.967 33.8154Z" fill="white"/>
<rect x="188.424" y="94.2109" width="79.5768" height="79.5768" rx="9.14676" fill="#202020"/>
<rect x="188.881" y="94.6683" width="78.6621" height="78.6621" rx="8.68942" stroke="white" stroke-opacity="0.04" stroke-width="0.914676"/>
<rect x="188.881" y="94.6683" width="78.6621" height="78.6621" rx="8.68942" stroke="url(#paint5_linear_11477_43652)" stroke-opacity="0.12" stroke-width="0.914676"/>
<path d="M236.726 127.848C236.62 127.832 236.513 127.832 236.406 127.848C234.043 127.771 232.168 125.835 232.168 123.457C232.168 121.033 234.135 119.051 236.574 119.051C238.998 119.051 240.98 121.017 240.98 123.457C240.965 125.835 239.09 127.771 236.726 127.848Z" fill="white"/>
<path d="M241.697 138.412C239.989 139.555 237.595 139.982 235.385 139.693C235.964 138.443 236.269 137.055 236.284 135.592C236.284 134.067 235.949 132.619 235.309 131.353C237.565 131.048 239.959 131.475 241.681 132.619C244.09 134.204 244.09 136.811 241.697 138.412Z" fill="white"/>
<path d="M219.818 127.848C219.925 127.832 220.032 127.832 220.139 127.848C222.502 127.771 224.377 125.835 224.377 123.457C224.377 121.017 222.41 119.051 219.971 119.051C217.547 119.051 215.58 121.017 215.58 123.457C215.58 125.835 217.455 127.771 219.818 127.848Z" fill="white"/>
<path d="M219.985 135.592C219.985 137.071 220.306 138.473 220.885 139.739C218.735 139.967 216.494 139.51 214.848 138.428C212.439 136.827 212.439 134.22 214.848 132.619C216.479 131.521 218.781 131.079 220.946 131.323C220.321 132.604 219.985 134.052 219.985 135.592Z" fill="white"/>
<path d="M228.478 140.197C228.356 140.181 228.219 140.181 228.082 140.197C225.276 140.105 223.035 137.803 223.035 134.967C223.05 132.071 225.383 129.723 228.295 129.723C231.192 129.723 233.54 132.071 233.54 134.967C233.524 137.803 231.298 140.105 228.478 140.197Z" fill="white"/>
<path d="M223.523 143.35C221.221 144.89 221.221 147.421 223.523 148.945C226.146 150.699 230.445 150.699 233.067 148.945C235.369 147.406 235.369 144.875 233.067 143.35C230.46 141.597 226.161 141.597 223.523 143.35Z" fill="white"/>
<defs>
<linearGradient id="paint0_linear_11477_43652" x1="39.7884" y1="0" x2="39.7884" y2="58.9174" gradientUnits="userSpaceOnUse">
<stop stop-color="white"/>
<stop offset="1" stop-color="white" stop-opacity="0"/>
</linearGradient>
<linearGradient id="paint1_linear_11477_43652" x1="39.7884" y1="94.2109" x2="39.7884" y2="153.128" gradientUnits="userSpaceOnUse">
<stop stop-color="white"/>
<stop offset="1" stop-color="white" stop-opacity="0"/>
</linearGradient>
<linearGradient id="paint2_linear_11477_43652" x1="133.999" y1="0" x2="133.999" y2="58.9174" gradientUnits="userSpaceOnUse">
<stop stop-color="white"/>
<stop offset="1" stop-color="white" stop-opacity="0"/>
</linearGradient>
<linearGradient id="paint3_linear_11477_43652" x1="133.999" y1="94.2109" x2="133.999" y2="153.128" gradientUnits="userSpaceOnUse">
<stop stop-color="white"/>
<stop offset="1" stop-color="white" stop-opacity="0"/>
</linearGradient>
<linearGradient id="paint4_linear_11477_43652" x1="228.212" y1="0" x2="228.212" y2="58.9174" gradientUnits="userSpaceOnUse">
<stop stop-color="white"/>
<stop offset="1" stop-color="white" stop-opacity="0"/>
</linearGradient>
<linearGradient id="paint5_linear_11477_43652" x1="228.212" y1="94.2109" x2="228.212" y2="153.128" gradientUnits="userSpaceOnUse">
<stop stop-color="white"/>
<stop offset="1" stop-color="white" stop-opacity="0"/>
</linearGradient>
</defs>
</svg>
