<svg width="30" height="31" viewBox="0 0 30 31" fill="none" xmlns="http://www.w3.org/2000/svg">
<path d="M9.59687 2.76172C5.29487 2.76172 1.79688 6.25972 1.79688 10.5617L1.79688 21.3617C1.79688 25.6637 5.29487 29.1617 9.59687 29.1617L20.3969 29.1617C24.6989 29.1617 28.1969 25.6637 28.1969 21.3617L28.1969 10.5617C28.1969 6.25972 24.6989 2.76172 20.3969 2.76172L9.59687 2.76172ZM22.1969 7.56172C22.8569 7.56172 23.3969 8.10172 23.3969 8.76172C23.3969 9.42172 22.8569 9.96172 22.1969 9.96172C21.5369 9.96172 20.9969 9.42172 20.9969 8.76172C20.9969 8.10172 21.5369 7.56172 22.1969 7.56172ZM14.9969 9.36172C18.6389 9.36172 21.5969 12.3197 21.5969 15.9617C21.5969 19.6037 18.6389 22.5617 14.9969 22.5617C11.3549 22.5617 8.39687 19.6037 8.39687 15.9617C8.39687 12.3197 11.3549 9.36172 14.9969 9.36172ZM14.9969 10.5617C12.0209 10.5617 9.59687 12.9857 9.59687 15.9617C9.59687 18.9377 12.0209 21.3617 14.9969 21.3617C17.9729 21.3617 20.3969 18.9377 20.3969 15.9617C20.3969 12.9857 17.9729 10.5617 14.9969 10.5617Z" fill="#373738"/>
</svg>
