<svg width="23" height="23" viewBox="0 0 23 23" fill="none" xmlns="http://www.w3.org/2000/svg">
<path d="M4.99609 22.9609L-0.00390624 22.9609L-0.00390625 7.96094L4.99609 7.96094L4.99609 22.9609ZM2.49709 5.96094C1.11409 5.96094 -0.00390625 4.83994 -0.00390625 3.45994C-0.00390625 2.07994 1.11609 0.960937 2.49709 0.960937C3.87509 0.960937 4.99609 2.08194 4.99609 3.45994C4.99609 4.83994 3.87509 5.96094 2.49709 5.96094ZM22.9961 22.9609L18.1891 22.9609L18.1891 15.6609C18.1891 13.9199 18.1561 11.6809 15.6901 11.6809C13.1871 11.6809 12.8021 13.5769 12.8021 15.5349L12.8021 22.9609L7.99609 22.9609L7.99609 7.94994L12.6101 7.94994L12.6101 10.0009L12.6751 10.0009C13.3171 8.82094 14.8861 7.57694 17.2261 7.57694C22.0961 7.57694 22.9961 10.6859 22.9961 14.7279L22.9961 22.9609Z" fill="#373738"/>
</svg>
