<svg width="356" height="140" viewBox="0 0 356 140" fill="none" xmlns="http://www.w3.org/2000/svg">
<path d="M34 16C34 7.16345 41.1634 0 50 0H356V58H50C41.1634 58 34 50.8366 34 42V16Z" fill="#F2F1F1"/>
<path d="M50 0.5H355.5V57.5H50C41.4396 57.5 34.5 50.5604 34.5 42V16L34.5049 15.5996C34.7172 7.22424 41.5735 0.5 50 0.5Z" stroke="white" stroke-opacity="0.01"/>
<path d="M50 0.5H355.5V57.5H50C41.4396 57.5 34.5 50.5604 34.5 42V16L34.5049 15.5996C34.7172 7.22424 41.5735 0.5 50 0.5Z" stroke="url(#paint0_radial_11483_43801)" stroke-opacity="0.12"/>
<rect x="50" y="13" width="32" height="32" rx="8" fill="#2B4089"/>
<path d="M68.25 27.875H67.125V22.625H67.5C68.1962 22.625 68.8639 22.9016 69.3562 23.3938C69.8484 23.8861 70.125 24.5538 70.125 25.25C70.125 25.5484 70.2435 25.8345 70.4545 26.0455C70.6655 26.2565 70.9516 26.375 71.25 26.375C71.5484 26.375 71.8345 26.2565 72.0455 26.0455C72.2565 25.8345 72.375 25.5484 72.375 25.25C72.3735 23.9575 71.8594 22.7184 70.9455 21.8045C70.0316 20.8906 68.7925 20.3765 67.5 20.375H67.125V19.25C67.125 18.9516 67.0065 18.6655 66.7955 18.4545C66.5845 18.2435 66.2984 18.125 66 18.125C65.7016 18.125 65.4155 18.2435 65.2045 18.4545C64.9935 18.6655 64.875 18.9516 64.875 19.25V20.375H64.5C63.2071 20.375 61.9671 20.8886 61.0529 21.8029C60.1386 22.7171 59.625 23.9571 59.625 25.25C59.625 26.5429 60.1386 27.7829 61.0529 28.6971C61.9671 29.6114 63.2071 30.125 64.5 30.125H64.875V35.375H63.75C63.0538 35.375 62.3861 35.0984 61.8938 34.6062C61.4016 34.1139 61.125 33.4462 61.125 32.75C61.125 32.4516 61.0065 32.1655 60.7955 31.9545C60.5845 31.7435 60.2984 31.625 60 31.625C59.7016 31.625 59.4155 31.7435 59.2045 31.9545C58.9935 32.1655 58.875 32.4516 58.875 32.75C58.8765 34.0425 59.3906 35.2816 60.3045 36.1955C61.2184 37.1094 62.4575 37.6235 63.75 37.625H64.875V38.75C64.875 39.0484 64.9935 39.3345 65.2045 39.5455C65.4155 39.7565 65.7016 39.875 66 39.875C66.2984 39.875 66.5845 39.7565 66.7955 39.5455C67.0065 39.3345 67.125 39.0484 67.125 38.75V37.625H68.25C69.5429 37.625 70.7829 37.1114 71.6971 36.1971C72.6114 35.2829 73.125 34.0429 73.125 32.75C73.125 31.4571 72.6114 30.2171 71.6971 29.3029C70.7829 28.3886 69.5429 27.875 68.25 27.875ZM64.5 27.875C63.8038 27.875 63.1361 27.5984 62.6438 27.1062C62.1516 26.6139 61.875 25.9462 61.875 25.25C61.875 24.5538 62.1516 23.8861 62.6438 23.3938C63.1361 22.9016 63.8038 22.625 64.5 22.625H64.875V27.875H64.5ZM68.25 35.375H67.125V30.125H68.25C68.9462 30.125 69.6139 30.4016 70.1062 30.8938C70.5984 31.3861 70.875 32.0538 70.875 32.75C70.875 33.4462 70.5984 34.1139 70.1062 34.6062C69.6139 35.0984 68.9462 35.375 68.25 35.375Z" fill="white"/>
<path d="M98.9659 23.017V21.4545H109.875V23.017H105.301V36H103.54V23.017H98.9659ZM114.092 36.2557C113.401 36.2557 112.773 36.1255 112.21 35.8651C111.646 35.5999 111.199 35.2188 110.868 34.7216C110.536 34.2197 110.37 33.6136 110.37 32.9034C110.37 32.2784 110.493 31.7718 110.74 31.3835C110.986 30.9905 111.315 30.6828 111.727 30.4602C112.139 30.2377 112.593 30.072 113.091 29.9631C113.592 29.8494 114.097 29.7595 114.603 29.6932C115.266 29.608 115.804 29.544 116.216 29.5014C116.632 29.4541 116.935 29.3759 117.125 29.267C117.319 29.1581 117.416 28.9687 117.416 28.6989V28.642C117.416 27.9413 117.224 27.3968 116.841 27.0085C116.462 26.6203 115.886 26.4261 115.115 26.4261C114.315 26.4261 113.687 26.6013 113.233 26.9517C112.778 27.3021 112.458 27.6761 112.274 28.0739L110.683 27.5057C110.967 26.8428 111.346 26.3267 111.819 25.9574C112.297 25.5833 112.818 25.3229 113.382 25.1761C113.95 25.0246 114.509 24.9489 115.058 24.9489C115.408 24.9489 115.811 24.9915 116.265 25.0767C116.725 25.1572 117.167 25.3253 117.593 25.581C118.024 25.8366 118.382 26.2225 118.666 26.7386C118.95 27.2547 119.092 27.946 119.092 28.8125V36H117.416V34.5227H117.331C117.217 34.7595 117.028 35.0128 116.762 35.2827C116.497 35.5526 116.145 35.7822 115.704 35.9716C115.264 36.161 114.726 36.2557 114.092 36.2557ZM114.348 34.75C115.011 34.75 115.569 34.6198 116.024 34.3594C116.483 34.099 116.829 33.7628 117.061 33.3509C117.297 32.9389 117.416 32.5057 117.416 32.0511V30.517C117.345 30.6023 117.189 30.6804 116.947 30.7514C116.71 30.8177 116.436 30.8769 116.123 30.929C115.815 30.9763 115.515 31.0189 115.221 31.0568C114.932 31.09 114.698 31.1184 114.518 31.142C114.083 31.1989 113.675 31.2912 113.297 31.419C112.922 31.5421 112.619 31.7292 112.387 31.9801C112.16 32.2263 112.047 32.5625 112.047 32.9886C112.047 33.571 112.262 34.0114 112.693 34.3097C113.128 34.6032 113.68 34.75 114.348 34.75ZM122.151 36V25.0909H123.771V26.7386H123.884C124.083 26.1989 124.443 25.7609 124.964 25.4247C125.485 25.0885 126.072 24.9205 126.725 24.9205C126.848 24.9205 127.002 24.9228 127.187 24.9276C127.371 24.9323 127.511 24.9394 127.606 24.9489V26.6534C127.549 26.6392 127.419 26.6179 127.215 26.5895C127.016 26.5563 126.806 26.5398 126.583 26.5398C126.053 26.5398 125.579 26.651 125.163 26.8736C124.751 27.0914 124.424 27.3944 124.183 27.7827C123.946 28.1662 123.827 28.6042 123.827 29.0966V36H122.151ZM133.664 40.3182C132.854 40.3182 132.158 40.214 131.576 40.0057C130.994 39.8021 130.508 39.5322 130.12 39.196C129.737 38.8646 129.431 38.5095 129.204 38.1307L130.539 37.1932C130.691 37.392 130.882 37.6193 131.114 37.875C131.346 38.1354 131.664 38.3603 132.066 38.5497C132.473 38.7438 133.006 38.8409 133.664 38.8409C134.545 38.8409 135.272 38.6278 135.844 38.2017C136.417 37.7756 136.704 37.108 136.704 36.1989V33.983H136.562C136.439 34.1818 136.263 34.428 136.036 34.7216C135.814 35.0104 135.492 35.2685 135.07 35.4957C134.654 35.7183 134.09 35.8295 133.38 35.8295C132.499 35.8295 131.709 35.6212 131.008 35.2045C130.312 34.7879 129.76 34.1818 129.353 33.3864C128.951 32.5909 128.749 31.625 128.749 30.4886C128.749 29.3712 128.946 28.3982 129.339 27.5696C129.732 26.7363 130.279 26.0923 130.979 25.6378C131.68 25.1785 132.49 24.9489 133.408 24.9489C134.119 24.9489 134.682 25.0672 135.099 25.304C135.52 25.536 135.842 25.8011 136.065 26.0994C136.292 26.393 136.467 26.6345 136.59 26.8239H136.761V25.0909H138.38V36.3125C138.38 37.25 138.167 38.0123 137.741 38.5994C137.319 39.1913 136.751 39.6245 136.036 39.8991C135.326 40.1785 134.535 40.3182 133.664 40.3182ZM133.607 34.3239C134.28 34.3239 134.848 34.17 135.312 33.8622C135.776 33.5545 136.129 33.1117 136.37 32.5341C136.612 31.9564 136.732 31.2652 136.732 30.4602C136.732 29.6742 136.614 28.9806 136.377 28.3793C136.14 27.7779 135.79 27.3068 135.326 26.9659C134.862 26.625 134.289 26.4545 133.607 26.4545C132.897 26.4545 132.305 26.6345 131.832 26.9943C131.363 27.3542 131.01 27.8371 130.773 28.4432C130.541 29.0492 130.425 29.7216 130.425 30.4602C130.425 31.2178 130.544 31.8878 130.781 32.4702C131.022 33.0478 131.377 33.5024 131.846 33.8338C132.319 34.1605 132.906 34.3239 133.607 34.3239ZM146.022 36.2273C144.971 36.2273 144.064 35.9953 143.302 35.5312C142.544 35.0625 141.96 34.4091 141.548 33.571C141.14 32.7282 140.937 31.7481 140.937 30.6307C140.937 29.5133 141.14 28.5284 141.548 27.6761C141.96 26.8191 142.532 26.1515 143.266 25.6733C144.005 25.1903 144.867 24.9489 145.852 24.9489C146.42 24.9489 146.981 25.0436 147.535 25.233C148.089 25.4223 148.593 25.7301 149.048 26.1562C149.502 26.5777 149.864 27.1364 150.134 27.8324C150.404 28.5284 150.539 29.3854 150.539 30.4034V31.1136H142.13V29.6648H148.835C148.835 29.0492 148.711 28.5 148.465 28.017C148.224 27.5341 147.878 27.1529 147.428 26.8736C146.983 26.5942 146.458 26.4545 145.852 26.4545C145.184 26.4545 144.606 26.6203 144.119 26.9517C143.636 27.2784 143.264 27.7045 143.004 28.2301C142.743 28.7557 142.613 29.3191 142.613 29.9205V30.8864C142.613 31.7102 142.755 32.4086 143.039 32.9815C143.328 33.5497 143.728 33.983 144.239 34.2812C144.751 34.5748 145.345 34.7216 146.022 34.7216C146.462 34.7216 146.86 34.66 147.215 34.5369C147.575 34.4091 147.885 34.2197 148.146 33.9688C148.406 33.7131 148.607 33.3958 148.749 33.017L150.369 33.4716C150.198 34.0208 149.912 34.5038 149.509 34.9205C149.107 35.3324 148.61 35.6544 148.018 35.8864C147.426 36.1136 146.761 36.2273 146.022 36.2273ZM157.833 25.0909V26.5114H152.18V25.0909H157.833ZM153.827 22.4773H155.504V32.875C155.504 33.3485 155.572 33.7036 155.71 33.9403C155.852 34.1723 156.031 34.3286 156.249 34.4091C156.472 34.4848 156.706 34.5227 156.952 34.5227C157.137 34.5227 157.289 34.5133 157.407 34.4943C157.525 34.4706 157.62 34.4517 157.691 34.4375L158.032 35.9432C157.918 35.9858 157.76 36.0284 157.556 36.071C157.353 36.1184 157.094 36.142 156.782 36.142C156.308 36.142 155.844 36.0402 155.39 35.8366C154.94 35.633 154.566 35.3229 154.268 34.9062C153.974 34.4896 153.827 33.964 153.827 33.3295V22.4773ZM174.161 25.0909C174.076 24.3712 173.73 23.8125 173.124 23.4148C172.518 23.017 171.775 22.8182 170.894 22.8182C170.25 22.8182 169.687 22.9223 169.204 23.1307C168.726 23.339 168.352 23.6255 168.082 23.9901C167.817 24.3546 167.684 24.7689 167.684 25.233C167.684 25.6212 167.776 25.955 167.961 26.2344C168.15 26.509 168.392 26.7386 168.685 26.9233C168.979 27.1032 169.287 27.2524 169.609 27.3707C169.931 27.4844 170.227 27.5767 170.496 27.6477L171.974 28.0455C172.353 28.1449 172.774 28.2822 173.238 28.4574C173.707 28.6326 174.154 28.8717 174.58 29.1747C175.011 29.473 175.366 29.8565 175.646 30.3253C175.925 30.794 176.065 31.3693 176.065 32.0511C176.065 32.8371 175.859 33.5473 175.447 34.1818C175.04 34.8163 174.443 35.3205 173.657 35.6946C172.876 36.0687 171.926 36.2557 170.809 36.2557C169.767 36.2557 168.865 36.0876 168.103 35.7514C167.345 35.4152 166.749 34.9465 166.313 34.3452C165.882 33.7438 165.638 33.0455 165.582 32.25H167.4C167.447 32.7992 167.632 33.2538 167.954 33.6136C168.281 33.9687 168.692 34.2339 169.19 34.4091C169.692 34.5795 170.231 34.6648 170.809 34.6648C171.481 34.6648 172.085 34.5559 172.62 34.3381C173.155 34.1155 173.579 33.8078 173.891 33.4148C174.204 33.017 174.36 32.553 174.36 32.0227C174.36 31.5398 174.225 31.1468 173.955 30.8438C173.685 30.5407 173.33 30.2945 172.89 30.1051C172.45 29.9157 171.974 29.75 171.462 29.608L169.673 29.0966C168.536 28.7699 167.637 28.3035 166.974 27.6974C166.311 27.0914 165.979 26.2983 165.979 25.3182C165.979 24.5038 166.2 23.7936 166.64 23.1875C167.085 22.5767 167.682 22.1032 168.43 21.767C169.183 21.4261 170.023 21.2557 170.951 21.2557C171.888 21.2557 172.722 21.4238 173.451 21.7599C174.18 22.0914 174.758 22.5459 175.184 23.1236C175.615 23.7012 175.842 24.357 175.866 25.0909H174.161ZM181.944 36.2557C181.252 36.2557 180.625 36.1255 180.061 35.8651C179.498 35.5999 179.051 35.2188 178.719 34.7216C178.388 34.2197 178.222 33.6136 178.222 32.9034C178.222 32.2784 178.345 31.7718 178.591 31.3835C178.837 30.9905 179.167 30.6828 179.578 30.4602C179.99 30.2377 180.445 30.072 180.942 29.9631C181.444 29.8494 181.948 29.7595 182.455 29.6932C183.118 29.608 183.655 29.544 184.067 29.5014C184.484 29.4541 184.787 29.3759 184.976 29.267C185.17 29.1581 185.267 28.9687 185.267 28.6989V28.642C185.267 27.9413 185.076 27.3968 184.692 27.0085C184.313 26.6203 183.738 26.4261 182.966 26.4261C182.166 26.4261 181.539 26.6013 181.084 26.9517C180.63 27.3021 180.31 27.6761 180.125 28.0739L178.534 27.5057C178.819 26.8428 179.197 26.3267 179.671 25.9574C180.149 25.5833 180.67 25.3229 181.233 25.1761C181.801 25.0246 182.36 24.9489 182.909 24.9489C183.26 24.9489 183.662 24.9915 184.117 25.0767C184.576 25.1572 185.019 25.3253 185.445 25.581C185.876 25.8366 186.233 26.2225 186.517 26.7386C186.801 27.2547 186.944 27.946 186.944 28.8125V36H185.267V34.5227H185.182C185.069 34.7595 184.879 35.0128 184.614 35.2827C184.349 35.5526 183.996 35.7822 183.556 35.9716C183.115 36.161 182.578 36.2557 181.944 36.2557ZM182.199 34.75C182.862 34.75 183.421 34.6198 183.875 34.3594C184.335 34.099 184.68 33.7628 184.912 33.3509C185.149 32.9389 185.267 32.5057 185.267 32.0511V30.517C185.196 30.6023 185.04 30.6804 184.799 30.7514C184.562 30.8177 184.287 30.8769 183.975 30.929C183.667 30.9763 183.366 31.0189 183.073 31.0568C182.784 31.09 182.55 31.1184 182.37 31.142C181.934 31.1989 181.527 31.2912 181.148 31.419C180.774 31.5421 180.471 31.7292 180.239 31.9801C180.012 32.2263 179.898 32.5625 179.898 32.9886C179.898 33.571 180.114 34.0114 180.544 34.3097C180.98 34.6032 181.532 34.75 182.199 34.75ZM198.533 25.0909L194.499 36H192.794L188.76 25.0909H190.578L193.589 33.7841H193.703L196.714 25.0909H198.533ZM200.745 36V25.0909H202.421V36H200.745ZM201.597 23.2727C201.271 23.2727 200.989 23.1615 200.752 22.9389C200.52 22.7164 200.404 22.4489 200.404 22.1364C200.404 21.8239 200.52 21.5563 200.752 21.3338C200.989 21.1113 201.271 21 201.597 21C201.924 21 202.203 21.1113 202.435 21.3338C202.672 21.5563 202.79 21.8239 202.79 22.1364C202.79 22.4489 202.672 22.7164 202.435 22.9389C202.203 23.1615 201.924 23.2727 201.597 23.2727ZM207.167 29.4375V36H205.491V25.0909H207.11V26.7955H207.252C207.508 26.2415 207.896 25.7964 208.417 25.4602C208.938 25.1193 209.61 24.9489 210.434 24.9489C211.173 24.9489 211.819 25.1004 212.373 25.4034C212.927 25.7017 213.358 26.1562 213.666 26.767C213.974 27.3731 214.127 28.1402 214.127 29.0682V36H212.451V29.1818C212.451 28.3248 212.229 27.6572 211.784 27.179C211.339 26.696 210.728 26.4545 209.951 26.4545C209.416 26.4545 208.938 26.5705 208.517 26.8026C208.1 27.0346 207.771 27.3731 207.529 27.8182C207.288 28.2633 207.167 28.803 207.167 29.4375ZM221.594 40.3182C220.784 40.3182 220.088 40.214 219.506 40.0057C218.923 39.8021 218.438 39.5322 218.05 39.196C217.666 38.8646 217.361 38.5095 217.134 38.1307L218.469 37.1932C218.62 37.392 218.812 37.6193 219.044 37.875C219.276 38.1354 219.593 38.3603 219.996 38.5497C220.403 38.7438 220.936 38.8409 221.594 38.8409C222.474 38.8409 223.201 38.6278 223.774 38.2017C224.347 37.7756 224.634 37.108 224.634 36.1989V33.983H224.491C224.368 34.1818 224.193 34.428 223.966 34.7216C223.743 35.0104 223.421 35.2685 223 35.4957C222.583 35.7183 222.02 35.8295 221.31 35.8295C220.429 35.8295 219.638 35.6212 218.938 35.2045C218.241 34.7879 217.69 34.1818 217.283 33.3864C216.88 32.5909 216.679 31.625 216.679 30.4886C216.679 29.3712 216.875 28.3982 217.268 27.5696C217.661 26.7363 218.208 26.0923 218.909 25.6378C219.61 25.1785 220.42 24.9489 221.338 24.9489C222.048 24.9489 222.612 25.0672 223.028 25.304C223.45 25.536 223.772 25.8011 223.994 26.0994C224.222 26.393 224.397 26.6345 224.52 26.8239H224.69V25.0909H226.31V36.3125C226.31 37.25 226.097 38.0123 225.67 38.5994C225.249 39.1913 224.681 39.6245 223.966 39.8991C223.256 40.1785 222.465 40.3182 221.594 40.3182ZM221.537 34.3239C222.209 34.3239 222.777 34.17 223.241 33.8622C223.705 33.5545 224.058 33.1117 224.3 32.5341C224.541 31.9564 224.662 31.2652 224.662 30.4602C224.662 29.6742 224.544 28.9806 224.307 28.3793C224.07 27.7779 223.72 27.3068 223.256 26.9659C222.792 26.625 222.219 26.4545 221.537 26.4545C220.827 26.4545 220.235 26.6345 219.761 26.9943C219.293 27.3542 218.94 27.8371 218.703 28.4432C218.471 29.0492 218.355 29.7216 218.355 30.4602C218.355 31.2178 218.473 31.8878 218.71 32.4702C218.952 33.0478 219.307 33.5024 219.776 33.8338C220.249 34.1605 220.836 34.3239 221.537 34.3239ZM237.105 27.5341L235.599 27.9602C235.505 27.7093 235.365 27.4654 235.18 27.2287C235 26.9872 234.754 26.7884 234.442 26.6321C234.129 26.4759 233.729 26.3977 233.241 26.3977C232.574 26.3977 232.018 26.5516 231.572 26.8594C231.132 27.1624 230.912 27.5483 230.912 28.017C230.912 28.4337 231.063 28.7628 231.366 29.0043C231.67 29.2457 232.143 29.447 232.787 29.608L234.406 30.0057C235.382 30.2424 236.108 30.6046 236.587 31.0923C237.065 31.5753 237.304 32.1979 237.304 32.9602C237.304 33.5852 237.124 34.1439 236.764 34.6364C236.409 35.1288 235.912 35.517 235.273 35.8011C234.634 36.0852 233.89 36.2273 233.043 36.2273C231.93 36.2273 231.009 35.9858 230.28 35.5028C229.551 35.0199 229.089 34.3144 228.895 33.3864L230.486 32.9886C230.637 33.5758 230.924 34.0161 231.345 34.3097C231.771 34.6032 232.328 34.75 233.014 34.75C233.795 34.75 234.416 34.5843 234.875 34.2528C235.339 33.9167 235.571 33.5142 235.571 33.0455C235.571 32.6667 235.438 32.3494 235.173 32.0938C234.908 31.8333 234.501 31.6392 233.952 31.5114L232.134 31.0852C231.134 30.8485 230.401 30.4815 229.932 29.9844C229.468 29.4825 229.236 28.8551 229.236 28.1023C229.236 27.4867 229.409 26.9422 229.754 26.4688C230.105 25.9953 230.58 25.6236 231.182 25.3537C231.788 25.0838 232.474 24.9489 233.241 24.9489C234.321 24.9489 235.169 25.1856 235.784 25.6591C236.404 26.1326 236.845 26.7576 237.105 27.5341Z" fill="#282828"/>
<path d="M0 86C0 77.1634 7.16344 70 16 70H356V140H16C7.16344 140 0 132.837 0 124V86Z" fill="#F2F1F1"/>
<path d="M16 70.5H355.5V139.5H16C7.43959 139.5 0.5 132.56 0.5 124V86C0.5 77.4396 7.43959 70.5 16 70.5Z" stroke="white" stroke-opacity="0.01"/>
<path d="M16 70.5H355.5V139.5H16C7.43959 139.5 0.5 132.56 0.5 124V86C0.5 77.4396 7.43959 70.5 16 70.5Z" stroke="url(#paint1_radial_11483_43801)" stroke-opacity="0.12"/>
<rect x="16" y="87.5" width="35" height="35" rx="8" fill="#2B892E"/>
<path d="M40.375 113.001C40.375 113.299 40.2565 113.585 40.0455 113.796C39.8345 114.007 39.5484 114.126 39.25 114.126H27.25C26.9516 114.126 26.6655 114.007 26.4545 113.796C26.2435 113.585 26.125 113.299 26.125 113.001C26.125 112.702 26.2435 112.416 26.4545 112.205C26.6655 111.994 26.9516 111.876 27.25 111.876H27.625C28.2217 111.876 28.794 111.639 29.216 111.217C29.6379 110.795 29.875 110.222 29.875 109.626V106.626H27.25C26.9516 106.626 26.6655 106.507 26.4545 106.296C26.2435 106.085 26.125 105.799 26.125 105.501C26.125 105.202 26.2435 104.916 26.4545 104.705C26.6655 104.494 26.9516 104.376 27.25 104.376H29.875V101.376C29.8749 100.38 30.1579 99.4049 30.6909 98.564C31.224 97.7231 31.9852 97.0512 32.8857 96.6265C33.7863 96.2018 34.789 96.042 35.7769 96.1656C36.7648 96.2893 37.6972 96.6913 38.4653 97.3247C38.6954 97.5147 38.8407 97.7883 38.8691 98.0853C38.8974 98.3824 38.8067 98.6785 38.6167 98.9086C38.4268 99.1387 38.1532 99.284 37.8561 99.3124C37.5591 99.3408 37.2629 99.25 37.0328 99.06C36.4969 98.6151 35.8215 98.3729 35.125 98.3757C34.3294 98.3757 33.5663 98.6917 33.0037 99.2543C32.4411 99.8169 32.125 100.58 32.125 101.376V104.376H34.75C35.0484 104.376 35.3345 104.494 35.5455 104.705C35.7565 104.916 35.875 105.202 35.875 105.501C35.875 105.799 35.7565 106.085 35.5455 106.296C35.3345 106.507 35.0484 106.626 34.75 106.626H32.125V109.626C32.1259 110.416 31.9176 111.192 31.5212 111.876H39.25C39.5484 111.876 39.8345 111.994 40.0455 112.205C40.2565 112.416 40.375 112.702 40.375 113.001Z" fill="white"/>
<path d="M71.2273 96.5455V114H69.1136V96.5455H71.2273ZM77.2038 106.125V114H75.1925V100.909H77.1357V102.955H77.3061C77.6129 102.29 78.0788 101.756 78.7038 101.352C79.3288 100.943 80.1357 100.739 81.1243 100.739C82.0107 100.739 82.7862 100.92 83.451 101.284C84.1158 101.642 84.6328 102.188 85.0021 102.92C85.3714 103.648 85.5561 104.568 85.5561 105.682V114H83.5447V105.818C83.5447 104.79 83.2777 103.989 82.7436 103.415C82.2095 102.835 81.4766 102.545 80.5447 102.545C79.9027 102.545 79.3288 102.685 78.8232 102.963C78.3232 103.241 77.9283 103.648 77.6385 104.182C77.3487 104.716 77.2038 105.364 77.2038 106.125ZM98.5043 103.841L96.6974 104.352C96.5838 104.051 96.4162 103.759 96.1946 103.474C95.9787 103.185 95.6832 102.946 95.3082 102.759C94.9332 102.571 94.4531 102.477 93.8679 102.477C93.0668 102.477 92.3991 102.662 91.8651 103.031C91.3366 103.395 91.0724 103.858 91.0724 104.42C91.0724 104.92 91.2543 105.315 91.6179 105.605C91.9815 105.895 92.5497 106.136 93.3224 106.33L95.2656 106.807C96.4361 107.091 97.3082 107.526 97.8821 108.111C98.456 108.69 98.7429 109.437 98.7429 110.352C98.7429 111.102 98.527 111.773 98.0952 112.364C97.669 112.955 97.0724 113.42 96.3054 113.761C95.5384 114.102 94.6463 114.273 93.6293 114.273C92.294 114.273 91.1889 113.983 90.3139 113.403C89.4389 112.824 88.8849 111.977 88.652 110.864L90.5611 110.386C90.7429 111.091 91.0866 111.619 91.5923 111.972C92.1037 112.324 92.7713 112.5 93.5952 112.5C94.5327 112.5 95.277 112.301 95.8281 111.903C96.3849 111.5 96.6634 111.017 96.6634 110.455C96.6634 110 96.5043 109.619 96.1861 109.312C95.8679 109 95.3793 108.767 94.7202 108.614L92.5384 108.102C91.3395 107.818 90.4588 107.378 89.8963 106.781C89.3395 106.179 89.0611 105.426 89.0611 104.523C89.0611 103.784 89.2685 103.131 89.6832 102.562C90.1037 101.994 90.6747 101.548 91.3963 101.224C92.1236 100.901 92.9474 100.739 93.8679 100.739C95.1634 100.739 96.1804 101.023 96.919 101.591C97.6634 102.159 98.1918 102.909 98.5043 103.841ZM107.464 100.909V102.614H100.68V100.909H107.464ZM102.657 97.7727H104.668V110.25C104.668 110.818 104.751 111.244 104.915 111.528C105.086 111.807 105.302 111.994 105.563 112.091C105.83 112.182 106.112 112.227 106.407 112.227C106.629 112.227 106.81 112.216 106.952 112.193C107.094 112.165 107.208 112.142 107.293 112.125L107.702 113.932C107.566 113.983 107.376 114.034 107.131 114.085C106.887 114.142 106.577 114.17 106.202 114.17C105.634 114.17 105.077 114.048 104.532 113.804C103.992 113.56 103.543 113.188 103.185 112.688C102.833 112.188 102.657 111.557 102.657 110.795V97.7727ZM114.342 114.307C113.512 114.307 112.759 114.151 112.083 113.838C111.407 113.52 110.87 113.062 110.472 112.466C110.075 111.864 109.876 111.136 109.876 110.284C109.876 109.534 110.023 108.926 110.319 108.46C110.614 107.989 111.009 107.619 111.504 107.352C111.998 107.085 112.543 106.886 113.14 106.756C113.742 106.619 114.347 106.511 114.955 106.432C115.751 106.33 116.396 106.253 116.89 106.202C117.39 106.145 117.754 106.051 117.981 105.92C118.214 105.79 118.33 105.562 118.33 105.239V105.17C118.33 104.33 118.1 103.676 117.64 103.21C117.185 102.744 116.495 102.511 115.569 102.511C114.609 102.511 113.856 102.722 113.31 103.142C112.765 103.562 112.381 104.011 112.16 104.489L110.251 103.807C110.592 103.011 111.046 102.392 111.614 101.949C112.188 101.5 112.813 101.187 113.489 101.011C114.171 100.83 114.842 100.739 115.501 100.739C115.921 100.739 116.404 100.79 116.95 100.892C117.501 100.989 118.032 101.19 118.543 101.497C119.06 101.804 119.489 102.267 119.83 102.886C120.171 103.506 120.342 104.335 120.342 105.375V114H118.33V112.227H118.228C118.092 112.511 117.864 112.815 117.546 113.139C117.228 113.463 116.805 113.739 116.276 113.966C115.748 114.193 115.103 114.307 114.342 114.307ZM114.648 112.5C115.444 112.5 116.114 112.344 116.66 112.031C117.211 111.719 117.626 111.315 117.904 110.821C118.188 110.327 118.33 109.807 118.33 109.261V107.42C118.245 107.523 118.058 107.616 117.768 107.702C117.484 107.781 117.154 107.852 116.779 107.915C116.41 107.972 116.049 108.023 115.697 108.068C115.35 108.108 115.069 108.142 114.853 108.17C114.33 108.239 113.842 108.349 113.387 108.503C112.938 108.651 112.575 108.875 112.296 109.176C112.023 109.472 111.887 109.875 111.887 110.386C111.887 111.085 112.146 111.614 112.663 111.972C113.185 112.324 113.847 112.5 114.648 112.5ZM126.024 106.125V114H124.013V100.909H125.956V102.955H126.126C126.433 102.29 126.899 101.756 127.524 101.352C128.149 100.943 128.956 100.739 129.945 100.739C130.831 100.739 131.607 100.92 132.271 101.284C132.936 101.642 133.453 102.188 133.822 102.92C134.192 103.648 134.376 104.568 134.376 105.682V114H132.365V105.818C132.365 104.79 132.098 103.989 131.564 103.415C131.03 102.835 130.297 102.545 129.365 102.545C128.723 102.545 128.149 102.685 127.643 102.963C127.143 103.241 126.749 103.648 126.459 104.182C126.169 104.716 126.024 105.364 126.024 106.125ZM143.745 100.909V102.614H136.961V100.909H143.745ZM138.938 97.7727H140.95V110.25C140.95 110.818 141.032 111.244 141.197 111.528C141.367 111.807 141.583 111.994 141.844 112.091C142.112 112.182 142.393 112.227 142.688 112.227C142.91 112.227 143.092 112.216 143.234 112.193C143.376 112.165 143.489 112.142 143.575 112.125L143.984 113.932C143.847 113.983 143.657 114.034 143.413 114.085C143.168 114.142 142.859 114.17 142.484 114.17C141.915 114.17 141.359 114.048 140.813 113.804C140.273 113.56 139.825 113.188 139.467 112.688C139.114 112.188 138.938 111.557 138.938 110.795V97.7727ZM152.839 98.4205V96.5455H165.93V98.4205H160.441V114H158.327V98.4205H152.839ZM167.56 114V100.909H169.503V102.886H169.639C169.878 102.239 170.31 101.713 170.935 101.31C171.56 100.906 172.264 100.705 173.048 100.705C173.196 100.705 173.381 100.707 173.602 100.713C173.824 100.719 173.991 100.727 174.105 100.739V102.784C174.037 102.767 173.881 102.741 173.636 102.707C173.398 102.668 173.145 102.648 172.878 102.648C172.241 102.648 171.673 102.781 171.173 103.048C170.679 103.31 170.287 103.673 169.997 104.139C169.713 104.599 169.571 105.125 169.571 105.716V114H167.56ZM180.342 114.307C179.512 114.307 178.759 114.151 178.083 113.838C177.407 113.52 176.87 113.062 176.472 112.466C176.075 111.864 175.876 111.136 175.876 110.284C175.876 109.534 176.023 108.926 176.319 108.46C176.614 107.989 177.009 107.619 177.504 107.352C177.998 107.085 178.543 106.886 179.14 106.756C179.742 106.619 180.347 106.511 180.955 106.432C181.751 106.33 182.396 106.253 182.89 106.202C183.39 106.145 183.754 106.051 183.981 105.92C184.214 105.79 184.33 105.562 184.33 105.239V105.17C184.33 104.33 184.1 103.676 183.64 103.21C183.185 102.744 182.495 102.511 181.569 102.511C180.609 102.511 179.856 102.722 179.31 103.142C178.765 103.562 178.381 104.011 178.16 104.489L176.251 103.807C176.592 103.011 177.046 102.392 177.614 101.949C178.188 101.5 178.813 101.187 179.489 101.011C180.171 100.83 180.842 100.739 181.501 100.739C181.921 100.739 182.404 100.79 182.95 100.892C183.501 100.989 184.032 101.19 184.543 101.497C185.06 101.804 185.489 102.267 185.83 102.886C186.171 103.506 186.342 104.335 186.342 105.375V114H184.33V112.227H184.228C184.092 112.511 183.864 112.815 183.546 113.139C183.228 113.463 182.805 113.739 182.276 113.966C181.748 114.193 181.103 114.307 180.342 114.307ZM180.648 112.5C181.444 112.5 182.114 112.344 182.66 112.031C183.211 111.719 183.626 111.315 183.904 110.821C184.188 110.327 184.33 109.807 184.33 109.261V107.42C184.245 107.523 184.058 107.616 183.768 107.702C183.484 107.781 183.154 107.852 182.779 107.915C182.41 107.972 182.049 108.023 181.697 108.068C181.35 108.108 181.069 108.142 180.853 108.17C180.33 108.239 179.842 108.349 179.387 108.503C178.938 108.651 178.575 108.875 178.296 109.176C178.023 109.472 177.887 109.875 177.887 110.386C177.887 111.085 178.146 111.614 178.663 111.972C179.185 112.324 179.847 112.5 180.648 112.5ZM192.024 106.125V114H190.013V100.909H191.956V102.955H192.126C192.433 102.29 192.899 101.756 193.524 101.352C194.149 100.943 194.956 100.739 195.945 100.739C196.831 100.739 197.607 100.92 198.271 101.284C198.936 101.642 199.453 102.188 199.822 102.92C200.192 103.648 200.376 104.568 200.376 105.682V114H198.365V105.818C198.365 104.79 198.098 103.989 197.564 103.415C197.03 102.835 196.297 102.545 195.365 102.545C194.723 102.545 194.149 102.685 193.643 102.963C193.143 103.241 192.749 103.648 192.459 104.182C192.169 104.716 192.024 105.364 192.024 106.125ZM213.325 103.841L211.518 104.352C211.404 104.051 211.237 103.759 211.015 103.474C210.799 103.185 210.504 102.946 210.129 102.759C209.754 102.571 209.273 102.477 208.688 102.477C207.887 102.477 207.219 102.662 206.685 103.031C206.157 103.395 205.893 103.858 205.893 104.42C205.893 104.92 206.075 105.315 206.438 105.605C206.802 105.895 207.37 106.136 208.143 106.33L210.086 106.807C211.256 107.091 212.129 107.526 212.702 108.111C213.276 108.69 213.563 109.437 213.563 110.352C213.563 111.102 213.347 111.773 212.915 112.364C212.489 112.955 211.893 113.42 211.126 113.761C210.359 114.102 209.467 114.273 208.45 114.273C207.114 114.273 206.009 113.983 205.134 113.403C204.259 112.824 203.705 111.977 203.472 110.864L205.381 110.386C205.563 111.091 205.907 111.619 206.413 111.972C206.924 112.324 207.592 112.5 208.415 112.5C209.353 112.5 210.097 112.301 210.648 111.903C211.205 111.5 211.484 111.017 211.484 110.455C211.484 110 211.325 109.619 211.006 109.312C210.688 109 210.2 108.767 209.54 108.614L207.359 108.102C206.16 107.818 205.279 107.378 204.717 106.781C204.16 106.179 203.881 105.426 203.881 104.523C203.881 103.784 204.089 103.131 204.504 102.562C204.924 101.994 205.495 101.548 206.217 101.224C206.944 100.901 207.768 100.739 208.688 100.739C209.984 100.739 211.001 101.023 211.739 101.591C212.484 102.159 213.012 102.909 213.325 103.841ZM222.42 100.909V102.614H215.364V100.909H222.42ZM217.477 114V99.1023C217.477 98.3523 217.653 97.7273 218.006 97.2273C218.358 96.7273 218.815 96.3523 219.378 96.1023C219.94 95.8523 220.534 95.7273 221.159 95.7273C221.653 95.7273 222.057 95.767 222.369 95.8466C222.682 95.9261 222.915 96 223.068 96.0682L222.489 97.8068C222.386 97.7727 222.244 97.7301 222.062 97.679C221.886 97.6278 221.653 97.6023 221.364 97.6023C220.699 97.6023 220.219 97.7699 219.923 98.1051C219.634 98.4403 219.489 98.9318 219.489 99.5795V114H217.477ZM230.189 114.273C228.928 114.273 227.839 113.994 226.925 113.438C226.016 112.875 225.314 112.091 224.82 111.085C224.331 110.074 224.087 108.898 224.087 107.557C224.087 106.216 224.331 105.034 224.82 104.011C225.314 102.983 226.001 102.182 226.882 101.608C227.768 101.028 228.803 100.739 229.984 100.739C230.666 100.739 231.339 100.852 232.004 101.08C232.669 101.307 233.274 101.676 233.82 102.188C234.365 102.693 234.8 103.364 235.124 104.199C235.447 105.034 235.609 106.062 235.609 107.284V108.136H225.518V106.398H233.564C233.564 105.659 233.416 105 233.121 104.42C232.831 103.841 232.416 103.384 231.876 103.048C231.342 102.713 230.712 102.545 229.984 102.545C229.183 102.545 228.49 102.744 227.905 103.142C227.325 103.534 226.879 104.045 226.567 104.676C226.254 105.307 226.098 105.983 226.098 106.705V107.864C226.098 108.852 226.268 109.69 226.609 110.378C226.956 111.06 227.436 111.58 228.05 111.938C228.663 112.29 229.376 112.466 230.189 112.466C230.717 112.466 231.195 112.392 231.621 112.244C232.053 112.091 232.425 111.864 232.737 111.562C233.05 111.256 233.291 110.875 233.462 110.42L235.405 110.966C235.2 111.625 234.857 112.205 234.374 112.705C233.891 113.199 233.294 113.585 232.584 113.864C231.874 114.136 231.075 114.273 230.189 114.273ZM238.669 114V100.909H240.612V102.886H240.749C240.987 102.239 241.419 101.713 242.044 101.31C242.669 100.906 243.374 100.705 244.158 100.705C244.305 100.705 244.49 100.707 244.712 100.713C244.933 100.719 245.101 100.727 245.214 100.739V102.784C245.146 102.767 244.99 102.741 244.746 102.707C244.507 102.668 244.254 102.648 243.987 102.648C243.351 102.648 242.783 102.781 242.283 103.048C241.788 103.31 241.396 103.673 241.107 104.139C240.822 104.599 240.68 105.125 240.68 105.716V114H238.669Z" fill="#282828"/>
<defs>
<radialGradient id="paint0_radial_11483_43801" cx="0" cy="0" r="1" gradientUnits="userSpaceOnUse" gradientTransform="translate(195) rotate(90) scale(37.0878 205.901)">
<stop stop-color="white"/>
<stop offset="1" stop-color="white" stop-opacity="0"/>
</radialGradient>
<radialGradient id="paint1_radial_11483_43801" cx="0" cy="0" r="1" gradientUnits="userSpaceOnUse" gradientTransform="translate(178 70) rotate(90) scale(44.7611 227.642)">
<stop stop-color="white"/>
<stop offset="1" stop-color="white" stop-opacity="0"/>
</radialGradient>
</defs>
</svg>
