<svg width="384" height="202" viewBox="0 0 384 202" fill="none" xmlns="http://www.w3.org/2000/svg">
<rect x="39.373" width="304.712" height="58.2034" rx="10.2712" fill="#202020"/>
<rect x="39.801" y="0.427966" width="303.856" height="57.3475" rx="9.84322" stroke="white" stroke-opacity="0.04" stroke-width="0.855932"/>
<rect x="39.801" y="0.427966" width="303.856" height="57.3475" rx="9.84322" stroke="url(#paint0_linear_10627_14248)" stroke-opacity="0.12" stroke-width="0.855932"/>
<rect x="53.0684" y="13.6953" width="30.8136" height="30.8136" rx="6.84746" fill="#2B2B2B"/>
<path fill-rule="evenodd" clip-rule="evenodd" d="M63.0943 24.5384L63.0943 31.7934C63.0943 32.1118 62.8362 32.3699 62.5179 32.3699C62.1995 32.3699 61.9414 32.1118 61.9414 31.7934L61.9414 23.1468C61.9414 22.9939 62.0021 22.8473 62.1102 22.7391C62.2183 22.631 62.365 22.5703 62.5179 22.5703L71.1645 22.5703C71.4829 22.5703 71.741 22.8284 71.741 23.1468C71.741 23.4651 71.4829 23.7232 71.1645 23.7232L63.9095 23.7232L74.4543 34.268C74.6795 34.4931 74.6795 34.8581 74.4543 35.0832C74.2292 35.3084 73.8642 35.3084 73.6391 35.0832L63.0943 24.5384Z" fill="white"/>
<path d="M102.257 30.5688V33.6314H101.174V30.5688H98.3184V29.4855H101.174V26.4964H102.257V29.4855H105.112V30.5688H102.257ZM113.277 34.7481H112.381V33.8521C110.576 33.7184 109.385 32.6819 109.379 31.1907H110.522C110.596 32.0867 111.278 32.6819 112.381 32.8156V29.3384L111.846 29.1913C110.415 28.8168 109.613 27.9408 109.613 26.697C109.613 25.2326 110.676 24.2362 112.381 24.0691V23.1329H113.277V24.0624C114.949 24.2028 116.046 25.2393 116.092 26.6837H114.956C114.929 25.8545 114.267 25.2192 113.277 25.0988V28.3688L113.846 28.5092C115.477 28.9439 116.26 29.753 116.26 31.1037C116.26 32.6886 115.156 33.6916 113.277 33.8454V34.7481ZM115.103 31.1974C115.103 30.3147 114.541 29.7864 113.277 29.5189V32.8357C114.441 32.7755 115.103 32.1737 115.103 31.1974ZM110.763 26.6302C110.763 27.4259 111.325 27.9542 112.381 28.1749V25.0988C111.445 25.1523 110.763 25.7876 110.763 26.6302ZM117.691 26.9645C117.691 25.2794 119.055 24.0222 120.874 24.0222C122.599 24.0222 123.956 25.1925 123.956 26.6703C123.956 27.7469 123.468 28.5493 121.857 30.2144L119.416 32.7354V32.7621H124.117V33.832H117.751V33.0028L121.148 29.4253C122.445 28.0612 122.753 27.5463 122.753 26.7438C122.753 25.8144 121.903 25.0721 120.84 25.0721C119.71 25.0721 118.854 25.8879 118.854 26.9645V26.9712H117.691V26.9645ZM125.447 26.9645C125.447 25.2794 126.812 24.0222 128.63 24.0222C130.356 24.0222 131.713 25.1925 131.713 26.6703C131.713 27.7469 131.225 28.5493 129.613 30.2144L127.173 32.7354V32.7621H131.874V33.832H125.508V33.0028L128.905 29.4253C130.202 28.0612 130.51 27.5463 130.51 26.7438C130.51 25.8144 129.66 25.0721 128.597 25.0721C127.467 25.0721 126.611 25.8879 126.611 26.9645V26.9712H125.447V26.9645ZM134.221 33.8989C133.793 33.8989 133.458 33.5646 133.458 33.1366C133.458 32.7086 133.793 32.3743 134.221 32.3743C134.649 32.3743 134.983 32.7086 134.983 33.1366C134.983 33.5646 134.649 33.8989 134.221 33.8989ZM138.4 33.832V25.4599H138.373L135.819 27.2989V26.0283L138.387 24.1827H139.564V33.832H138.4ZM145.328 33.9925C143.482 33.9925 142.118 32.8424 142.018 31.1974H143.201C143.308 32.2272 144.184 32.936 145.341 32.936C146.652 32.936 147.561 32.0265 147.561 30.7293C147.561 29.432 146.645 28.5025 145.361 28.5025C144.459 28.5025 143.69 28.9104 143.295 29.5858H142.165L142.693 24.1827H148.217V25.2526H143.683L143.389 28.3955H143.415C143.85 27.8138 144.652 27.466 145.575 27.466C147.428 27.466 148.765 28.8235 148.765 30.6958C148.765 32.6351 147.341 33.9925 145.328 33.9925ZM154.188 25.2526V28.9505H156.495C157.732 28.9505 158.434 28.2818 158.434 27.0983C158.434 25.9414 157.685 25.2526 156.442 25.2526H154.188ZM154.188 30.0138V33.832H152.984V24.1827H156.602C158.461 24.1827 159.678 25.3195 159.678 27.0581C159.678 28.4022 158.949 29.4454 157.739 29.8265L159.972 33.832H158.561L156.495 30.0138H154.188ZM163.804 27.7669C162.714 27.7669 161.952 28.6028 161.878 29.7597H165.656C165.629 28.5961 164.901 27.7669 163.804 27.7669ZM165.629 31.8393H166.773C166.572 33.0563 165.395 33.9524 163.877 33.9524C161.885 33.9524 160.674 32.5682 160.674 30.3816C160.674 28.2217 161.905 26.7572 163.824 26.7572C165.703 26.7572 166.86 28.1214 166.86 30.2278V30.6691H161.871V30.736C161.871 32.0667 162.654 32.9427 163.904 32.9427C164.787 32.9427 165.436 32.4946 165.629 31.8393ZM173.814 29.1578H172.678C172.51 28.4022 171.922 27.7803 170.899 27.7803C169.695 27.7803 168.879 28.7767 168.879 30.3548C168.879 31.9731 169.709 32.9293 170.912 32.9293C171.862 32.9293 172.484 32.4278 172.684 31.5919H173.828C173.647 32.9761 172.484 33.9524 170.905 33.9524C168.98 33.9524 167.696 32.5949 167.696 30.3548C167.696 28.1615 168.973 26.7572 170.892 26.7572C172.631 26.7572 173.667 27.9074 173.814 29.1578ZM177.686 27.7669C176.596 27.7669 175.834 28.6028 175.76 29.7597H179.538C179.512 28.5961 178.783 27.7669 177.686 27.7669ZM179.512 31.8393H180.655C180.454 33.0563 179.278 33.9524 177.76 33.9524C175.767 33.9524 174.557 32.5682 174.557 30.3816C174.557 28.2217 175.787 26.7572 177.706 26.7572C179.585 26.7572 180.742 28.1214 180.742 30.2278V30.6691H175.754V30.736C175.754 32.0667 176.536 32.9427 177.786 32.9427C178.669 32.9427 179.318 32.4946 179.512 31.8393ZM181.979 33.832V26.8776H183.143V33.832H181.979ZM182.561 25.7074C182.166 25.7074 181.839 25.3797 181.839 24.9852C181.839 24.584 182.166 24.263 182.561 24.263C182.962 24.263 183.29 24.584 183.29 24.9852C183.29 25.3797 182.962 25.7074 182.561 25.7074ZM190.418 26.8776L187.864 33.832H186.673L184.112 26.8776H185.336L187.255 32.5949H187.282L189.208 26.8776H190.418ZM193.922 27.7669C192.832 27.7669 192.07 28.6028 191.996 29.7597H195.774C195.748 28.5961 195.019 27.7669 193.922 27.7669ZM195.748 31.8393H196.891C196.69 33.0563 195.514 33.9524 193.996 33.9524C192.003 33.9524 190.793 32.5682 190.793 30.3816C190.793 28.2217 192.023 26.7572 193.942 26.7572C195.821 26.7572 196.978 28.1214 196.978 30.2278V30.6691H191.99V30.736C191.99 32.0667 192.772 32.9427 194.022 32.9427C194.905 32.9427 195.554 32.4946 195.748 31.8393ZM200.79 33.9524C199.018 33.9524 197.814 32.5348 197.814 30.3548C197.814 28.1749 199.011 26.7572 200.763 26.7572C201.759 26.7572 202.562 27.2454 202.976 28.0077H203.003V24.1827H204.166V33.832H203.056V32.6551H203.036C202.588 33.4576 201.793 33.9524 200.79 33.9524ZM201.01 27.7803C199.78 27.7803 199.004 28.7834 199.004 30.3548C199.004 31.9329 199.78 32.9293 201.01 32.9293C202.207 32.9293 203.01 31.9129 203.01 30.3548C203.01 28.8034 202.207 27.7803 201.01 27.7803ZM208.921 33.832V27.8338H207.951V26.8776H208.921V26.1019C208.921 24.7645 209.543 24.1292 210.827 24.1292C211.088 24.1292 211.368 24.156 211.536 24.1827V25.1256C211.395 25.1055 211.201 25.0855 211.007 25.0855C210.379 25.0855 210.078 25.4198 210.078 26.1086V26.8776H211.502V27.8338H210.084V33.832H208.921ZM212.706 33.832V26.8776H213.802V28.0144H213.829C214.057 27.2454 214.698 26.7572 215.514 26.7572C215.715 26.7572 215.889 26.7907 215.982 26.804V27.9341C215.889 27.9007 215.641 27.8673 215.36 27.8673C214.458 27.8673 213.869 28.5159 213.869 29.4989V33.832H212.706ZM219.48 33.9524C217.554 33.9524 216.257 32.5682 216.257 30.3548C216.257 28.1347 217.554 26.7572 219.48 26.7572C221.399 26.7572 222.696 28.1347 222.696 30.3548C222.696 32.5682 221.399 33.9524 219.48 33.9524ZM219.48 32.9293C220.71 32.9293 221.512 31.9931 221.512 30.3548C221.512 28.7165 220.71 27.7803 219.48 27.7803C218.249 27.7803 217.44 28.7165 217.44 30.3548C217.44 31.9931 218.249 32.9293 219.48 32.9293ZM223.873 33.832V26.8776H224.97V27.9876H224.996C225.324 27.2521 226.033 26.7572 226.969 26.7572C227.919 26.7572 228.621 27.2387 228.922 28.0812H228.948C229.336 27.2521 230.152 26.7572 231.128 26.7572C232.506 26.7572 233.395 27.6533 233.395 29.0308V33.832H232.232V29.2983C232.232 28.3487 231.703 27.787 230.787 27.787C229.865 27.787 229.216 28.4691 229.216 29.4119V33.832H228.052V29.1712C228.052 28.3353 227.491 27.787 226.628 27.787C225.705 27.787 225.037 28.5092 225.037 29.4721V33.832H223.873ZM239.059 33.832H237.869V24.1827H239.039L244.322 31.7591H244.382V24.1827H245.572V33.832H244.402L239.119 26.2824H239.059V33.832ZM250.093 32.8624C251.303 32.8624 252.112 31.8594 252.112 30.3281C252.112 28.7967 251.303 27.7803 250.093 27.7803C248.896 27.7803 248.113 28.77 248.113 30.3281C248.113 31.8861 248.896 32.8624 250.093 32.8624ZM250.133 36.4533C248.601 36.4533 247.391 35.5907 247.197 34.4071H248.394C248.621 35.0424 249.31 35.4637 250.18 35.4637C251.383 35.4637 252.112 34.7682 252.112 33.7317V32.6351H252.085C251.657 33.3907 250.835 33.8855 249.859 33.8855C248.087 33.8855 246.923 32.488 246.923 30.3281C246.923 28.1481 248.087 26.7572 249.885 26.7572C250.868 26.7572 251.684 27.2387 252.145 28.0478H252.166V26.8776H253.276V33.6916C253.276 35.35 252.052 36.4533 250.133 36.4533ZM260.504 26.8776V33.832H259.401V32.7019H259.374C258.96 33.5044 258.237 33.9524 257.167 33.9524C255.649 33.9524 254.76 32.9694 254.76 31.3913V26.8776H255.924V31.184C255.924 32.3141 256.452 32.9226 257.529 32.9226C258.659 32.9226 259.341 32.1469 259.341 30.9633V26.8776H260.504ZM262.591 36.4333C262.45 36.4333 262.216 36.4199 262.089 36.3931V35.4168C262.216 35.4436 262.397 35.4503 262.544 35.4503C263.192 35.4503 263.553 35.136 263.821 34.3269L263.981 33.8387L261.414 26.8776H262.657L264.583 32.6685H264.603L266.529 26.8776H267.753L265.018 34.3202C264.423 35.9451 263.848 36.4333 262.591 36.4333ZM271.264 27.7669C270.174 27.7669 269.411 28.6028 269.338 29.7597H273.116C273.089 28.5961 272.36 27.7669 271.264 27.7669ZM273.089 31.8393H274.233C274.032 33.0563 272.855 33.9524 271.337 33.9524C269.344 33.9524 268.134 32.5682 268.134 30.3816C268.134 28.2217 269.364 26.7572 271.284 26.7572C273.163 26.7572 274.319 28.1214 274.319 30.2278V30.6691H269.331V30.736C269.331 32.0667 270.113 32.9427 271.364 32.9427C272.247 32.9427 272.895 32.4946 273.089 31.8393ZM275.496 33.832V26.8776H276.593V27.9876H276.62C277.008 27.2387 277.75 26.7572 278.827 26.7572C280.351 26.7572 281.234 27.7402 281.234 29.3183V33.832H280.07V29.5256C280.07 28.4022 279.542 27.787 278.472 27.787C277.375 27.787 276.66 28.5627 276.66 29.7396V33.832H275.496ZM285.246 31.1773H286.456C286.57 32.2205 287.56 32.9092 288.937 32.9092C290.241 32.9092 291.191 32.2205 291.191 31.2709C291.191 30.4551 290.622 29.9536 289.325 29.6192L288.088 29.2983C286.309 28.8436 285.52 28.0612 285.52 26.7505C285.52 25.1457 286.924 24.0222 288.931 24.0222C290.85 24.0222 292.241 25.159 292.294 26.7773H291.09C290.983 25.7408 290.148 25.1055 288.89 25.1055C287.64 25.1055 286.771 25.7542 286.771 26.697C286.771 27.4259 287.306 27.8606 288.616 28.2016L289.626 28.4691C291.625 28.9706 292.434 29.7396 292.434 31.1238C292.434 32.8892 291.044 33.9925 288.824 33.9925C286.777 33.9925 285.36 32.8825 285.246 31.1773ZM293.718 33.832V24.1827H294.882V27.9876H294.909C295.297 27.2119 296.059 26.7572 297.115 26.7572C298.64 26.7572 299.563 27.787 299.563 29.3384V33.832H298.399V29.5524C298.399 28.449 297.844 27.787 296.754 27.787C295.597 27.787 294.882 28.5761 294.882 29.7797V33.832H293.718ZM303.334 32.9627C304.431 32.9627 305.273 32.1937 305.273 31.1907V30.6223L303.415 30.736C302.478 30.7961 301.943 31.2107 301.943 31.8661C301.943 32.5281 302.498 32.9627 303.334 32.9627ZM303.073 33.9524C301.689 33.9524 300.76 33.1165 300.76 31.8661C300.76 30.6758 301.676 29.9268 303.281 29.8332L305.273 29.7195V29.1378C305.273 28.2885 304.712 27.7803 303.749 27.7803C302.853 27.7803 302.291 28.2016 302.144 28.8837H301.021C301.101 27.68 302.131 26.7572 303.776 26.7572C305.407 26.7572 306.437 27.6399 306.437 29.0241V33.832H305.334V32.6351H305.307C304.892 33.4308 304.01 33.9524 303.073 33.9524ZM307.915 33.832V26.8776H309.012V27.9876H309.038C309.426 27.2387 310.168 26.7572 311.245 26.7572C312.77 26.7572 313.652 27.7402 313.652 29.3183V33.832H312.489V29.5256C312.489 28.4022 311.96 27.787 310.891 27.787C309.794 27.787 309.078 28.5627 309.078 29.7396V33.832H307.915ZM317.925 27.7669C316.835 27.7669 316.073 28.6028 315.999 29.7597H319.778C319.751 28.5961 319.022 27.7669 317.925 27.7669ZM319.751 31.8393H320.894C320.694 33.0563 319.517 33.9524 317.999 33.9524C316.006 33.9524 314.796 32.5682 314.796 30.3816C314.796 28.2217 316.026 26.7572 317.945 26.7572C319.824 26.7572 320.981 28.1214 320.981 30.2278V30.6691H315.993V30.736C315.993 32.0667 316.775 32.9427 318.026 32.9427C318.908 32.9427 319.557 32.4946 319.751 31.8393Z" fill="white"/>
<rect y="68.4727" width="383.458" height="65.0508" rx="13.6949" fill="#202020"/>
<rect x="0.427966" y="68.9006" width="382.602" height="64.1949" rx="13.2669" stroke="white" stroke-opacity="0.04" stroke-width="0.855932"/>
<rect x="0.427966" y="68.9006" width="382.602" height="64.1949" rx="13.2669" stroke="url(#paint1_linear_10627_14248)" stroke-opacity="0.12" stroke-width="0.855932"/>
<rect x="20.543" y="82.168" width="37.661" height="37.661" rx="6.84746" fill="#2B2B2B"/>
<path fill-rule="evenodd" clip-rule="evenodd" d="M33.9927 96.4369L33.9927 103.692C33.9927 104.01 33.7347 104.268 33.4163 104.268C33.0979 104.268 32.8398 104.01 32.8398 103.692L32.8398 95.0452C32.8398 94.8923 32.9006 94.7457 33.0087 94.6376C33.1168 94.5295 33.2634 94.4688 33.4163 94.4688L42.063 94.4688C42.3813 94.4688 42.6394 94.7268 42.6394 95.0452C42.6394 95.3636 42.3813 95.6216 42.063 95.6216L34.8079 95.6216L45.3528 106.166C45.5779 106.392 45.5779 106.757 45.3528 106.982C45.1277 107.207 44.7627 107.207 44.5376 106.982L33.9927 96.4369Z" fill="white"/>
<path d="M77.7495 102.648V106.476H76.3954V102.648H72.8263V101.293H76.3954V97.5571H77.7495V101.293H81.3187V102.648H77.7495ZM91.5247 107.872H90.4046V106.752C88.1478 106.584 86.6599 105.289 86.6516 103.425H88.0809C88.1729 104.545 89.0254 105.289 90.4046 105.456V101.11L89.7359 100.926C87.9472 100.458 86.9441 99.3625 86.9441 97.8078C86.9441 95.9773 88.2732 94.7318 90.4046 94.5228V93.3526H91.5247V94.5145C93.6144 94.69 94.9852 95.9856 95.0437 97.7911H93.6227C93.5893 96.7546 92.7618 95.9605 91.5247 95.8101V99.8975L92.2352 100.073C94.2747 100.616 95.2527 101.628 95.2527 103.316C95.2527 105.297 93.8735 106.551 91.5247 106.743V107.872ZM93.8066 103.433C93.8066 102.33 93.1045 101.67 91.5247 101.335V105.481C92.9791 105.406 93.8066 104.654 93.8066 103.433ZM88.3818 97.7242C88.3818 98.7189 89.084 99.3793 90.4046 99.6551V95.8101C89.2344 95.877 88.3818 96.671 88.3818 97.7242ZM99.5741 101.16V99.8891H101.02C102.408 99.8891 103.377 98.9948 103.377 97.7744C103.377 96.5791 102.567 95.7683 101.037 95.7683C99.6494 95.7683 98.7299 96.5624 98.5962 97.8245H97.1501C97.3173 95.7766 98.8386 94.4643 101.104 94.4643C103.26 94.4643 104.89 95.7599 104.89 97.5738C104.89 99.0867 103.921 100.173 102.416 100.441V100.474C104.238 100.583 105.409 101.711 105.409 103.408C105.409 105.481 103.519 106.927 101.154 106.927C98.6296 106.927 97.0164 105.531 96.9077 103.534H98.3538C98.4875 104.771 99.5156 105.623 101.137 105.623C102.734 105.623 103.879 104.72 103.879 103.458C103.879 102.037 102.809 101.16 101.087 101.16H99.5741ZM111.469 106.927C108.652 106.927 107.022 104.503 107.022 100.692C107.022 96.9134 108.668 94.4643 111.469 94.4643C114.269 94.4643 115.899 96.8967 115.899 100.683C115.899 104.495 114.277 106.927 111.469 106.927ZM111.469 105.615C113.349 105.615 114.386 103.701 114.386 100.692C114.386 97.7242 113.333 95.785 111.469 95.785C109.605 95.785 108.535 97.7409 108.535 100.683C108.535 103.692 109.58 105.615 111.469 105.615ZM121.85 106.927C119.033 106.927 117.403 104.503 117.403 100.692C117.403 96.9134 119.05 94.4643 121.85 94.4643C124.65 94.4643 126.28 96.8967 126.28 100.683C126.28 104.495 124.659 106.927 121.85 106.927ZM121.85 105.615C123.731 105.615 124.767 103.701 124.767 100.692C124.767 97.7242 123.714 95.785 121.85 95.785C119.986 95.785 118.916 97.7409 118.916 100.683C118.916 103.692 119.961 105.615 121.85 105.615ZM128.871 106.81C128.336 106.81 127.919 106.392 127.919 105.857C127.919 105.322 128.336 104.904 128.871 104.904C129.406 104.904 129.824 105.322 129.824 105.857C129.824 106.392 129.406 106.81 128.871 106.81ZM136.336 106.927C134.029 106.927 132.324 105.489 132.198 103.433H133.678C133.811 104.72 134.906 105.606 136.352 105.606C137.991 105.606 139.128 104.47 139.128 102.848C139.128 101.227 137.982 100.065 136.378 100.065C135.249 100.065 134.288 100.575 133.795 101.419H132.382L133.042 94.6649H139.947V96.0023H134.28L133.912 99.9309H133.945C134.488 99.2037 135.492 98.7691 136.645 98.7691C138.96 98.7691 140.632 100.466 140.632 102.806C140.632 105.23 138.852 106.927 136.336 106.927ZM142.128 98.1422C142.128 96.0358 143.834 94.4643 146.107 94.4643C148.264 94.4643 149.96 95.9271 149.96 97.7744C149.96 99.1201 149.35 100.123 147.336 102.204L144.285 105.356V105.389H150.161V106.727H142.204V105.69L146.45 101.218C148.071 99.513 148.456 98.8694 148.456 97.8663C148.456 96.7045 147.394 95.7766 146.065 95.7766C144.653 95.7766 143.583 96.7964 143.583 98.1422V98.1505H142.128V98.1422ZM157.107 96.0023V100.625H159.991C161.537 100.625 162.415 99.7888 162.415 98.3093C162.415 96.8633 161.479 96.0023 159.924 96.0023H157.107ZM157.107 101.954V106.727H155.603V94.6649H160.125C162.448 94.6649 163.97 96.0859 163.97 98.2592C163.97 99.9393 163.059 101.243 161.546 101.72L164.337 106.727H162.574L159.991 101.954H157.107ZM169.127 99.1452C167.765 99.1452 166.812 100.19 166.72 101.636H171.442C171.409 100.182 170.498 99.1452 169.127 99.1452ZM171.409 104.236H172.838C172.587 105.757 171.116 106.877 169.219 106.877C166.728 106.877 165.215 105.147 165.215 102.413C165.215 99.7136 166.753 97.883 169.152 97.883C171.501 97.883 172.947 99.5882 172.947 102.221V102.773H166.711V102.856C166.711 104.52 167.689 105.615 169.252 105.615C170.356 105.615 171.167 105.055 171.409 104.236ZM181.64 100.884H180.219C180.01 99.9393 179.274 99.1619 177.996 99.1619C176.491 99.1619 175.471 100.407 175.471 102.38C175.471 104.403 176.508 105.598 178.012 105.598C179.199 105.598 179.977 104.971 180.227 103.926H181.657C181.431 105.657 179.977 106.877 178.004 106.877C175.597 106.877 173.992 105.18 173.992 102.38C173.992 99.6384 175.588 97.883 177.987 97.883C180.16 97.883 181.456 99.3207 181.64 100.884ZM186.48 99.1452C185.117 99.1452 184.164 100.19 184.072 101.636H188.795C188.762 100.182 187.851 99.1452 186.48 99.1452ZM188.762 104.236H190.191C189.94 105.757 188.469 106.877 186.572 106.877C184.081 106.877 182.568 105.147 182.568 102.413C182.568 99.7136 184.106 97.883 186.505 97.883C188.854 97.883 190.3 99.5882 190.3 102.221V102.773H184.064V102.856C184.064 104.52 185.042 105.615 186.605 105.615C187.708 105.615 188.519 105.055 188.762 104.236ZM191.846 106.727V98.0335H193.3V106.727H191.846ZM192.573 96.5707C192.08 96.5707 191.67 96.1611 191.67 95.668C191.67 95.1665 192.08 94.7652 192.573 94.7652C193.075 94.7652 193.484 95.1665 193.484 95.668C193.484 96.1611 193.075 96.5707 192.573 96.5707ZM202.395 98.0335L199.202 106.727H197.714L194.512 98.0335H196.042L198.441 105.18H198.474L200.882 98.0335H202.395ZM206.775 99.1452C205.412 99.1452 204.459 100.19 204.367 101.636H209.09C209.057 100.182 208.145 99.1452 206.775 99.1452ZM209.057 104.236H210.486C210.235 105.757 208.764 106.877 206.867 106.877C204.376 106.877 202.863 105.147 202.863 102.413C202.863 99.7136 204.401 97.883 206.8 97.883C209.149 97.883 210.595 99.5882 210.595 102.221V102.773H204.359V102.856C204.359 104.52 205.337 105.615 206.9 105.615C208.003 105.615 208.814 105.055 209.057 104.236ZM215.359 106.877C213.144 106.877 211.639 105.105 211.639 102.38C211.639 99.6551 213.136 97.883 215.326 97.883C216.571 97.883 217.574 98.4932 218.092 99.4461H218.126V94.6649H219.58V106.727H218.193V105.255H218.168C217.608 106.258 216.613 106.877 215.359 106.877ZM215.635 99.1619C214.097 99.1619 213.127 100.416 213.127 102.38C213.127 104.353 214.097 105.598 215.635 105.598C217.131 105.598 218.134 104.328 218.134 102.38C218.134 100.441 217.131 99.1619 215.635 99.1619ZM225.523 106.727V99.2288H224.311V98.0335H225.523V97.0639C225.523 95.3921 226.301 94.5981 227.905 94.5981C228.231 94.5981 228.583 94.6315 228.791 94.6649V95.8435C228.616 95.8184 228.374 95.7934 228.131 95.7934C227.345 95.7934 226.969 96.2113 226.969 97.0722V98.0335H228.75V99.2288H226.978V106.727H225.523ZM230.254 106.727V98.0335H231.625V99.4545H231.659C231.943 98.4932 232.745 97.883 233.765 97.883C234.016 97.883 234.233 97.9248 234.35 97.9416V99.3542C234.233 99.3124 233.924 99.2706 233.573 99.2706C232.444 99.2706 231.709 100.081 231.709 101.31V106.727H230.254ZM238.722 106.877C236.314 106.877 234.693 105.147 234.693 102.38C234.693 99.6049 236.314 97.883 238.722 97.883C241.121 97.883 242.742 99.6049 242.742 102.38C242.742 105.147 241.121 106.877 238.722 106.877ZM238.722 105.598C240.26 105.598 241.263 104.428 241.263 102.38C241.263 100.332 240.26 99.1619 238.722 99.1619C237.184 99.1619 236.172 100.332 236.172 102.38C236.172 104.428 237.184 105.598 238.722 105.598ZM244.213 106.727V98.0335H245.584V99.421H245.618C246.027 98.5016 246.913 97.883 248.083 97.883C249.27 97.883 250.148 98.4849 250.524 99.5381H250.558C251.042 98.5016 252.062 97.883 253.283 97.883C255.004 97.883 256.116 99.0031 256.116 100.725V106.727H254.662V101.059C254.662 99.8724 254.001 99.1703 252.856 99.1703C251.703 99.1703 250.892 100.023 250.892 101.201V106.727H249.438V100.901C249.438 99.8557 248.735 99.1703 247.657 99.1703C246.504 99.1703 245.668 100.073 245.668 101.277V106.727H244.213ZM266.673 106.927C263.346 106.927 261.24 104.512 261.24 100.692C261.24 96.9051 263.371 94.4643 266.673 94.4643C269.298 94.4643 271.296 96.0608 271.68 98.4682H270.159C269.774 96.8884 268.395 95.8519 266.673 95.8519C264.316 95.8519 262.786 97.7577 262.786 100.692C262.786 103.651 264.299 105.54 266.682 105.54C268.454 105.54 269.724 104.687 270.159 103.216H271.68C271.128 105.598 269.34 106.927 266.673 106.927ZM276.837 106.877C274.43 106.877 272.808 105.147 272.808 102.38C272.808 99.6049 274.43 97.883 276.837 97.883C279.236 97.883 280.858 99.6049 280.858 102.38C280.858 105.147 279.236 106.877 276.837 106.877ZM276.837 105.598C278.375 105.598 279.378 104.428 279.378 102.38C279.378 100.332 278.375 99.1619 276.837 99.1619C275.299 99.1619 274.288 100.332 274.288 102.38C274.288 104.428 275.299 105.598 276.837 105.598ZM285.932 106.877C283.524 106.877 281.903 105.147 281.903 102.38C281.903 99.6049 283.524 97.883 285.932 97.883C288.331 97.883 289.952 99.6049 289.952 102.38C289.952 105.147 288.331 106.877 285.932 106.877ZM285.932 105.598C287.47 105.598 288.473 104.428 288.473 102.38C288.473 100.332 287.47 99.1619 285.932 99.1619C284.394 99.1619 283.382 100.332 283.382 102.38C283.382 104.428 284.394 105.598 285.932 105.598ZM295.644 97.883C297.86 97.883 299.364 99.6551 299.364 102.38C299.364 105.105 297.868 106.877 295.678 106.877C294.432 106.877 293.429 106.267 292.911 105.314H292.878V109.627H291.423V98.0335H292.803V99.5046H292.836C293.371 98.5267 294.382 97.883 295.644 97.883ZM295.36 105.598C296.907 105.598 297.876 104.353 297.876 102.38C297.876 100.416 296.907 99.1619 295.36 99.1619C293.872 99.1619 292.869 100.449 292.869 102.38C292.869 104.319 293.872 105.598 295.36 105.598ZM304.321 99.1452C302.958 99.1452 302.005 100.19 301.914 101.636H306.636C306.603 100.182 305.692 99.1452 304.321 99.1452ZM306.603 104.236H308.032C307.781 105.757 306.31 106.877 304.413 106.877C301.922 106.877 300.409 105.147 300.409 102.413C300.409 99.7136 301.947 97.883 304.346 97.883C306.695 97.883 308.141 99.5882 308.141 102.221V102.773H301.905V102.856C301.905 104.52 302.883 105.615 304.446 105.615C305.55 105.615 306.36 105.055 306.603 104.236ZM309.612 106.727V98.0335H310.983V99.4545H311.016C311.3 98.4932 312.103 97.883 313.123 97.883C313.373 97.883 313.591 97.9248 313.708 97.9416V99.3542C313.591 99.3124 313.281 99.2706 312.93 99.2706C311.802 99.2706 311.066 100.081 311.066 101.31V106.727H309.612ZM320.135 106.727H318.631V94.6649H320.135V100.549H320.219L325.544 94.6649H327.441L322.484 100.006L327.884 106.727H325.962L321.439 101.076L320.135 102.514V106.727ZM328.937 106.727V98.0335H330.308V99.4545H330.342C330.626 98.4932 331.428 97.883 332.448 97.883C332.699 97.883 332.916 97.9248 333.033 97.9416V99.3542C332.916 99.3124 332.607 99.2706 332.256 99.2706C331.127 99.2706 330.392 100.081 330.392 101.31V106.727H328.937ZM334.295 106.727V98.0335H335.75V106.727H334.295ZM335.022 96.5707C334.529 96.5707 334.12 96.1611 334.12 95.668C334.12 95.1665 334.529 94.7652 335.022 94.7652C335.524 94.7652 335.933 95.1665 335.933 95.668C335.933 96.1611 335.524 96.5707 335.022 96.5707ZM337.563 100.432C337.563 98.9446 338.892 97.883 340.807 97.883C342.604 97.883 343.924 98.953 343.991 100.424H342.604C342.503 99.5882 341.826 99.07 340.756 99.07C339.695 99.07 338.993 99.5966 338.993 100.357C338.993 100.959 339.452 101.36 340.439 101.611L341.785 101.937C343.54 102.38 344.175 103.015 344.175 104.294C344.175 105.807 342.746 106.877 340.715 106.877C338.809 106.877 337.48 105.841 337.329 104.303H338.784C338.943 105.205 339.628 105.69 340.807 105.69C341.985 105.69 342.712 105.189 342.712 104.403C342.712 103.784 342.353 103.45 341.375 103.191L339.845 102.798C338.316 102.405 337.563 101.619 337.563 100.432ZM346.156 95.9355H347.611V98.0335H349.299V99.2288H347.611V104.394C347.611 105.189 347.945 105.548 348.689 105.548C348.856 105.548 349.19 105.523 349.291 105.506V106.727C349.115 106.768 348.714 106.793 348.371 106.793C346.775 106.793 346.156 106.141 346.156 104.47V99.2288H344.861V98.0335H346.156V95.9355ZM350.929 106.727V98.0335H352.383V106.727H350.929ZM351.656 96.5707C351.163 96.5707 350.753 96.1611 350.753 95.668C350.753 95.1665 351.163 94.7652 351.656 94.7652C352.158 94.7652 352.567 95.1665 352.567 95.668C352.567 96.1611 352.158 96.5707 351.656 96.5707ZM354.348 106.727V98.0335H355.719V99.421H355.752C356.237 98.4849 357.165 97.883 358.51 97.883C360.416 97.883 361.519 99.1118 361.519 101.084V106.727H360.065V101.344C360.065 99.9393 359.405 99.1703 358.067 99.1703C356.697 99.1703 355.802 100.14 355.802 101.611V106.727H354.348Z" fill="white"/>
<rect x="39.373" y="143.797" width="304.712" height="58.2034" rx="10.2712" fill="#202020"/>
<rect x="39.801" y="144.225" width="303.856" height="57.3475" rx="9.84322" stroke="white" stroke-opacity="0.04" stroke-width="0.855932"/>
<rect x="39.801" y="144.225" width="303.856" height="57.3475" rx="9.84322" stroke="url(#paint2_linear_10627_14248)" stroke-opacity="0.12" stroke-width="0.855932"/>
<rect x="53.0684" y="157.492" width="30.8136" height="30.8136" rx="6.84746" fill="#2B2B2B"/>
<path fill-rule="evenodd" clip-rule="evenodd" d="M63.522 168.335L63.522 175.59C63.522 175.909 63.2639 176.167 62.9456 176.167C62.6272 176.167 62.3691 175.909 62.3691 175.59L62.3691 166.944C62.3691 166.791 62.4299 166.644 62.538 166.536C62.6461 166.428 62.7927 166.367 62.9456 166.367L71.5922 166.367C71.9106 166.367 72.1687 166.625 72.1687 166.944C72.1687 167.262 71.9106 167.52 71.5922 167.52L64.3372 167.52L74.8821 178.065C75.1072 178.29 75.1072 178.655 74.8821 178.88C74.657 179.105 74.292 179.105 74.0669 178.88L63.522 168.335Z" fill="white"/>
<path d="M102.257 174.366V177.428H101.174V174.366H98.3184V173.282H101.174V170.293H102.257V173.282H105.112V174.366H102.257ZM113.277 178.545H112.381V177.649C110.576 177.515 109.385 176.479 109.379 174.988H110.522C110.596 175.884 111.278 176.479 112.381 176.612V173.135L111.846 172.988C110.415 172.614 109.613 171.738 109.613 170.494C109.613 169.029 110.676 168.033 112.381 167.866V166.93H113.277V167.859C114.949 168 116.046 169.036 116.092 170.481H114.956C114.929 169.651 114.267 169.016 113.277 168.896V172.166L113.846 172.306C115.477 172.741 116.26 173.55 116.26 174.901C116.26 176.485 115.156 177.488 113.277 177.642V178.545ZM115.103 174.994C115.103 174.112 114.541 173.583 113.277 173.316V176.633C114.441 176.572 115.103 175.971 115.103 174.994ZM110.763 170.427C110.763 171.223 111.325 171.751 112.381 171.972V168.896C111.445 168.949 110.763 169.584 110.763 170.427ZM121.067 177.789C119.222 177.789 117.858 176.639 117.757 174.994H118.941C119.048 176.024 119.924 176.733 121.081 176.733C122.392 176.733 123.301 175.823 123.301 174.526C123.301 173.229 122.385 172.299 121.101 172.299C120.198 172.299 119.429 172.707 119.035 173.383H117.905L118.433 167.98H123.956V169.05H119.423L119.128 172.192H119.155C119.59 171.611 120.392 171.263 121.315 171.263C123.167 171.263 124.505 172.62 124.505 174.493C124.505 176.432 123.08 177.789 121.067 177.789ZM129.139 177.789C126.885 177.789 125.581 175.85 125.581 172.801C125.581 169.778 126.899 167.819 129.139 167.819C131.379 167.819 132.683 169.765 132.683 172.794C132.683 175.843 131.385 177.789 129.139 177.789ZM129.139 176.74C130.643 176.74 131.472 175.208 131.472 172.801C131.472 170.427 130.63 168.876 129.139 168.876C127.647 168.876 126.792 170.44 126.792 172.794C126.792 175.202 127.627 176.74 129.139 176.74ZM134.756 177.696C134.328 177.696 133.993 177.361 133.993 176.933C133.993 176.505 134.328 176.171 134.756 176.171C135.184 176.171 135.518 176.505 135.518 176.933C135.518 177.361 135.184 177.696 134.756 177.696ZM140.654 177.789C138.4 177.789 137.096 175.85 137.096 172.801C137.096 169.778 138.413 167.819 140.654 167.819C142.894 167.819 144.198 169.765 144.198 172.794C144.198 175.843 142.9 177.789 140.654 177.789ZM140.654 176.74C142.158 176.74 142.987 175.208 142.987 172.801C142.987 170.427 142.145 168.876 140.654 168.876C139.162 168.876 138.307 170.44 138.307 172.794C138.307 175.202 139.142 176.74 140.654 176.74ZM148.959 177.789C146.705 177.789 145.401 175.85 145.401 172.801C145.401 169.778 146.719 167.819 148.959 167.819C151.199 167.819 152.503 169.765 152.503 172.794C152.503 175.843 151.206 177.789 148.959 177.789ZM148.959 176.74C150.463 176.74 151.293 175.208 151.293 172.801C151.293 170.427 150.45 168.876 148.959 168.876C147.468 168.876 146.612 170.44 146.612 172.794C146.612 175.202 147.448 176.74 148.959 176.74ZM158.053 169.05V172.747H160.36C161.597 172.747 162.299 172.079 162.299 170.895C162.299 169.738 161.55 169.05 160.307 169.05H158.053ZM158.053 173.811V177.629H156.849V167.98H160.467C162.326 167.98 163.543 169.116 163.543 170.855C163.543 172.199 162.814 173.242 161.604 173.623L163.837 177.629H162.426L160.36 173.811H158.053ZM167.669 171.564C166.579 171.564 165.817 172.4 165.743 173.557H169.521C169.495 172.393 168.766 171.564 167.669 171.564ZM169.495 175.636H170.638C170.437 176.853 169.26 177.749 167.743 177.749C165.75 177.749 164.539 176.365 164.539 174.178C164.539 172.019 165.77 170.554 167.689 170.554C169.568 170.554 170.725 171.918 170.725 174.025V174.466H165.736V174.533C165.736 175.864 166.519 176.74 167.769 176.74C168.652 176.74 169.301 176.292 169.495 175.636ZM177.679 172.955H176.543C176.375 172.199 175.787 171.577 174.764 171.577C173.56 171.577 172.744 172.574 172.744 174.152C172.744 175.77 173.574 176.726 174.777 176.726C175.727 176.726 176.349 176.225 176.549 175.389H177.693C177.512 176.773 176.349 177.749 174.771 177.749C172.845 177.749 171.561 176.392 171.561 174.152C171.561 171.958 172.838 170.554 174.757 170.554C176.496 170.554 177.532 171.704 177.679 172.955ZM181.551 171.564C180.461 171.564 179.699 172.4 179.625 173.557H183.403C183.377 172.393 182.648 171.564 181.551 171.564ZM183.377 175.636H184.52C184.32 176.853 183.143 177.749 181.625 177.749C179.632 177.749 178.422 176.365 178.422 174.178C178.422 172.019 179.652 170.554 181.571 170.554C183.45 170.554 184.607 171.918 184.607 174.025V174.466H179.619V174.533C179.619 175.864 180.401 176.74 181.651 176.74C182.534 176.74 183.183 176.292 183.377 175.636ZM185.844 177.629V170.674H187.008V177.629H185.844ZM186.426 169.504C186.031 169.504 185.704 169.177 185.704 168.782C185.704 168.381 186.031 168.06 186.426 168.06C186.827 168.06 187.155 168.381 187.155 168.782C187.155 169.177 186.827 169.504 186.426 169.504ZM194.283 170.674L191.729 177.629H190.538L187.977 170.674H189.201L191.12 176.392H191.147L193.073 170.674H194.283ZM197.787 171.564C196.697 171.564 195.935 172.4 195.861 173.557H199.639C199.613 172.393 198.884 171.564 197.787 171.564ZM199.613 175.636H200.756C200.556 176.853 199.379 177.749 197.861 177.749C195.868 177.749 194.658 176.365 194.658 174.178C194.658 172.019 195.888 170.554 197.807 170.554C199.686 170.554 200.843 171.918 200.843 174.025V174.466H195.855V174.533C195.855 175.864 196.637 176.74 197.887 176.74C198.77 176.74 199.419 176.292 199.613 175.636ZM204.655 177.749C202.883 177.749 201.679 176.332 201.679 174.152C201.679 171.972 202.876 170.554 204.628 170.554C205.624 170.554 206.427 171.042 206.841 171.805H206.868V167.98H208.032V177.629H206.922V176.452H206.901C206.453 177.254 205.658 177.749 204.655 177.749ZM204.875 171.577C203.645 171.577 202.869 172.58 202.869 174.152C202.869 175.73 203.645 176.726 204.875 176.726C206.072 176.726 206.875 175.71 206.875 174.152C206.875 172.6 206.072 171.577 204.875 171.577ZM212.786 177.629V171.631H211.816V170.674H212.786V169.899C212.786 168.561 213.408 167.926 214.692 167.926C214.953 167.926 215.233 167.953 215.401 167.98V168.922C215.26 168.902 215.066 168.882 214.872 168.882C214.244 168.882 213.943 169.217 213.943 169.905V170.674H215.367V171.631H213.95V177.629H212.786ZM216.571 177.629V170.674H217.667V171.811H217.694C217.922 171.042 218.564 170.554 219.379 170.554C219.58 170.554 219.754 170.588 219.847 170.601V171.731C219.754 171.698 219.506 171.664 219.226 171.664C218.323 171.664 217.734 172.313 217.734 173.296V177.629H216.571ZM223.345 177.749C221.419 177.749 220.122 176.365 220.122 174.152C220.122 171.932 221.419 170.554 223.345 170.554C225.264 170.554 226.561 171.932 226.561 174.152C226.561 176.365 225.264 177.749 223.345 177.749ZM223.345 176.726C224.575 176.726 225.378 175.79 225.378 174.152C225.378 172.513 224.575 171.577 223.345 171.577C222.114 171.577 221.305 172.513 221.305 174.152C221.305 175.79 222.114 176.726 223.345 176.726ZM227.738 177.629V170.674H228.835V171.784H228.861C229.189 171.049 229.898 170.554 230.834 170.554C231.784 170.554 232.486 171.036 232.787 171.878H232.813C233.201 171.049 234.017 170.554 234.993 170.554C236.371 170.554 237.26 171.45 237.26 172.828V177.629H236.097V173.095C236.097 172.146 235.568 171.584 234.652 171.584C233.73 171.584 233.081 172.266 233.081 173.209V177.629H231.917V172.968C231.917 172.132 231.356 171.584 230.493 171.584C229.57 171.584 228.902 172.306 228.902 173.269V177.629H227.738ZM251.243 177.629H250.119V170.193H250.073L246.997 177.562H245.98L242.904 170.193H242.857V177.629H241.734V167.98H243.131L246.462 176.031H246.515L249.845 167.98H251.243V177.629ZM252.995 177.629V170.674H254.158V177.629H252.995ZM253.577 169.504C253.182 169.504 252.854 169.177 252.854 168.782C252.854 168.381 253.182 168.06 253.577 168.06C253.978 168.06 254.305 168.381 254.305 168.782C254.305 169.177 253.978 169.504 253.577 169.504ZM255.79 177.629V167.98H256.953V177.629H255.79ZM261.313 171.564C260.223 171.564 259.461 172.4 259.387 173.557H263.166C263.139 172.393 262.41 171.564 261.313 171.564ZM263.139 175.636H264.282C264.082 176.853 262.905 177.749 261.387 177.749C259.394 177.749 258.184 176.365 258.184 174.178C258.184 172.019 259.414 170.554 261.333 170.554C263.212 170.554 264.369 171.918 264.369 174.025V174.466H259.381V174.533C259.381 175.864 260.163 176.74 261.414 176.74C262.296 176.74 262.945 176.292 263.139 175.636ZM265.426 172.594C265.426 171.403 266.489 170.554 268.02 170.554C269.458 170.554 270.515 171.41 270.568 172.587H269.458C269.378 171.918 268.836 171.504 267.98 171.504C267.131 171.504 266.569 171.925 266.569 172.533C266.569 173.015 266.937 173.336 267.726 173.536L268.803 173.797C270.207 174.152 270.715 174.66 270.715 175.683C270.715 176.893 269.572 177.749 267.947 177.749C266.422 177.749 265.359 176.92 265.239 175.69H266.402C266.529 176.412 267.078 176.8 268.02 176.8C268.963 176.8 269.545 176.399 269.545 175.77C269.545 175.275 269.257 175.008 268.475 174.8L267.251 174.486C266.028 174.172 265.426 173.543 265.426 172.594ZM280.893 176.546V177.629H274.915V167.98H280.893V169.063H276.118V172.159H280.645V173.229H276.118V176.546H280.893ZM282.183 172.594C282.183 171.403 283.247 170.554 284.778 170.554C286.216 170.554 287.272 171.41 287.326 172.587H286.216C286.135 171.918 285.594 171.504 284.738 171.504C283.889 171.504 283.327 171.925 283.327 172.533C283.327 173.015 283.695 173.336 284.484 173.536L285.56 173.797C286.965 174.152 287.473 174.66 287.473 175.683C287.473 176.893 286.329 177.749 284.704 177.749C283.18 177.749 282.117 176.92 281.996 175.69H283.16C283.287 176.412 283.835 176.8 284.778 176.8C285.721 176.8 286.303 176.399 286.303 175.77C286.303 175.275 286.015 175.008 285.233 174.8L284.009 174.486C282.785 174.172 282.183 173.543 282.183 172.594ZM289.058 168.996H290.221V170.674H291.572V171.631H290.221V175.763C290.221 176.399 290.489 176.686 291.084 176.686C291.217 176.686 291.485 176.666 291.565 176.653V177.629C291.425 177.662 291.104 177.682 290.83 177.682C289.552 177.682 289.058 177.161 289.058 175.823V171.631H288.021V170.674H289.058V168.996ZM292.876 177.629V167.98H294.039V171.784H294.066C294.454 171.009 295.216 170.554 296.273 170.554C297.797 170.554 298.72 171.584 298.72 173.135V177.629H297.557V173.349C297.557 172.246 297.002 171.584 295.912 171.584C294.755 171.584 294.039 172.373 294.039 173.577V177.629H292.876ZM302.987 171.564C301.897 171.564 301.134 172.4 301.061 173.557H304.839C304.812 172.393 304.083 171.564 302.987 171.564ZM304.812 175.636H305.956C305.755 176.853 304.578 177.749 303.06 177.749C301.067 177.749 299.857 176.365 299.857 174.178C299.857 172.019 301.087 170.554 303.007 170.554C304.886 170.554 306.042 171.918 306.042 174.025V174.466H301.054V174.533C301.054 175.864 301.836 176.74 303.087 176.74C303.97 176.74 304.618 176.292 304.812 175.636ZM307.219 177.629V170.674H308.316V171.811H308.343C308.57 171.042 309.212 170.554 310.028 170.554C310.229 170.554 310.402 170.588 310.496 170.601V171.731C310.402 171.698 310.155 171.664 309.874 171.664C308.971 171.664 308.383 172.313 308.383 173.296V177.629H307.219Z" fill="white"/>
<defs>
<linearGradient id="paint0_linear_10627_14248" x1="191.729" y1="0" x2="191.729" y2="43.0929" gradientUnits="userSpaceOnUse">
<stop stop-color="white"/>
<stop offset="1" stop-color="white" stop-opacity="0"/>
</linearGradient>
<linearGradient id="paint1_linear_10627_14248" x1="191.729" y1="68.4727" x2="191.729" y2="116.635" gradientUnits="userSpaceOnUse">
<stop stop-color="white"/>
<stop offset="1" stop-color="white" stop-opacity="0"/>
</linearGradient>
<linearGradient id="paint2_linear_10627_14248" x1="191.729" y1="143.797" x2="191.729" y2="186.89" gradientUnits="userSpaceOnUse">
<stop stop-color="white"/>
<stop offset="1" stop-color="white" stop-opacity="0"/>
</linearGradient>
</defs>
</svg>
