<svg width="37" height="37" viewBox="0 0 37 37" fill="none" xmlns="http://www.w3.org/2000/svg">
<path d="M24.6827 3.05078H11.9067C6.35717 3.05078 3.04883 6.35913 3.04883 11.9086V24.6694C3.04883 30.2341 6.35717 33.5424 11.9067 33.5424H24.6674C30.2169 33.5424 33.5252 30.2341 33.5252 24.6846V11.9086C33.5405 6.35913 30.2321 3.05078 24.6827 3.05078ZM11.6322 27.6728C11.6322 28.2979 11.1139 28.8162 10.4888 28.8162C9.86372 28.8162 9.34536 28.2979 9.34536 27.6728V24.5169C9.34536 23.8918 9.86372 23.3735 10.4888 23.3735C11.1139 23.3735 11.6322 23.8918 11.6322 24.5169V27.6728ZM19.4381 27.6728C19.4381 28.2979 18.9197 28.8162 18.2947 28.8162C17.6696 28.8162 17.1512 28.2979 17.1512 27.6728V21.3458C17.1512 20.7207 17.6696 20.2023 18.2947 20.2023C18.9197 20.2023 19.4381 20.7207 19.4381 21.3458V27.6728ZM27.244 27.6728C27.244 28.2979 26.7256 28.8162 26.1005 28.8162C25.4754 28.8162 24.9571 28.2979 24.9571 27.6728V18.1899C24.9571 17.5648 25.4754 17.0465 26.1005 17.0465C26.7256 17.0465 27.244 17.5648 27.244 18.1899V27.6728ZM27.2516 13.3722C27.2474 13.3722 27.244 13.3757 27.2439 13.3799C27.2397 14.0015 26.7231 14.5156 26.1005 14.5156C25.4754 14.5156 24.9571 13.9973 24.9571 13.3722V13.3722C24.9571 12.833 24.2948 12.5601 23.9004 12.9278C20.2025 16.3764 15.7235 18.8285 10.7632 20.0651C10.6717 20.0956 10.5803 20.0956 10.4888 20.0956C9.97044 20.0956 9.51306 19.745 9.37585 19.2266C9.22339 18.6168 9.58929 17.9917 10.2144 17.8392C14.73 16.7137 18.8098 14.4929 22.1952 11.3839C22.7242 10.8981 22.3669 10.0486 21.6487 10.0486V10.0486C21.0237 10.0486 20.5053 9.53026 20.5053 8.90518C20.5053 8.2801 21.0237 7.76174 21.6487 7.76174H26.1158V7.76174C26.2295 7.76174 26.3415 7.7938 26.4523 7.81948C26.4723 7.8241 26.4922 7.82999 26.5122 7.83797C26.5884 7.86846 26.6494 7.9142 26.7256 7.95994C26.7689 7.98882 26.8122 8.00402 26.8556 8.03145C26.8604 8.03453 26.8668 8.0402 26.8702 8.04488V8.04488C26.8837 8.06375 26.9027 8.07577 26.9185 8.09272C26.9673 8.14502 27.0065 8.19731 27.0458 8.24961V8.24961C27.1256 8.35612 27.172 8.48096 27.1975 8.61163C27.1977 8.61292 27.198 8.61421 27.1982 8.61551C27.2135 8.69174 27.244 8.76797 27.244 8.85944C27.244 8.87469 27.2592 8.88994 27.2592 8.90518V13.3646C27.2592 13.3688 27.2558 13.3722 27.2516 13.3722V13.3722Z" fill="#32AE4C"/>
</svg>
