<svg width="387" height="56" viewBox="0 0 387 56" fill="none" xmlns="http://www.w3.org/2000/svg">
<rect x="0.5" y="0.5" width="188" height="55" rx="11.5" fill="black"/>
<rect x="0.5" y="0.5" width="188" height="55" rx="11.5" stroke="#A6A6A6"/>
<path d="M95.3906 30.4528C92.0978 30.4528 89.414 32.9574 89.414 36.407C89.414 39.8356 92.0978 42.3612 95.3906 42.3612C98.6848 42.3612 101.369 39.8356 101.369 36.407C101.367 32.9574 98.6834 30.4528 95.3906 30.4528ZM95.3906 40.0176C93.586 40.0176 92.0306 38.5294 92.0306 36.4084C92.0306 34.265 93.5874 32.7992 95.3906 32.7992C97.1952 32.7992 98.7506 34.265 98.7506 36.4084C98.7506 38.528 97.1952 40.0176 95.3906 40.0176ZM82.351 30.4528C79.0582 30.4528 76.3744 32.9574 76.3744 36.407C76.3744 39.8356 79.0582 42.3612 82.351 42.3612C85.6452 42.3612 88.329 39.8356 88.329 36.407C88.329 32.9574 85.6452 30.4528 82.351 30.4528ZM82.351 40.0176C80.5464 40.0176 78.991 38.5294 78.991 36.4084C78.991 34.265 80.5478 32.7992 82.351 32.7992C84.1556 32.7992 85.711 34.265 85.711 36.4084C85.7124 38.528 84.1556 40.0176 82.351 40.0176ZM66.8418 32.2812V34.8068H72.887C72.7064 36.2278 72.2332 37.2652 71.5108 37.9862C70.6316 38.8654 69.2554 39.8356 66.8418 39.8356C63.1206 39.8356 60.2114 36.8354 60.2114 33.1142C60.2114 29.393 63.1206 26.3928 66.8418 26.3928C68.8494 26.3928 70.3152 27.1824 71.3974 28.1974L73.1796 26.4152C71.6676 24.9718 69.6614 23.8672 66.8418 23.8672C61.7444 23.8672 57.459 28.0168 57.459 33.1142C57.459 38.2116 61.7444 42.3612 66.8418 42.3612C69.5928 42.3612 71.669 41.4582 73.2916 39.767C74.9604 38.0982 75.4798 35.7518 75.4798 33.8576C75.4798 33.2724 75.435 32.7306 75.344 32.2798H66.8418V32.2812ZM130.273 34.2426C129.777 32.9126 128.265 30.4528 125.176 30.4528C122.108 30.4528 119.559 32.8664 119.559 36.407C119.559 39.7446 122.086 42.3612 125.468 42.3612C128.197 42.3612 129.776 40.6924 130.431 39.7222L128.401 38.3684C127.725 39.361 126.8 40.0148 125.468 40.0148C124.138 40.0148 123.19 39.4058 122.581 38.2102L130.543 34.9174L130.273 34.2426ZM122.153 36.2278C122.086 33.9262 123.935 32.7544 125.267 32.7544C126.304 32.7544 127.183 33.2738 127.477 34.0172L122.153 36.2278ZM115.681 42.0014H118.296V24.5H115.681V42.0014ZM111.394 31.7842H111.304C110.718 31.0842 109.589 30.4528 108.17 30.4528C105.192 30.4528 102.463 33.0694 102.463 36.4308C102.463 39.7684 105.192 42.3626 108.17 42.3626C109.591 42.3626 110.718 41.7312 111.304 41.0102H111.394V41.867C111.394 44.1448 110.176 45.3628 108.215 45.3628C106.613 45.3628 105.62 44.2134 105.214 43.2432L102.937 44.191C103.59 45.7688 105.326 47.7092 108.215 47.7092C111.282 47.7092 113.876 45.9046 113.876 41.5058V30.8154H111.395V31.7842H111.394ZM108.395 40.0176C106.591 40.0176 105.08 38.5056 105.08 36.4308C105.08 34.3322 106.591 32.7992 108.395 32.7992C110.176 32.7992 111.575 34.3322 111.575 36.4308C111.575 38.5056 110.176 40.0176 108.395 40.0176ZM142.529 24.5H136.269V42.0014H138.88V35.371H142.527C145.422 35.371 148.27 33.2752 148.27 29.9362C148.27 26.5972 145.424 24.5 142.529 24.5ZM142.596 32.935H138.88V26.936H142.596C144.549 26.936 145.658 28.553 145.658 29.9362C145.658 31.2914 144.549 32.935 142.596 32.935ZM158.741 30.422C156.849 30.422 154.891 31.255 154.08 33.1016L156.398 34.069C156.894 33.1016 157.818 32.7852 158.785 32.7852C160.136 32.7852 161.51 33.5958 161.532 35.0364V35.217C161.059 34.9468 160.045 34.5422 158.808 34.5422C156.309 34.5422 153.764 35.9156 153.764 38.4818C153.764 40.824 155.813 42.3318 158.109 42.3318C159.865 42.3318 160.834 41.5436 161.441 40.6196H161.531V41.9706H164.054V35.2604C164.055 32.1552 161.734 30.422 158.741 30.422ZM158.424 40.0134C157.57 40.0134 156.376 39.585 156.376 38.5266C156.376 37.1756 157.863 36.6576 159.147 36.6576C160.293 36.6576 160.835 36.9054 161.532 37.2428C161.329 38.8654 159.933 40.0134 158.424 40.0134ZM173.24 30.8042L170.246 38.3922H170.156L167.048 30.8042H164.234L168.895 41.4092L166.238 47.3088H168.962L176.145 30.8042H173.24ZM149.712 42.0014H152.323V24.5H149.712V42.0014Z" fill="white"/>
<path d="M66.385 14.3385C66.385 15.5117 66.0378 16.4455 65.342 17.1427C64.5524 17.9715 63.522 18.3859 62.2564 18.3859C61.044 18.3859 60.0122 17.9659 59.1652 17.1259C58.3168 16.2845 57.8926 15.2429 57.8926 13.9997C57.8926 12.7551 58.3168 11.7135 59.1652 10.8735C60.0122 10.0321 61.044 9.61211 62.2564 9.61211C62.8584 9.61211 63.4338 9.72971 63.9798 9.96351C64.5272 10.1987 64.9654 10.5109 65.293 10.9015L64.5552 11.6407C63.9994 10.9757 63.2336 10.6439 62.255 10.6439C61.3702 10.6439 60.6058 10.9547 59.9604 11.5763C59.315 12.1979 58.993 13.0057 58.993 13.9983C58.993 14.9909 59.315 15.7987 59.9604 16.4203C60.6058 17.0419 61.3702 17.3527 62.255 17.3527C63.193 17.3527 63.9756 17.0405 64.6014 16.4147C65.0074 16.0073 65.2426 15.4403 65.3056 14.7137H62.255V13.7043H66.3248C66.3668 13.9241 66.385 14.1355 66.385 14.3385Z" fill="white"/>
<path d="M72.8391 10.8302H69.0143V13.493H72.4639V14.5024H69.0143V17.1652H72.8391V18.1984H67.9349V9.79839H72.8391V10.8302Z" fill="white"/>
<path d="M77.3903 18.1984H76.311V10.8302H73.9646V9.79839H79.7367V10.8302H77.3903V18.1984Z" fill="white"/>
<path d="M83.9129 18.1984V9.79839H84.9923V18.1984H83.9129Z" fill="white"/>
<path d="M89.7791 18.1984H88.6997V10.8302H86.3533V9.79839H92.1255V10.8302H89.7791V18.1984Z" fill="white"/>
<path d="M103.052 17.1134C102.226 17.9618 101.2 18.386 99.9722 18.386C98.7444 18.386 97.7182 17.9618 96.8936 17.1134C96.0676 16.265 95.656 15.2262 95.656 13.9984C95.656 12.7706 96.0676 11.7318 96.8936 10.8834C97.7182 10.035 98.7444 9.60938 99.9722 9.60938C101.193 9.60938 102.218 10.0364 103.047 10.889C103.875 11.7416 104.29 12.7776 104.29 13.9984C104.29 15.2262 103.877 16.265 103.052 17.1134ZM97.6902 16.4092C98.3118 17.0392 99.072 17.3528 99.9722 17.3528C100.872 17.3528 101.634 17.0378 102.254 16.4092C102.876 15.7792 103.188 14.9756 103.188 13.9984C103.188 13.0212 102.876 12.2176 102.254 11.5876C101.634 10.9576 100.872 10.644 99.9722 10.644C99.072 10.644 98.3118 10.959 97.6902 11.5876C97.07 12.2176 96.7578 13.0212 96.7578 13.9984C96.7578 14.9756 97.07 15.7792 97.6902 16.4092Z" fill="white"/>
<path d="M105.805 18.1984V9.79839H107.118L111.2 16.3322H111.246L111.2 14.7138V9.79839H112.28V18.1984H111.153L106.881 11.3468H106.835L106.881 12.9652V18.1984H105.805Z" fill="white"/>
<path d="M66.385 14.3385C66.385 15.5117 66.0378 16.4455 65.342 17.1427C64.5524 17.9715 63.522 18.3859 62.2564 18.3859C61.044 18.3859 60.0122 17.9659 59.1652 17.1259C58.3168 16.2845 57.8926 15.2429 57.8926 13.9997C57.8926 12.7551 58.3168 11.7135 59.1652 10.8735C60.0122 10.0321 61.044 9.61211 62.2564 9.61211C62.8584 9.61211 63.4338 9.72971 63.9798 9.96351C64.5272 10.1987 64.9654 10.5109 65.293 10.9015L64.5552 11.6407C63.9994 10.9757 63.2336 10.6439 62.255 10.6439C61.3702 10.6439 60.6058 10.9547 59.9604 11.5763C59.315 12.1979 58.993 13.0057 58.993 13.9983C58.993 14.9909 59.315 15.7987 59.9604 16.4203C60.6058 17.0419 61.3702 17.3527 62.255 17.3527C63.193 17.3527 63.9756 17.0405 64.6014 16.4147C65.0074 16.0073 65.2426 15.4403 65.3056 14.7137H62.255V13.7043H66.3248C66.3668 13.9241 66.385 14.1355 66.385 14.3385Z" stroke="white" stroke-width="0.2" stroke-miterlimit="10"/>
<path d="M72.8391 10.8302H69.0143V13.493H72.4639V14.5024H69.0143V17.1652H72.8391V18.1984H67.9349V9.79839H72.8391V10.8302Z" stroke="white" stroke-width="0.2" stroke-miterlimit="10"/>
<path d="M77.3903 18.1984H76.311V10.8302H73.9646V9.79839H79.7367V10.8302H77.3903V18.1984Z" stroke="white" stroke-width="0.2" stroke-miterlimit="10"/>
<path d="M83.9129 18.1984V9.79839H84.9923V18.1984H83.9129Z" stroke="white" stroke-width="0.2" stroke-miterlimit="10"/>
<path d="M89.7791 18.1984H88.6997V10.8302H86.3533V9.79839H92.1255V10.8302H89.7791V18.1984Z" stroke="white" stroke-width="0.2" stroke-miterlimit="10"/>
<path d="M103.052 17.1134C102.226 17.9618 101.2 18.386 99.9722 18.386C98.7444 18.386 97.7182 17.9618 96.8936 17.1134C96.0676 16.265 95.656 15.2262 95.656 13.9984C95.656 12.7706 96.0676 11.7318 96.8936 10.8834C97.7182 10.035 98.7444 9.60938 99.9722 9.60938C101.193 9.60938 102.218 10.0364 103.047 10.889C103.875 11.7416 104.29 12.7776 104.29 13.9984C104.29 15.2262 103.877 16.265 103.052 17.1134ZM97.6902 16.4092C98.3118 17.0392 99.072 17.3528 99.9722 17.3528C100.872 17.3528 101.634 17.0378 102.254 16.4092C102.876 15.7792 103.188 14.9756 103.188 13.9984C103.188 13.0212 102.876 12.2176 102.254 11.5876C101.634 10.9576 100.872 10.644 99.9722 10.644C99.072 10.644 98.3118 10.959 97.6902 11.5876C97.07 12.2176 96.7578 13.0212 96.7578 13.9984C96.7578 14.9756 97.07 15.7792 97.6902 16.4092Z" stroke="white" stroke-width="0.2" stroke-miterlimit="10"/>
<path d="M105.805 18.1984V9.79839H107.118L111.2 16.3322H111.246L111.2 14.7138V9.79839H112.28V18.1984H111.153L106.881 11.3468H106.835L106.881 12.9652V18.1984H105.805Z" stroke="white" stroke-width="0.2" stroke-miterlimit="10"/>
<g filter="url(#filter0_ii_11106_18678)">
<path d="M14.6111 10.5514C14.2037 10.9826 13.9629 11.6518 13.9629 12.5184V43.4808C13.9629 44.3488 14.2037 45.0166 14.6111 45.4478L14.7147 45.5486L32.0593 28.204V27.9996V27.7952L14.7147 10.4492L14.6111 10.5514Z" fill="url(#paint0_linear_11106_18678)"/>
<path d="M37.8392 33.9898L32.0586 28.2064V28.002V27.7976L37.8406 22.0156L37.9708 22.0898L44.821 25.9818C46.7768 27.0934 46.7768 28.912 44.821 30.025L37.9708 33.917L37.8392 33.9898Z" fill="url(#paint1_linear_11106_18678)"/>
<g filter="url(#filter1_i_11106_18678)">
<path d="M37.9717 33.9136L32.0581 28L14.6113 45.4482C15.2553 46.1314 16.3207 46.2154 17.5205 45.535L37.9717 33.9136Z" fill="url(#paint2_linear_11106_18678)"/>
</g>
<path d="M37.9717 22.0866L17.5205 10.4666C16.3207 9.7848 15.2553 9.8702 14.6113 10.5534L32.0595 28.0016L37.9717 22.0866Z" fill="url(#paint3_linear_11106_18678)"/>
</g>
<rect x="219.5" y="0.5" width="167" height="55" rx="10.5" fill="black"/>
<rect x="219.5" y="0.5" width="167" height="55" rx="10.5" stroke="#A6A6A6"/>
<path d="M333.135 26.8805V30.0879H331.125V32.1914H333.135V39.3383C333.135 41.7788 334.239 42.7549 337.017 42.7549C337.505 42.7549 337.97 42.6968 338.376 42.6271V40.5469C338.028 40.5818 337.807 40.605 337.424 40.605C336.18 40.605 335.634 40.024 335.634 38.6992V32.1914H338.376V30.0879H335.634V26.8805H333.135Z" fill="white"/>
<path d="M345.452 42.9292C349.147 42.9292 351.413 40.454 351.413 36.3517C351.413 32.2727 349.136 29.7858 345.452 29.7858C341.756 29.7858 339.479 32.2727 339.479 36.3517C339.479 40.454 341.745 42.9292 345.452 42.9292ZM345.452 40.7096C343.279 40.7096 342.059 39.1175 342.059 36.3517C342.059 33.6091 343.279 32.0054 345.452 32.0054C347.613 32.0054 348.845 33.6091 348.845 36.3517C348.845 39.1059 347.613 40.7096 345.452 40.7096Z" fill="white"/>
<path d="M353.352 42.6852H355.851V35.2128C355.851 33.4348 357.187 32.2378 359.082 32.2378C359.523 32.2378 360.267 32.3192 360.476 32.3889V29.9252C360.209 29.8555 359.732 29.8207 359.36 29.8207C357.71 29.8207 356.304 30.7271 355.944 31.9706H355.758V30.0298H353.352V42.6852Z" fill="white"/>
<path d="M366.68 31.9125C368.528 31.9125 369.736 33.2024 369.794 35.1896H363.403C363.542 33.214 364.832 31.9125 366.68 31.9125ZM369.783 39.2686C369.318 40.2564 368.284 40.8026 366.773 40.8026C364.774 40.8026 363.484 39.3964 363.403 37.1768V37.0374H372.339V36.1658C372.339 32.1914 370.213 29.7858 366.692 29.7858C363.124 29.7858 360.858 32.3541 360.858 36.3982C360.858 40.4423 363.077 42.9292 366.703 42.9292C369.597 42.9292 371.619 41.5347 372.188 39.2686H369.783Z" fill="white"/>
<path d="M316.75 38.0118C316.943 41.1194 319.533 43.1068 323.387 43.1068C327.506 43.1068 330.084 41.023 330.084 37.6986C330.084 35.0849 328.615 33.6395 325.049 32.8084L323.134 32.3386C320.87 31.8086 319.954 31.098 319.954 29.8574C319.954 28.2915 321.376 27.2677 323.508 27.2677C325.531 27.2677 326.928 28.2674 327.181 29.8694H329.807C329.65 26.9425 327.073 24.8828 323.544 24.8828C319.75 24.8828 317.22 26.9425 317.22 30.038C317.22 32.5916 318.653 34.1092 321.797 34.844L324.038 35.386C326.338 35.928 327.35 36.723 327.35 38.0479C327.35 39.5897 325.76 40.7098 323.592 40.7098C321.267 40.7098 319.653 39.6619 319.424 38.0118H316.75Z" fill="white"/>
<path d="M290.868 29.8207C289.148 29.8207 287.661 30.6806 286.894 32.1216H286.708V30.0298H284.302V46.892H286.801V40.7677H286.998C287.661 42.1042 289.09 42.8944 290.891 42.8944C294.087 42.8944 296.121 40.3726 296.121 36.3517C296.121 32.3308 294.087 29.8207 290.868 29.8207ZM290.159 40.6515C288.067 40.6515 286.754 39.0013 286.754 36.3633C286.754 33.7137 288.067 32.0635 290.171 32.0635C292.286 32.0635 293.553 33.6789 293.553 36.3517C293.553 39.0362 292.286 40.6515 290.159 40.6515Z" fill="white"/>
<path d="M304.864 29.8207C303.144 29.8207 301.656 30.6806 300.889 32.1216H300.703V30.0298H298.298V46.892H300.796V40.7677H300.994C301.656 42.1042 303.086 42.8944 304.887 42.8944C308.083 42.8944 310.116 40.3726 310.116 36.3517C310.116 32.3308 308.083 29.8207 304.864 29.8207ZM304.155 40.6515C302.063 40.6515 300.75 39.0013 300.75 36.3633C300.75 33.7137 302.063 32.0635 304.166 32.0635C306.281 32.0635 307.548 33.6789 307.548 36.3517C307.548 39.0362 306.281 40.6515 304.155 40.6515Z" fill="white"/>
<path d="M279.819 42.6852H282.686L276.411 25.3044H273.508L267.232 42.6852H270.003L271.605 38.072H278.229L279.819 42.6852ZM274.821 28.4602H275.025L277.543 35.8076H272.291L274.821 28.4602Z" fill="white"/>
<path d="M268.912 12.1938V20.5784H271.939C274.438 20.5784 275.885 19.0386 275.885 16.36C275.885 13.722 274.426 12.1938 271.939 12.1938H268.912ZM270.214 13.3792H271.794C273.531 13.3792 274.56 14.4832 274.56 16.3774C274.56 18.3007 273.549 19.3931 271.794 19.3931H270.214V13.3792Z" fill="white"/>
<path d="M280.316 20.7004C282.164 20.7004 283.297 19.4628 283.297 17.4117C283.297 15.3722 282.158 14.1287 280.316 14.1287C278.468 14.1287 277.329 15.3722 277.329 17.4117C277.329 19.4628 278.462 20.7004 280.316 20.7004ZM280.316 19.5906C279.229 19.5906 278.619 18.7946 278.619 17.4117C278.619 16.0404 279.229 15.2385 280.316 15.2385C281.397 15.2385 282.013 16.0404 282.013 17.4117C282.013 18.7888 281.397 19.5906 280.316 19.5906Z" fill="white"/>
<path d="M292.946 14.2507H291.696L290.569 19.0793H290.47L289.169 14.2507H287.972L286.67 19.0793H286.577L285.444 14.2507H284.178L285.921 20.5784H287.205L288.506 15.9184H288.605L289.913 20.5784H291.208L292.946 14.2507Z" fill="white"/>
<path d="M294.384 20.5784H295.634V16.8771C295.634 15.8893 296.221 15.2734 297.144 15.2734C298.068 15.2734 298.51 15.7789 298.51 16.7958V20.5784H299.759V16.482C299.759 14.9771 298.981 14.1287 297.569 14.1287C296.616 14.1287 295.988 14.5529 295.68 15.256H295.587V14.2507H294.384V20.5784Z" fill="white"/>
<path d="M301.727 20.5784H302.976V11.7812H301.727V20.5784Z" fill="white"/>
<path d="M307.674 20.7004C309.522 20.7004 310.655 19.4628 310.655 17.4117C310.655 15.3722 309.516 14.1287 307.674 14.1287C305.827 14.1287 304.688 15.3722 304.688 17.4117C304.688 19.4628 305.821 20.7004 307.674 20.7004ZM307.674 19.5906C306.588 19.5906 305.978 18.7946 305.978 17.4117C305.978 16.0404 306.588 15.2385 307.674 15.2385C308.755 15.2385 309.371 16.0404 309.371 17.4117C309.371 18.7888 308.755 19.5906 307.674 19.5906Z" fill="white"/>
<path d="M314.377 19.6313C313.697 19.6313 313.204 19.3001 313.204 18.7307C313.204 18.1729 313.599 17.8765 314.47 17.8184L316.016 17.7196V18.2484C316.016 19.0328 315.319 19.6313 314.377 19.6313ZM314.058 20.683C314.889 20.683 315.58 20.3228 315.958 19.6894H316.057V20.5784H317.259V16.2554C317.259 14.9189 316.365 14.1287 314.778 14.1287C313.343 14.1287 312.32 14.826 312.193 15.9125H313.401C313.541 15.4651 314.023 15.2095 314.72 15.2095C315.574 15.2095 316.016 15.5872 316.016 16.2554V16.8016L314.302 16.9003C312.797 16.9933 311.949 17.6499 311.949 18.7888C311.949 19.9451 312.838 20.683 314.058 20.683Z" fill="white"/>
<path d="M321.499 20.683C322.37 20.683 323.108 20.2705 323.486 19.579H323.585V20.5784H324.782V11.7812H323.532V15.256H323.439C323.097 14.5587 322.364 14.1461 321.499 14.1461C319.901 14.1461 318.872 15.4128 318.872 17.4117C318.872 19.4163 319.889 20.683 321.499 20.683ZM321.853 15.2676C322.899 15.2676 323.556 16.0985 323.556 17.4175C323.556 18.7423 322.905 19.5616 321.853 19.5616C320.796 19.5616 320.162 18.7539 320.162 17.4117C320.162 16.0811 320.801 15.2676 321.853 15.2676Z" fill="white"/>
<path d="M332.883 20.7004C334.73 20.7004 335.864 19.4628 335.864 17.4117C335.864 15.3722 334.725 14.1287 332.883 14.1287C331.035 14.1287 329.896 15.3722 329.896 17.4117C329.896 19.4628 331.029 20.7004 332.883 20.7004ZM332.883 19.5906C331.796 19.5906 331.186 18.7946 331.186 17.4117C331.186 16.0404 331.796 15.2385 332.883 15.2385C333.964 15.2385 334.579 16.0404 334.579 17.4117C334.579 18.7888 333.964 19.5906 332.883 19.5906Z" fill="white"/>
<path d="M337.517 20.5784H338.767V16.8771C338.767 15.8893 339.353 15.2734 340.277 15.2734C341.201 15.2734 341.643 15.7789 341.643 16.7958V20.5784H342.892V16.482C342.892 14.9771 342.113 14.1287 340.701 14.1287C339.748 14.1287 339.121 14.5529 338.813 15.256H338.72V14.2507H337.517V20.5784Z" fill="white"/>
<path d="M348.646 12.6761V14.2798H347.64V15.3315H348.646V18.905C348.646 20.1252 349.198 20.6133 350.586 20.6133C350.83 20.6133 351.063 20.5842 351.266 20.5494V19.5093C351.092 19.5267 350.981 19.5383 350.79 19.5383C350.168 19.5383 349.895 19.2478 349.895 18.5854V15.3315H351.266V14.2798H349.895V12.6761H348.646Z" fill="white"/>
<path d="M352.943 20.5784H354.192V16.8829C354.192 15.9242 354.762 15.2792 355.784 15.2792C356.668 15.2792 357.138 15.7905 357.138 16.8016V20.5784H358.388V16.4936C358.388 14.9887 357.557 14.1345 356.209 14.1345C355.256 14.1345 354.587 14.5587 354.28 15.2676H354.181V11.7812H352.943V20.5784Z" fill="white"/>
<path d="M362.894 15.192C363.818 15.192 364.422 15.837 364.451 16.8306H361.256C361.325 15.8428 361.97 15.192 362.894 15.192ZM364.446 18.8701C364.213 19.364 363.696 19.6371 362.941 19.6371C361.941 19.6371 361.296 18.934 361.256 17.8242V17.7545H365.724V17.3187C365.724 15.3315 364.661 14.1287 362.9 14.1287C361.116 14.1287 359.983 15.4128 359.983 17.4349C359.983 19.457 361.093 20.7004 362.906 20.7004C364.353 20.7004 365.364 20.0032 365.648 18.8701H364.446Z" fill="white"/>
<path d="M253.677 28.4195C253.708 26.0661 254.971 23.8393 256.976 22.6067C255.712 20.8002 253.593 19.6549 251.389 19.5859C249.038 19.3391 246.759 20.9927 245.561 20.9927C244.339 20.9927 242.495 19.6104 240.509 19.6513C237.92 19.7349 235.506 21.2068 234.247 23.4703C231.539 28.1581 233.559 35.0475 236.152 38.8368C237.45 40.6923 238.967 42.7649 240.951 42.6914C242.893 42.6109 243.618 41.4531 245.962 41.4531C248.284 41.4531 248.965 42.6914 250.99 42.6447C253.073 42.6109 254.386 40.781 255.638 38.9079C256.571 37.5858 257.288 36.1246 257.764 34.5784C255.315 33.5427 253.68 31.0783 253.677 28.4195Z" fill="white"/>
<path d="M249.853 17.0939C250.989 15.73 251.549 13.977 251.413 12.207C249.677 12.3893 248.074 13.2189 246.923 14.5305C245.797 15.8119 245.211 17.5342 245.321 19.2364C247.058 19.2543 248.765 18.4472 249.853 17.0939Z" fill="white"/>
<defs>
<filter id="filter0_ii_11106_18678" x="13.9629" y="9.99609" width="32.3242" height="36.0078" filterUnits="userSpaceOnUse" color-interpolation-filters="sRGB">
<feFlood flood-opacity="0" result="BackgroundImageFix"/>
<feBlend mode="normal" in="SourceGraphic" in2="BackgroundImageFix" result="shape"/>
<feColorMatrix in="SourceAlpha" type="matrix" values="0 0 0 0 0 0 0 0 0 0 0 0 0 0 0 0 0 0 127 0" result="hardAlpha"/>
<feOffset dy="-0.15"/>
<feComposite in2="hardAlpha" operator="arithmetic" k2="-1" k3="1"/>
<feColorMatrix type="matrix" values="0 0 0 0 0 0 0 0 0 0 0 0 0 0 0 0 0 0 0.12 0"/>
<feBlend mode="normal" in2="shape" result="effect1_innerShadow_11106_18678"/>
<feColorMatrix in="SourceAlpha" type="matrix" values="0 0 0 0 0 0 0 0 0 0 0 0 0 0 0 0 0 0 127 0" result="hardAlpha"/>
<feOffset dy="0.15"/>
<feComposite in2="hardAlpha" operator="arithmetic" k2="-1" k3="1"/>
<feColorMatrix type="matrix" values="0 0 0 0 1 0 0 0 0 1 0 0 0 0 1 0 0 0 0.25 0"/>
<feBlend mode="normal" in2="effect1_innerShadow_11106_18678" result="effect2_innerShadow_11106_18678"/>
</filter>
<filter id="filter1_i_11106_18678" x="14.6113" y="28" width="23.3613" height="18.0039" filterUnits="userSpaceOnUse" color-interpolation-filters="sRGB">
<feFlood flood-opacity="0" result="BackgroundImageFix"/>
<feBlend mode="normal" in="SourceGraphic" in2="BackgroundImageFix" result="shape"/>
<feColorMatrix in="SourceAlpha" type="matrix" values="0 0 0 0 0 0 0 0 0 0 0 0 0 0 0 0 0 0 127 0" result="hardAlpha"/>
<feOffset dy="-0.15"/>
<feComposite in2="hardAlpha" operator="arithmetic" k2="-1" k3="1"/>
<feColorMatrix type="matrix" values="0 0 0 0 0 0 0 0 0 0 0 0 0 0 0 0 0 0 0.08 0"/>
<feBlend mode="normal" in2="shape" result="effect1_innerShadow_11106_18678"/>
</filter>
<linearGradient id="paint0_linear_11106_18678" x1="30.5218" y1="12.1908" x2="7.02702" y2="35.6856" gradientUnits="userSpaceOnUse">
<stop stop-color="#00A0FF"/>
<stop offset="0.0066" stop-color="#00A1FF"/>
<stop offset="0.2601" stop-color="#00BEFF"/>
<stop offset="0.5122" stop-color="#00D2FF"/>
<stop offset="0.7604" stop-color="#00DFFF"/>
<stop offset="1" stop-color="#00E3FF"/>
</linearGradient>
<linearGradient id="paint1_linear_11106_18678" x1="47.3669" y1="28.002" x2="13.4926" y2="28.002" gradientUnits="userSpaceOnUse">
<stop stop-color="#FFE000"/>
<stop offset="0.4087" stop-color="#FFBD00"/>
<stop offset="0.7754" stop-color="#FFA500"/>
<stop offset="1" stop-color="#FF9C00"/>
</linearGradient>
<linearGradient id="paint2_linear_11106_18678" x1="34.7603" y1="31.2115" x2="2.89838" y2="63.0734" gradientUnits="userSpaceOnUse">
<stop stop-color="#FF3A44"/>
<stop offset="1" stop-color="#C31162"/>
</linearGradient>
<linearGradient id="paint3_linear_11106_18678" x1="10.2173" y1="0.246319" x2="24.4445" y2="14.4735" gradientUnits="userSpaceOnUse">
<stop stop-color="#32A071"/>
<stop offset="0.0685" stop-color="#2DA771"/>
<stop offset="0.4762" stop-color="#15CF74"/>
<stop offset="0.8009" stop-color="#06E775"/>
<stop offset="1" stop-color="#00F076"/>
</linearGradient>
</defs>
</svg>
